<?xml version="1.0" standalone="no"?>
<!DOCTYPE svg PUBLIC "-//W3C//DTD SVG 1.1//EN" "http://www.w3.org/Graphics/SVG/1.1/DTD/svg11.dtd" >
<svg xmlns="http://www.w3.org/2000/svg" xmlns:xlink="http://www.w3.org/1999/xlink" version="1.1">
<metadata>
Created by FontForge 20170731 at Thu Dec  6 20:59:25 2012
 By Aleksey,,,
Copyright (c) 2011 Bold Monday. All rights reserved. Macula is a trademark of Bold Monday. Unauthorized copying or modification of any of its data is illegal.
</metadata>
<defs>
<font id="Macula-Solid" horiz-adv-x="878" >
  <font-face 
    font-family="Macula Solid"
    font-weight="500"
    font-stretch="normal"
    units-per-em="1000"
    panose-1="2 11 6 3 4 0 0 2 0 4"
    ascent="880"
    descent="-120"
    x-height="748"
    cap-height="748"
    bbox="-14 -292 1512 1050"
    underline-thickness="27"
    underline-position="-152"
    unicode-range="U+0020-FB02"
  />
<missing-glyph horiz-adv-x="340" 
d="M50 -80v920h240v-920h-240z" />
    <glyph glyph-name=".notdef" horiz-adv-x="340" 
d="M50 -80v920h240v-920h-240z" />
    <glyph glyph-name=".null" horiz-adv-x="0" 
 />
    <glyph glyph-name="nonmarkingreturn" horiz-adv-x="333" 
 />
    <glyph glyph-name="space" unicode=" " horiz-adv-x="340" 
 />
    <glyph glyph-name="exclam" unicode="!" horiz-adv-x="363" 
d="M75 748h93v-525l-93 83v442zM288 206h-93v525l93 -83v-442zM134 216l41 -37h39l50 -45h-78l-92 82h40zM193 25v84h93v-84h-93zM73 200l95 -84v-75l-95 85v74z" />
    <glyph glyph-name="quotedbl" unicode="&#x22;" horiz-adv-x="512" 
d="M268 451h-93v193h93v-193zM457 451h-93v193h93v-193zM55 736l95 -85v-186l-95 85v186zM293 662l-49 44v30l95 -85v-186l-46 41v156zM168 669l-91 82h79l91 -82h-79zM357 669l-91 82h79l91 -82h-79z" />
    <glyph glyph-name="numbersign" unicode="#" horiz-adv-x="1008" 
d="M337 641v-182h187v-80h-187v-352h-93v352h-187v80h187v182h93zM551 27v178h-67v80h67v356h93v-356h187v-80h-187v-178h-93zM671 329v319l93 83v-319zM457 127l-93 -83v308h93v-225zM364 504v144l93 83v-144zM57 205v80h160v-80h-160zM783 392h145l-89 -80h-145zM764 127
l-93 -83v134h93v-51zM386 486l88 80h50v-80h-138zM791 566h137l-89 -80h-48v80zM79 486l91 80h47v-80h-138zM951 305l-93 -83v70l93 83v-70zM434 748l-89 -80h-79l90 80h78zM741 748l-89 -80h-79l90 80h78zM858 419v47l93 83v-70l-67 -60h-26zM79 312l46 40h92v-40h-138z
M484 312v40h40v-40h-40zM791 459h40v-40h-40v40z" />
    <glyph glyph-name="dollar" unicode="$" horiz-adv-x="653" 
d="M237 -50v77q-75 4 -130 43.5t-76 98.5l76 69q12 -58 53 -91.5t98 -33.5q54 0 81 25t27 55q0 51 -72 99l-81 54q-142 94 -142 218q0 76 46 123.5t120 62.5v75h93v-60q-74 -16 -120 -64.5t-46 -118.5q0 -103 95 -167l101 -67q102 -69 102 -158q0 -55 -36.5 -95.5
t-95.5 -57.5v-87h-93zM450 825v-81q61 -12 106.5 -49.5t64.5 -89.5l-76 -68q-12 58 -52 91.5t-98 33.5q-54 0 -81 -25.5t-27 -57.5q0 -51 73 -99l101 -67q57 -38 89 -84t32 -111q0 -61 -39 -111.5t-93 -71.5v-85h-93v68q60 23 96 67.5t36 104.5q0 105 -105 174l-101 67
q-92 62 -92 151q0 63 45.5 107.5t120.5 55.5v80h93zM395 635q44 0 78.5 -27.5t45.5 -76.5h-98q-18 64 -72 96q18 8 46 8zM258 140q-43 0 -78 27.5t-46 76.5h97q20 -64 72 -97q-19 -7 -45 -7z" />
    <glyph glyph-name="percent" unicode="%" horiz-adv-x="1069" 
d="M167 39l-58 67l545 630l57 -67zM729 27q-84 0 -145 59t-61 156q0 99 59.5 155.5t144.5 58.5q-54 -28 -82.5 -81t-28.5 -116q0 -71 34.5 -109t79.5 -38q48 0 77 34.5t29 93.5q0 54 -29 97q11 4 26 4q32 0 59 -29.5t27 -89.5q0 -77 -49.5 -136t-140.5 -59zM833 453
q84 0 145 -59t61 -156q0 -99 -60 -155.5t-144 -58.5q54 28 82.5 81t28.5 116q0 71 -34.5 109t-79.5 38q-48 0 -77 -34.5t-29 -93.5q0 -57 29 -98q-12 -3 -26 -3q-32 0 -59 29.5t-27 89.5q0 77 49.5 136t140.5 59zM30 537q0 99 59.5 155.5t144.5 58.5q-54 -28 -82.5 -81.5
t-28.5 -115.5q0 -71 34.5 -109t79.5 -38q48 0 77 34.5t29 93.5q0 53 -29 97q11 4 26 4q32 0 59 -29.5t27 -89.5v-2l-167 -193h-23q-84 0 -145 59t-61 156zM496 243l-187 -216h-116l543 627h114l-152 -176q-86 -11 -144 -73t-58 -162zM525 630l-74 -86q-7 57 -40 88t-72 31
q-48 0 -77 -34.5t-29 -93.5q0 -57 29 -98q-12 -3 -26 -3q-32 0 -59 29.5t-27 89.5q0 77 49.5 136t140.5 59q60 0 110 -31.5t75 -86.5zM740 681l-57 67h113l57 -67h-113z" />
    <glyph glyph-name="ampersand" unicode="&#x26;" horiz-adv-x="964" 
d="M253 415l203 -169l230 191l34 -78l-200 -167l27 -22q40 -33 68.5 -46t66.5 -13q66 0 122 54l33 -75q-62 -63 -157 -63q-54 0 -91.5 15t-79.5 51l-53 45l-64 -53q-68 -58 -160 -58q-75 0 -135 51t-60 136q0 103 94 160q12 -11 36 -31l26 -23q-63 -41 -63 -105
q0 -44 30 -73t72 -29q62 0 119 47l39 32l-200 167q-55 45 -72 69q-39 53 -39 122q0 83 60.5 137.5t143.5 61.5q-52 -26 -81.5 -72t-29.5 -105q0 -90 81 -157zM606 561q0 -93 -79 -152l-29 -22l-65 55l21 16q59 45 59 104q0 48 -29.5 74t-82.5 26t-81 -27.5t-28 -64.5
q0 -45 55 -91l173 -145l-65 -54l-188 159q-68 57 -68 133q0 78 55.5 127t146.5 49q87 0 146 -49t59 -138zM688 205h-111l162 135h110zM240 189q0 -24 16 -47q-8 -2 -24 -2q-32 0 -53.5 21.5t-21.5 53.5q0 53 58 87l55 -45q-30 -28 -30 -68zM965 102h-102l-35 80h102z
M850 367h-102l-35 80h102zM378 25h-28q29 14 55 36l50 41l33 -27l20 -16l-5 -3q-55 -31 -125 -31zM682 138q-56 0 -106 42h122l36 -30q-25 -12 -52 -12zM860 75h96q-62 -50 -147 -50h-18q41 19 69 50zM396 635h5q85 0 85 -73q0 -46 -55 -87l-20 -15l-41 35q-12 9 -19 16
q52 34 52 91q0 17 -7 33z" />
    <glyph glyph-name="quotesingle" unicode="'" horiz-adv-x="323" 
d="M268 451h-93v193h93v-193zM55 736l95 -85v-186l-95 85v186zM168 669l-91 82h79l91 -82h-79z" />
    <glyph glyph-name="parenleft" unicode="(" horiz-adv-x="496" 
d="M257 426q0 -168 54.5 -276.5t151.5 -156.5l-89 -65q-89 47 -149.5 172t-60.5 297q0 213 79 360.5t202 197.5l27 -93q-93 -50 -154 -158.5t-61 -277.5zM47 354q0 161 63 293t173 220q-146 -171 -146 -470q0 -183 63.5 -310t154.5 -178v-1l-26 -89q-123 48 -202.5 192
t-79.5 343zM359 -172l22 74l101 74l-22 -74z" />
    <glyph glyph-name="parenright" unicode=")" horiz-adv-x="496" 
d="M239 349q0 168 -54.5 276.5t-152.5 156.5l89 65q89 -47 150 -172t61 -297q0 -214 -79.5 -360.5t-202.5 -197.5l-26 93q92 51 153.5 159t61.5 277zM137 947l-22 -74l-101 -74l22 74zM213 -92q146 173 146 470q0 183 -64 310t-155 178l1 1l26 89q123 -48 202.5 -192
t79.5 -343q0 -161 -63.5 -293.5t-172.5 -219.5z" />
    <glyph glyph-name="asterisk" unicode="*" horiz-adv-x="676" 
d="M32 528h157l-92 126l51 74l122 -169l123 171l51 -74l-296 -409l-51 73l92 128h-157v80zM644 448h-157l82 -114h-103l-59 82l-137 -189h-103l299 414h104l-82 -113h156v-80zM270 605l-104 143h104l52 -71zM469 307h100l-55 -80h-100zM570 668h-99l-56 80h100zM392 245
l-37 52l52 72l36 -50zM56 555l49 44l32 -44h-81zM571 377l-32 44h80z" />
    <glyph glyph-name="plus" unicode="+" horiz-adv-x="827" 
d="M427 400h-255v80h255v167l93 84v-251h255v-80h-255v-273l-93 -83v356zM307 27v243l93 84v-327h-93zM75 293l89 80h215l-89 -80h-215zM752 373l-89 -80h-116v80h205zM307 507v134h93v-134h-93zM52 380l93 83v-70l-93 -83v70zM329 668l90 80h78l-89 -80h-79z" />
    <glyph glyph-name="comma" unicode="," horiz-adv-x="323" 
d="M192 -82l-10 40q37 3 37 42v25h-44v84h93v-109q0 -45 -18.5 -62t-57.5 -20zM55 201l95 -85v-77l-95 85v77zM168 134l-91 82h79l91 -82h-79zM167 -18h-17l10 -40l-86 77l-10 40h27l66 -59h35q0 -18 -25 -18z" />
    <glyph glyph-name="hyphen" unicode="-" horiz-adv-x="627" 
d="M172 480h380l-89 -80h-291v80zM164 373h291v-80h-380zM52 380l93 83v-70l-93 -83v70zM575 393l-93 -83v70l93 83v-70z" />
    <glyph glyph-name="period" unicode="." horiz-adv-x="323" 
d="M175 25v84h93v-84h-93zM55 200l95 -84v-75l-95 85v74zM76 216h73l96 -82h-77z" />
    <glyph glyph-name="slash" unicode="/" horiz-adv-x="667" 
d="M49 -67l-56 80l498 860h101zM175 -80h-101l544 940l56 -80z" />
    <glyph glyph-name="zero" unicode="0" horiz-adv-x="753" 
d="M328 140q-67 0 -114 74t-47 190q0 75 17.5 136t45 98.5t62.5 63.5t68 36t65 10q125 0 203 -99.5t78 -271.5q0 -156 -78 -254t-197 -99q78 35 130 120.5t52 226.5q0 136 -55 213.5t-132 77.5q-76 0 -121 -70.5t-45 -180.5q0 -61 14 -113.5t45 -90.5t73 -46
q-30 -21 -64 -21zM327 113q76 0 121 70.5t45 180.5q0 93 -35 165.5t-97 84.5q30 21 65 21q67 0 113.5 -74.5t46.5 -189.5q0 -93 -26 -163.5t-67 -107.5t-83 -55t-83 -18q-125 0 -202.5 99.5t-77.5 271.5q0 155 77.5 253t196.5 100q-78 -36 -129.5 -121t-51.5 -226
q0 -136 55 -213.5t132 -77.5z" />
    <glyph glyph-name="one" unicode="1" horiz-adv-x="521" 
d="M177 107h120v624l93 -83v-541h120v-80h-333v80zM214 748h56v-597l-93 82v297h-120v78q66 0 109.5 41.5t47.5 98.5zM150 44l-93 83v70l93 -83v-70zM248 134h-79l-89 80h79zM79 503h71v-63zM486 134h-69v63z" />
    <glyph glyph-name="two" unicode="2" horiz-adv-x="639" 
d="M411 448l-232 -234h323v-80h-457v68l268 270q52 52 52 106q0 30 -12 57h4q46 0 73.5 -25t27.5 -69q0 -26 -10.5 -46.5t-36.5 -46.5zM357 748q90 0 155.5 -53.5t65.5 -154.5q0 -48 -18.5 -85t-62.5 -83l-128 -131h-124l172 173q40 40 54 67t14 59q0 56 -35.5 89t-92.5 33
q-58 0 -97.5 -32t-53.5 -86l-76 68q22 59 81 97.5t146 38.5zM157 27l-90 80h443l89 -80h-442zM232 750q-97 -42 -128 -131h-90q24 60 86 94.5t132 36.5zM529 127v70l93 -83v-70zM178 531h-78l-68 61h78z" />
    <glyph glyph-name="three" unicode="3" horiz-adv-x="674" 
d="M503 235q0 -91 -65 -149.5t-169 -58.5q-57 0 -103 13.5t-73.5 36.5t-44 45.5t-25.5 47.5l75 66q42 -123 171 -123q62 0 101.5 31.5t39.5 92.5q0 51 -35.5 87.5t-98.5 36.5h-40v81h24q62 0 88.5 32.5t26.5 77.5q0 48 -27 82q2 0 7 0.5t8 0.5q49 0 77 -27.5t28 -79.5
q0 -82 -81 -122q61 -20 88.5 -70t27.5 -101zM623 235q0 -98 -69.5 -154t-163.5 -57q66 28 103 85t37 126q0 50 -22.5 99t-68.5 75q56 43 56 119q0 63 -37 98.5t-95 35.5q-53 0 -93 -32.5t-52 -86.5l-78 68q22 58 81 97.5t141 39.5q101 0 163.5 -54t62.5 -148q0 -89 -65 -140
q45 -23 72.5 -67t27.5 -104zM242 750q-99 -45 -128 -131h-90q24 59 86.5 94t131.5 37zM269 140q-62 0 -94.5 27t-49.5 77h98q24 -75 83 -100q-16 -4 -37 -4zM120 592l68 -61h-78l-68 61h78z" />
    <glyph glyph-name="four" unicode="4" horiz-adv-x="729" 
d="M435 27v173h-304v86l294 378l9 1h94v-251h-93v125l-201 -259h468v-80h-174v-173h-93zM114 315l-64 57l283 364l64 -57zM293 307l62 80h234l88 -80h-384zM408 44l-93 83v46h93v-129zM508 692h-83l-62 56h83zM104 287v-70l-62 55v70zM408 414h-32l32 41v-41z" />
    <glyph glyph-name="five" unicode="5" horiz-adv-x="645" 
d="M292 454h-101v294h419v-80h-326v-134h31q129 0 200 -72t71 -182q0 -104 -71.5 -178.5t-195.5 -74.5q-203 0 -262 161h102q52 -75 161 -75q82 0 127.5 51t45.5 117q0 80 -54.5 126.5t-146.5 46.5zM186 427h106q87 0 130.5 -40.5t43.5 -105.5q0 -59 -40.5 -100t-105.5 -41
q-90 0 -136 62l60 55q18 -43 68 -43q26 0 44.5 18t18.5 46q0 69 -87 69h-191zM164 731v-287l-93 -83v287zM311 561v80h275l-88 -80h-187zM78 215l68 61h78l-68 -61h-78z" />
    <glyph glyph-name="six" unicode="6" horiz-adv-x="698" 
d="M309 27q-121 0 -191.5 93.5t-70.5 262.5q0 170 77 268t197 100q-52 -24 -91.5 -66.5t-66.5 -125t-22 -190.5q25 40 73.5 66.5t103.5 26.5q98 0 158 -61t60 -157q0 -95 -64 -156t-163 -61zM174 244q0 -55 39 -93t95 -38t95.5 38t39.5 93q0 56 -39 94t-96 38q-56 0 -95 -38
t-39 -94zM426 662q-59 0 -102 -46t-58 -133q-56 -13 -98 -46q4 78 29 140t62.5 98t79.5 54.5t86 18.5q69 0 127 -33t96 -97l-72 -65q-25 52 -65 80.5t-85 28.5zM439 24h-15q64 29 101.5 87t37.5 133t-35 133.5t-97 87.5h7q96 0 157 -64.5t61 -156.5q0 -91 -61 -155.5
t-156 -64.5zM426 635q74 0 123 -91h-98q-34 59 -90 70q31 21 65 21zM329 142q-12 -2 -21 -2q-45 0 -76 30t-31 74q0 45 31 75t76 30q7 0 21 -2q-50 -40 -50 -103q0 -64 50 -102z" />
    <glyph glyph-name="seven" unicode="7" horiz-adv-x="627" 
d="M410 668h-286l-90 80h514l58 -53q-85 -51 -154.5 -121.5t-122.5 -157.5t-92 -176.5t-75 -200.5l-71 64q61 201 137.5 336.5t181.5 228.5zM611 665v-109q-114 -94 -191 -220.5t-138 -308.5h-93q33 106 69.5 192.5t86.5 171t117 154t149 120.5zM275 561h-143v80h209
q-37 -40 -66 -80zM105 648v-69l-93 83v69z" />
    <glyph glyph-name="eight" unicode="8" horiz-adv-x="659" 
d="M271 113q59 0 87 26t28 61q0 46 -48 78l-153 98q-112 72 -112 178q0 85 57 135.5t140 58.5q-104 -50 -104 -166q0 -99 97 -161l127 -81q92 -59 92 -150q0 -73 -62 -118t-150 -45q-90 0 -154.5 54t-64.5 138q0 102 81 159q14 -12 32 -23l40 -26q-60 -43 -60 -109
q0 -49 35 -78t92 -29zM528 414l-28 20l-45 28q52 40 52 100q0 48 -29.5 74t-82.5 26t-79.5 -24.5t-26.5 -57.5q0 -46 51 -78l139 -89q123 -79 123 -195q0 -84 -61.5 -138.5t-150.5 -54.5q54 24 86.5 66.5t32.5 98.5q0 107 -94 168l-139 89q-83 54 -83 135q0 77 54.5 121.5
t147.5 44.5q86 0 145.5 -49t59.5 -138q0 -47 -20.5 -85.5t-51.5 -61.5zM171 220q0 54 58 93l66 -42q-46 -31 -46 -86q0 -27 15 -45q-42 2 -67.5 23t-25.5 57zM394 635q86 0 86 -73q0 -49 -50 -84l-67 44q39 31 39 80q0 19 -8 33z" />
    <glyph glyph-name="nine" unicode="9" horiz-adv-x="698" 
d="M389 748q121 0 191.5 -93.5t70.5 -262.5q0 -170 -77 -268t-197 -100q82 38 134.5 131t45.5 251q-25 -40 -73.5 -66.5t-103.5 -26.5q-98 0 -158 61t-60 157q0 95 64 156t163 61zM524 531q0 55 -39 93t-95 38t-95.5 -38t-39.5 -93q0 -56 39 -94t96 -38q56 0 95 38t39 94z
M272 113q58 0 101.5 46t58.5 133q54 12 98 46q-4 -79 -29 -140.5t-62.5 -97.5t-80 -54.5t-85.5 -18.5q-69 0 -127 33t-96 96l71 65q25 -52 65.5 -80t85.5 -28zM259 751h14q-64 -30 -101 -88t-37 -132q0 -75 35 -133.5t96 -87.5h-6q-96 0 -157 64.5t-61 156.5q0 91 61 155.5
t156 64.5zM272 140q-76 0 -123 91h98q34 -60 89 -70q-29 -21 -64 -21zM369 633q14 2 21 2q45 0 76 -30t31 -74q0 -45 -31 -75t-76 -30q-15 0 -22 2q51 38 51 103q0 63 -50 102z" />
    <glyph glyph-name="colon" unicode=":" horiz-adv-x="323" 
d="M175 293v84h93v-84h-93zM175 26v84h93v-84h-93zM55 201l95 -84v-75l-95 85v74zM55 468l95 -84v-75l-95 85v74zM76 217h73l96 -82h-77zM76 484h73l96 -82h-77z" />
    <glyph glyph-name="semicolon" unicode=";" horiz-adv-x="323" 
d="M175 -84v41h3q41 0 41 43v25h-44v84h93v-119q0 -35 -20.5 -54.5t-59.5 -19.5h-13zM175 292v84h93v-84h-93zM174 -18h-24v-50l-95 85v51h26l76 -68h35q0 -18 -18 -18zM55 200l95 -84v-75l-95 85v74zM55 467l95 -84v-75l-95 85v74zM76 216h73l96 -82h-77zM76 483h73l96 -82
h-77z" />
    <glyph glyph-name="less" unicode="&#x3c;" horiz-adv-x="695" 
d="M653 559l-414 -239l307 -177v-102l-483 278l590 341v-101zM47 343v102l513 297l80 -56zM296 320l87 50l253 -145l-80 -55zM573 42v106l80 55v-106z" />
    <glyph glyph-name="equal" unicode="=" horiz-adv-x="767" 
d="M177 584h510l-89 -80h-421v80zM169 477h421v-80h-510zM57 484l93 83v-70l-93 -83v70zM710 497l-93 -83v70l93 83v-70zM177 317h510l-89 -80h-421v80zM169 210h421v-80h-510zM57 217l93 83v-70l-93 -83v70zM710 230l-93 -83v70l93 83v-70z" />
    <glyph glyph-name="greater" unicode="&#x3e;" horiz-adv-x="695" 
d="M42 215l414 240l-307 176v103l482 -279l-589 -341v101zM55 89l593 343v-102l-513 -297zM59 549l79 55l260 -150l-86 -50zM122 733v-106l-80 -55v106z" />
    <glyph glyph-name="question" unicode="?" horiz-adv-x="586" 
d="M266 206v38q0 40 18 59t56 33q50 19 80.5 53.5t30.5 104.5q0 66 -45.5 117t-127.5 51q-109 0 -161 -75h-104q26 73 93.5 117t170.5 44q124 0 195.5 -74.5t71.5 -178.5q0 -160 -135 -224q-27 -12 -38.5 -26t-11.5 -36v-3h-93zM278 635q65 0 105.5 -41t40.5 -100
q0 -101 -95 -133q-42 -14 -66 -38.5t-24 -72.5v-27l-93 83v15q0 40 21 60t62 32q3 1 15 4.5t15.5 4.5t14 4.5t14 5.5t12 6.5t11.5 8t8.5 9.5t7.5 11.5t4 13t2 16.5q0 28 -18.5 46t-44.5 18q-49 0 -68 -44l-61 55q44 63 137 63zM103 499l-68 61h78l68 -61h-78zM205 216
l41 -37h39l50 -45h-78l-92 82h40zM264 25v84h93v-84h-93zM144 200l95 -84v-75l-95 85v74z" />
    <glyph glyph-name="at" unicode="@" 
d="M618 231v44q-53 -44 -135 -44t-139.5 55t-57.5 148q0 95 65 151.5t157 56.5q87 0 145 -56.5t58 -154.5v-200h-93zM484 204q43 0 73 10l-79 -71q-25 -5 -70 -5q-95 -1 -168.5 82.5t-73.5 200.5q0 156 98 241.5t244 85.5q141 0 232 -79t91 -196v-147l-93 -85v190
q0 111 -67.5 174.5t-162.5 63.5q-108 0 -178.5 -66t-70.5 -170q0 -102 63.5 -165.5t161.5 -63.5zM385 27q-136 0 -237 107.5t-101 264.5q0 154 91.5 245t220.5 105q-98 -37 -159 -119t-61 -209q0 -132 82 -221t187 -89q31 0 63 4v-80q-33 -8 -86 -8zM618 436q0 58 -33.5 92
t-84.5 34q-53 0 -87 -37t-34 -89t34 -88.5t81 -36.5q55 0 89.5 37t34.5 88zM591 207v-70l-93 -83v70zM568 371q-28 -33 -75 -33q-33 0 -60 28t-27 70q0 32 18.5 59t49.5 36q-4 -15 -4 -36q0 -47 28 -81.5t70 -42.5z" />
    <glyph glyph-name="A" unicode="A" 
d="M236 321h239l47 -80h-332l-63 -107h-102l356 614h102zM506 555l-121 -207h-100l222 383l354 -611l-56 -80zM225 214h345l-114 198l50 87l274 -472h-102l-62 107h-335zM81 27l-55 80h106l55 -80h-106zM209 44l-54 79l45 79l55 -79z" />
    <glyph glyph-name="B" unicode="B" horiz-adv-x="772" 
d="M467 293h-299v-187h295q71 0 117.5 38.5t46.5 104.5q0 72 -54 116l61 53q43 -27 65 -74t22 -97q0 -98 -64.5 -159.5t-170.5 -61.5h-411v615h310q87 0 137 -45.5t50 -123.5q0 -66 -44 -110q30 -12 51 -42t21 -71q0 -52 -37.5 -84t-99.5 -32h-246l90 80h160q18 0 29 13
t11 27q0 16 -11.5 28t-28.5 12zM599 473q0 93 -59.5 144t-152.5 51h-290l90 80h260q107 0 171 -54.5t64 -130.5q0 -65 -50 -109l-41 -36q8 27 8 55zM168 561v-188h214q41 0 69 27t28 67t-26.5 67t-70.5 27h-214zM195 150v116h93v-32zM217 400l90 80h144q0 -3 0.5 -7t0.5 -6
q0 -30 -19 -48.5t-48 -18.5h-168zM288 534v-33l-93 -84v117h93z" />
    <glyph glyph-name="C" unicode="C" horiz-adv-x="835" 
d="M377 27q-144 0 -237 107t-93 263t92.5 251.5t216.5 101.5q-94 -40 -155 -131t-61 -215q0 -125 69 -208t168 -83q71 0 131 53.5t80 144.5l76 -69q-36 -96 -116 -155.5t-171 -59.5zM479 662q-84 0 -151.5 -68.5t-67.5 -182.5q0 -104 55.5 -171.5t141.5 -78.5
q-37 -21 -79 -21q-86 0 -148.5 74t-62.5 190q0 155 94 249.5t222 94.5q100 0 182.5 -57.5t120.5 -161.5l-77 -69q-21 95 -83 148.5t-147 53.5zM479 635q76 0 131.5 -48t73.5 -133h-98q-15 57 -64 104t-124 55q41 22 81 22zM688 233h93q-38 -95 -116 -149t-170 -59
q63 27 114 79.5t79 128.5zM697 321l68 -61h-78l-68 61h78z" />
    <glyph glyph-name="D" unicode="D" horiz-adv-x="803" 
d="M187 748h198q165 0 268 -98.5t103 -261.5q0 -167 -102.5 -264t-289.5 -97h-289v614h284q128 0 202.5 -70t74.5 -184t-74 -183.5t-203 -69.5h-141l89 80h52q86 0 135 47t49 126q0 81 -49 127.5t-135 46.5h-191v-454h191q140 0 222 77.5t82 202.5q0 126 -82.5 203.5
t-221.5 77.5h-262zM195 151v383h93v-299z" />
    <glyph glyph-name="E" unicode="E" horiz-adv-x="721" 
d="M168 731v-357h358v-80h-358v-187h358v-80h-451v621zM288 668v-167l-93 -83v330h451v-80h-358zM217 401l90 80h316l-88 -80h-318zM218 134l89 80h317l-89 -80h-317zM315 561v80h308l-89 -80h-219zM195 151v116h93v-32zM646 395l-93 -85v71l93 83v-69zM646 127l-93 -83v70
l93 83v-70z" />
    <glyph glyph-name="F" unicode="F" horiz-adv-x="709" 
d="M168 731v-357h358v-80h-358v-267h-93v621zM288 668v-167l-93 -83v330h451v-80h-358zM217 401l90 80h316l-89 -80h-317zM315 561v80h307l-88 -80h-219zM646 395l-93 -83v69l93 83v-69zM288 127l-93 -83v223h93v-140z" />
    <glyph glyph-name="G" unicode="G" horiz-adv-x="838" 
d="M647 129l-25 -22q-88 -80 -214 -80q-159 0 -260 107t-101 263t92.5 251.5t216.5 101.5q-94 -40 -155 -131t-61 -215q0 -125 75.5 -208t186.5 -83q94 0 152 55v131h93v-170zM479 662q-83 0 -151 -68.5t-68 -175.5q0 -109 62.5 -166.5t157.5 -57.5q31 0 47 4v-19
q-51 -39 -125 -39q-101 0 -168 73.5t-67 190.5q0 155 94 249.5t222 94.5q97 0 172.5 -50.5t118.5 -138.5l-74 -66q-25 77 -83.5 123t-137.5 46zM479 635q71 0 123.5 -41t73.5 -110h-101q-21 49 -66.5 85.5t-110.5 43.5q41 22 81 22zM674 153v153l93 83v-152zM576 326l90 80
h78l-89 -80h-79z" />
    <glyph glyph-name="H" unicode="H" horiz-adv-x="824" 
d="M168 374h368v274l93 83v-604l-93 -83v250h-368v-267h-93v614h93v-267zM656 134v614h93v-614h-93zM195 418v230l93 83v-230zM217 401l90 80h202v-80h-292zM288 127l-93 -83v223h93v-140zM559 27l89 80h79l-90 -80h-78zM97 668l90 80h78l-89 -80h-79z" />
    <glyph glyph-name="I" unicode="I" horiz-adv-x="539" 
d="M283 668h-120v80h333v-80h-120v-435l-93 -82v517zM256 107h120v-80h-333v80h120v433l93 83v-516zM43 648l93 83v-70l-93 -83v70zM496 127l-93 -83v70l93 83v-70zM145 561h-80l89 80h81zM384 134h-79l89 80h79zM403 578v63h69zM136 134h-69l69 63v-63z" />
    <glyph glyph-name="J" unicode="J" horiz-adv-x="673" 
d="M386 114q58 0 92.5 38t34.5 109v386l93 83v-488q0 -96 -59 -155.5t-160 -59.5t-167.5 58.5t-70.5 152.5l80 73q5 -107 49 -152t108 -45zM393 271v290h-278v80h371v-380q0 -59 -26.5 -89.5t-73.5 -30.5q-19 0 -35 4q42 35 42 126zM137 668l89 80h357l-89 -80h-357zM29 233
h94q5 -72 43 -126t99 -82q-98 0 -163.5 57t-72.5 151zM53 260l68 61h78l-68 -61h-78z" />
    <glyph glyph-name="K" unicode="K" horiz-adv-x="744" 
d="M168 641v-205l454 -409h-137l-317 286v-286h-93v614h93zM205 440l341 308h137l-341 -308l386 -347l-70 -62zM383 440l327 295v-124l-259 -233zM288 731v-179l-93 -84v180zM288 127l-93 -83v208l93 -84v-41zM97 668l90 80h78l-89 -80h-79z" />
    <glyph glyph-name="L" unicode="L" horiz-adv-x="689" 
d="M553 214v107h93v-187h-428l88 80h247zM526 241h-71l71 63v-63zM168 641v-534h456l-90 -80h-459v614h93zM288 235l-93 -85v497l93 84v-496zM97 668l90 80h78l-89 -80h-79z" />
    <glyph glyph-name="M" unicode="M" horiz-adv-x="958" 
d="M268 735l291 -513l250 443l74 67v-605l-93 -83v398l-231 -407l-361 637zM168 27h-93v638h94l361 -638h-105l-257 453v-453zM506 374l165 291h105l-217 -384zM670 173l93 164v-310h-93v146zM288 127l-93 -83v331l93 -165v-83zM697 692l62 56h101l-62 -56h-101zM95 692
l62 56h85l-63 -56h-84z" />
    <glyph glyph-name="N" unicode="N" horiz-adv-x="746" 
d="M168 503v-476h-93v638h95l419 -638h-109zM578 263v384l93 84v-650l-52 -47l-420 640l69 61zM288 127l-93 -84v365l93 -142v-139zM458 499v142h93v-283zM559 668h-79l90 80h78zM178 692h-83l62 56h83z" />
    <glyph glyph-name="O" unicode="O" horiz-adv-x="857" 
d="M167 404q0 157 91.5 250.5t224.5 93.5q63 0 121.5 -25t104.5 -71t73.5 -117.5t27.5 -157.5q0 -153 -88.5 -248.5t-215.5 -103.5q95 40 153 131.5t58 214.5q0 124 -69 207.5t-169 83.5q-90 0 -154.5 -68t-64.5 -183q0 -105 57.5 -173.5t144.5 -76.5q-39 -21 -84 -21
q-88 0 -149.5 75t-61.5 189zM690 371q0 -157 -91 -250.5t-222 -93.5q-142 0 -236 105.5t-94 265.5q0 153 89.5 249t215.5 102q-94 -40 -153 -130t-59 -215q0 -124 69 -207.5t168 -83.5q90 0 155 67.5t65 183.5q0 105 -58 173t-145 77q42 21 85 21q88 0 149.5 -75t61.5 -189z
" />
    <glyph glyph-name="P" unicode="P" horiz-adv-x="689" 
d="M168 320h210q83 0 129 47t46 127q0 81 -48 127.5t-136 46.5h-272l90 80h204q115 0 185 -68t70 -186q0 -119 -68 -186.5t-183 -67.5h-227v-213h-93v614h292q78 0 118.5 -39.5t40.5 -107.5q0 -70 -39 -108.5t-111 -38.5h-159l90 80h53q35 0 54 19t19 49q0 31 -20 48.5
t-52 17.5h-193v-241zM195 364v170h93v-86zM288 127l-93 -83v169h93v-86z" />
    <glyph glyph-name="Q" unicode="Q" horiz-adv-x="874" 
d="M573 243q24 49 24 121q0 105 -58 173t-145 77q42 21 85 21q88 0 149.5 -75t61.5 -189q0 -113 -50 -196l76 -77l-60 -65l-71 73q-91 -79 -208 -79q-142 0 -236 105.5t-94 265.5q0 153 89.5 249t215.5 102q-94 -40 -153 -130t-59 -215q0 -124 69 -207.5t168 -83.5
q81 0 145 57l-94 96h-1l60 66zM378 140q-88 0 -149.5 75t-61.5 189q0 157 91.5 250.5t224.5 93.5q63 0 121.5 -25t104.5 -71t73.5 -117.5t27.5 -157.5q0 -107 -45 -187h-88q40 80 40 181q0 124 -69 207.5t-169 83.5q-90 0 -154.5 -68t-64.5 -183q0 -106 57.5 -174t145.5 -76
q-38 -21 -85 -21zM688 27l55 60h76l-55 -60h-76zM737 114l-49 49h80l48 -49h-79zM605 47q-51 -19 -99 -22q44 19 76 45zM569 339q-1 -21 -8 -46l-45 46h53z" />
    <glyph glyph-name="R" unicode="R" horiz-adv-x="738" 
d="M384 240l237 -213h-137l-236 213h-80v-213h-93v614h292q78 0 118.5 -39.5t40.5 -107.5q0 -70 -39 -108.5t-111 -38.5h-159l90 80h55q34 0 53 19t19 49q0 31 -20.5 48.5t-52.5 17.5h-193v-241h210q83 0 129 47t46 127q0 81 -48 127.5t-136 46.5h-272l90 80h204
q115 0 185 -68t70 -186q0 -119 -68 -186.5t-182 -67.5h-12zM660 31l-208 186q53 7 99 34l176 -159zM195 364v170h93v-86zM195 44v169h39l54 -49v-37z" />
    <glyph glyph-name="S" unicode="S" horiz-adv-x="653" 
d="M258 113q54 0 81 25t27 55q0 51 -72 99l-81 54q-142 94 -142 218q0 89 60.5 136.5t148.5 49.5q-53 -24 -84.5 -67.5t-31.5 -100.5q0 -103 95 -167l101 -67q102 -69 102 -158q0 -73 -60.5 -118t-147.5 -45q-81 0 -141 39.5t-82 102.5l76 69q12 -58 53 -91.5t98 -33.5z
M395 662q-54 0 -81 -25.5t-27 -57.5q0 -51 73 -99l101 -67q57 -38 89 -84t32 -111q0 -82 -62.5 -136.5t-146.5 -56.5q53 24 84.5 67t31.5 98q0 105 -105 174l-101 67q-92 62 -92 151q0 75 60 120.5t148 45.5q81 0 140.5 -39.5t81.5 -103.5l-76 -68q-12 58 -52 91.5t-98 33.5
zM395 635q44 0 78.5 -27.5t45.5 -76.5h-98q-18 64 -72 96q18 8 46 8zM258 140q-43 0 -78 27.5t-46 76.5h97q20 -64 72 -97q-19 -7 -45 -7z" />
    <glyph glyph-name="T" unicode="T" horiz-adv-x="749" 
d="M622 668h-141v-541l-93 -83v624h-349l88 80h584zM508 641h106v-80h-106v80zM734 662l-93 -83v69l93 84v-70zM268 27v514l93 84v-598h-93zM250 561h-235v80h323z" />
    <glyph glyph-name="U" unicode="U" horiz-adv-x="705" 
d="M638 748v-466q0 -121 -80.5 -188t-205.5 -67q-123 0 -204 67t-81 188v359h93v-335q0 -92 54.5 -142t138.5 -50q85 0 138.5 50t53.5 142v442h93zM518 731v-424q0 -81 -46.5 -123.5t-120.5 -42.5q-71 0 -117.5 42.5t-46.5 122.5v342l93 83v-442q0 -92 73 -92q72 0 72 92
v359zM89 668l90 80h78l-89 -80h-79z" />
    <glyph glyph-name="V" unicode="V" horiz-adv-x="870" 
d="M195 748l307 -529l244 422h103l-347 -598l-408 705h101zM69 735l410 -708h-102l-364 628zM501 276l-50 87l213 368l55 -80zM848 668h-106l-55 80h106z" />
    <glyph glyph-name="W" unicode="W" horiz-adv-x="1148" 
d="M628 748l226 -489l177 382h99l-276 -595l-325 702h99zM507 517l-89 -192l-49 106l138 298l326 -702h-100zM191 748l227 -490l88 192l50 -107l-138 -297l-325 702h98zM71 728l326 -701h-100l-285 615zM854 326l-49 105l140 304l59 -85zM971 748h100l55 -80h-100z" />
    <glyph glyph-name="X" unicode="X" horiz-adv-x="701" 
d="M37 120l193 267l-193 267l51 74l194 -269l195 271l51 -74l-440 -609zM652 641l-181 -253l183 -254h-104l-131 182l-209 -289h-103l443 614h102zM106 748h104l124 -171l-52 -72zM367 197l52 72l109 -151l-51 -73zM554 107h100l-55 -80h-100zM654 668h-99l-56 80h100z" />
    <glyph glyph-name="Y" unicode="Y" horiz-adv-x="698" 
d="M199 748l217 -325l145 218h103l-199 -299v-215l-93 -83v291l-275 413h102zM252 27v286l-232 347l53 76l272 -408v-301h-93zM416 471l-51 76l122 184l52 -75zM672 668h-107l-55 80h107z" />
    <glyph glyph-name="Z" unicode="Z" horiz-adv-x="738" 
d="M691 27h-555v80l555 559v-123l-433 -436h433v-80zM531 668h-371l-90 80h558l55 -50l-558 -562l-64 58zM404 214h175l88 -80h-342zM385 561h-217v80h297zM141 648v-69l-93 83v69zM109 114v-70l-62 55v70z" />
    <glyph glyph-name="bracketleft" unicode="[" horiz-adv-x="485" 
d="M195 962h283v-80h-190v-863l-93 -82v1025zM168 -107h190v-80h-283v1049l93 83v-1052zM478 -87l-93 -83v70l93 83v-70zM366 -80h-149l89 80h149zM315 775v80h139l-88 -80h-51z" />
    <glyph glyph-name="backslash" unicode="\" horiz-adv-x="667" 
d="M-7 780l56 80l543 -940h-101zM74 873h101l499 -860l-56 -80z" />
    <glyph glyph-name="bracketright" unicode="]" horiz-adv-x="485" 
d="M290 -187h-283v80h190v863l93 82v-1025zM317 882h-190v80h283v-1049l-93 -83v1052zM7 862l93 83v-70l-93 -83v70zM119 855h149l-89 -80h-149zM170 0v-80h-139l88 80h51z" />
    <glyph glyph-name="asciicircum" unicode="^" 
d="M678 27l-306 529l-245 -422h-102l346 597l408 -704h-101zM395 748h102l364 -628l-56 -80zM209 44l-55 79l218 375l50 -86zM26 107h106l55 -80h-106z" />
    <glyph glyph-name="underscore" unicode="_" horiz-adv-x="827" 
d="M172 107h580l-89 -80h-491v80zM164 0h491v-80h-580zM52 7l93 83v-70l-93 -83v70zM775 20l-93 -83v70l93 83v-70z" />
    <glyph glyph-name="grave" unicode="`" horiz-adv-x="500" 
d="M101 918v56l218 -74v-56zM330 920l-216 74l56 19l216 -74zM341 843v56l58 20v-56z" />
    <glyph glyph-name="a" unicode="a" 
d="M403 321h239l-247 427h102l356 -614h-102l-63 107h-332zM493 348l-121 207l-299 -515l-56 80l354 611l222 -383h-100zM308 214h345l-56 -80h-335l-62 -107h-102l274 472l50 -87zM852 107l-55 -80h-106l55 80h106zM723 123l-54 -79l-46 79l55 79z" />
    <glyph glyph-name="b" unicode="b" horiz-adv-x="761" 
d="M168 481h269q19 0 30.5 12t11.5 28q0 15 -11.5 27.5t-30.5 12.5h-130l-90 80h222q60 0 96.5 -32t36.5 -84t-39 -86q31 -20 49.5 -56t18.5 -81q0 -79 -48 -124t-135 -45h-343v615h384q104 0 169 -61.5t65 -160.5q0 -81 -52 -137l-67 59q25 37 25 77q0 66 -46 104.5
t-116 38.5h-269v-187zM710 210q0 -76 -68.5 -130t-186.5 -54h-268l-90 80h325q92 0 149 51t57 144q0 38 -18 77l34 -29q66 -59 66 -139zM168 401v-188h244q44 0 70 27t26 67t-27.5 67t-68.5 27h-244zM195 508v116l93 -84v-32h-93zM217 374h197q29 0 48 -18.5t19 -48.5
q0 -3 -0.5 -7t-0.5 -6h-173zM288 240h-93v117l93 -84v-33z" />
    <glyph glyph-name="c" unicode="c" horiz-adv-x="835" 
d="M47 378q0 156 93 263t237 107q91 0 171 -59.5t116 -156.5l-76 -69q-20 91 -80 145t-131 54q-99 0 -168 -83t-69 -208q0 -126 58 -216t152 -129q-58 4 -111.5 28.5t-96.5 67t-69 109t-26 147.5zM260 364q0 -114 67.5 -182.5t151.5 -68.5q85 0 147 53t83 149l77 -69
q-38 -104 -120 -161.5t-183 -57.5q-133 0 -224.5 93.5t-91.5 250.5q0 116 62.5 190t148.5 74q42 0 79 -22q-86 -11 -141.5 -78t-55.5 -171zM479 140q-42 0 -81 21q75 8 124 55t64 105h98q-18 -85 -73.5 -133t-131.5 -48zM495 749q92 -4 170 -58t116 -149h-93
q-28 75 -79 127.5t-114 79.5zM765 515l-68 -61h-78l68 61h78z" />
    <glyph glyph-name="d" unicode="d" horiz-adv-x="803" 
d="M385 27h-198l-90 80h262q139 0 221.5 77.5t82.5 203.5q0 125 -82 202.5t-222 77.5h-191v-454h191q86 0 135 46.5t49 127.5q0 79 -49 126t-135 47h-52l-89 80h141q129 0 203 -69.5t74 -183.5t-74.5 -184t-202.5 -70h-284v614h289q187 0 289.5 -97t102.5 -264
q0 -163 -103 -261.5t-268 -98.5zM195 241v383l93 -84v-299h-93z" />
    <glyph glyph-name="e" unicode="e" horiz-adv-x="721" 
d="M195 27v597l93 -84v-166h358v-80h-358v-187h358v-80h-451zM526 668h-358v-624l-93 83v621h451v-80zM307 561l-89 80h316l89 -80h-316zM315 214h219l89 -80h-308v80zM315 481h220l88 -80h-308v80zM646 648v-70l-93 83v70z" />
    <glyph glyph-name="f" unicode="f" horiz-adv-x="709" 
d="M195 27v597l93 -84v-166h358v-80h-358v-267h-93zM526 668h-358v-624l-93 83v621h451v-80zM307 561l-89 80h316l89 -80h-316zM315 481h220l87 -80h-307v80zM646 648v-70l-93 83v70z" />
    <glyph glyph-name="g" unicode="g" horiz-adv-x="832" 
d="M423 27q-73 0 -140 24.5t-120 70.5t-84.5 118.5t-31.5 160.5q0 151 90 249t223 98q92 0 170.5 -52.5t116.5 -133.5l-71 -68q-26 75 -83 121.5t-129 46.5q-100 0 -162 -78t-62 -183q0 -143 96.5 -234.5t245.5 -91.5q104 0 187 45q-106 -93 -246 -93zM758 406v-180
q-38 -52 -108 -88t-168 -36q-137 0 -226 83.5t-89 215.5q0 97 55 165.5t142 68.5q42 0 80 -19q-78 -7 -131 -62t-53 -155q0 -101 66 -159t156 -58q115 0 183 72v152h93zM485 750q87 -3 162 -50.5t116 -127.5h-92q-59 125 -186 178zM557 218v99l81 72v-123q-33 -33 -81 -48z
M748 545l-68 -61h-78l68 61h78z" />
    <glyph glyph-name="h" unicode="h" horiz-adv-x="824" 
d="M75 731l93 -83v-274h368v374h93v-614h-93v160h-368v-250l-93 83v604zM749 648v-604l-93 83v604zM195 267h93v-240h-93v240zM217 401l90 80h202v-80h-292zM288 641v-140l-93 -83v223h93zM176 748l90 -80h-79l-89 80h78zM637 107l89 -80h-78l-90 80h79z" />
    <glyph glyph-name="i" unicode="i" horiz-adv-x="539" 
d="M376 668h-120v-517l-93 82v435h-120v80h333v-80zM163 107h120v516l93 -83v-433h120v-80h-333v80zM403 731l93 -83v-70l-93 83v70zM136 44l-93 83v70l93 -83v-70zM474 561h-80l-90 80h81zM234 134h-79l-89 80h79zM136 641v-63l-69 63h69zM472 134h-69v63z" />
    <glyph glyph-name="j" unicode="j" horiz-adv-x="673" 
d="M513 252v416h-278v80h371v-496q0 -100 -61 -162.5t-160 -64.5q61 29 94.5 88t33.5 139zM393 261v279l93 83v-371q0 -103 -58.5 -164t-160.5 -61t-168.5 59t-69.5 157l77 69q5 -108 50 -153t110 -45q58 0 92.5 38t34.5 109zM375 561h-238l89 80h239zM323 156
q-24 -15 -57 -15q-54 0 -92 40t-41 140h96q4 -127 94 -165zM115 578v70l93 83v-70z" />
    <glyph glyph-name="k" unicode="k" horiz-adv-x="752" 
d="M168 339v-205h-93v614h93v-286l317 286h137zM546 27l-341 308l453 409l70 -62l-386 -347l341 -308h-137zM451 396l259 -232v-124l-327 295zM288 223v-179l-93 83v180zM195 731l93 -83v-41l-93 -84v208zM187 27l-90 80h79l89 -80h-78z" />
    <glyph glyph-name="l" unicode="l" horiz-adv-x="689" 
d="M168 214h246l89 -80h-428v614h93v-534zM98 107h455v107h93v-187h-460zM195 241v490l93 -83v-407h-93zM526 151l-93 84v68l93 -82v-70zM545 241l-90 80h79l89 -80h-78z" />
    <glyph glyph-name="m" unicode="m" horiz-adv-x="958" 
d="M399 222l291 513l70 -63l-361 -637l-231 407v-398l-93 83v605l74 -67zM883 27h-93v453l-257 -453h-105l361 638h94v-638zM399 281l-217 384h105l165 -291zM288 27h-93v310l93 -164v-146zM670 210l93 165v-331l-93 83v83zM199 748l62 -56h-101l-62 56h101zM801 748l62 -56
h-84l-63 56h85z" />
    <glyph glyph-name="n" unicode="n" horiz-adv-x="746" 
d="M578 272v476h93v-638h-95l-419 638h109zM168 512v-384l-93 -84v650l52 47l420 -640l-69 -61zM458 508v140l93 84v-365zM288 134h-93v283l93 -142v-141zM187 107h79l-90 -80h-78zM568 83h83l-62 -56h-83z" />
    <glyph glyph-name="o" unicode="o" horiz-adv-x="857" 
d="M717 404q0 123 -58 214.5t-153 130.5q127 -7 215.5 -102.5t88.5 -248.5q0 -86 -27.5 -157.5t-73.5 -117.5t-104.5 -71t-121.5 -25q-133 0 -224.5 93.5t-91.5 250.5q0 114 61.5 189t149.5 75q42 0 84 -21q-87 -9 -144.5 -77t-57.5 -173q0 -115 64.5 -183t154.5 -68
q100 0 169 83.5t69 207.5zM140 371q0 -125 59 -216t153 -130q-126 7 -215.5 103t-89.5 249q0 160 94 265.5t236 105.5q131 0 222 -93.5t91 -250.5q0 -114 -61.5 -189t-149.5 -75q-46 0 -85 21q87 8 145 76.5t58 173.5q0 116 -65 183.5t-155 67.5q-99 0 -168 -83.5
t-69 -207.5z" />
    <glyph glyph-name="p" unicode="p" horiz-adv-x="689" 
d="M376 347h-208v-213h-93v614h316q115 0 185 -68t70 -186q0 -119 -68 -186.5t-183 -67.5h-88l-90 80h161q83 0 129 47t46 127q0 81 -48 127.5t-136 46.5h-201v-241h192q35 0 54 19t19 49q0 31 -20 48.5t-52 17.5h-54l-90 80h150q78 0 118.5 -39.5t40.5 -107.5
q0 -70 -39 -108.5t-111 -38.5zM288 44l-93 85v174l93 -84v-175zM195 454v170l93 -84v-86h-93zM176 107l89 -80h-78l-90 80h79z" />
    <glyph glyph-name="q" unicode="q" horiz-adv-x="883" 
d="M799 35l-89 90q-44 -48 -104 -73t-123 -25q-133 0 -224.5 93.5t-91.5 250.5q0 114 61.5 189t149.5 75q42 0 84 -21q-87 -9 -144.5 -77t-57.5 -173q0 -115 64.5 -183t154.5 -68q46 0 90 20.5t75 58.5l-94 96l59 65l82 -84q26 63 26 135q0 123 -58 214.5t-153 130.5
q127 -7 215.5 -102.5t88.5 -248.5q0 -111 -48 -202l96 -97zM690 404q0 -46 -11 -86l-65 68h-17v25q0 116 -65 183.5t-155 67.5q-99 0 -168 -83.5t-69 -207.5q0 -125 59 -216t153 -130q-126 7 -215.5 103t-89.5 249q0 160 94 265.5t236 105.5q131 0 222 -93.5t91 -250.5z
M529 272l70 -71h-80l-71 71h81zM578 359l-55 -60h-76l54 60h77zM709 88l61 -61h-81l-26 26q27 18 46 35zM521 174h63q-49 -34 -105 -34q-21 0 -37 4q47 7 79 30z" />
    <glyph glyph-name="r" unicode="r" horiz-adv-x="714" 
d="M393 347l184 -213h-121l-184 213h-104v-213h-93v614h316q115 0 185 -68t70 -186q0 -87 -38.5 -147t-104.5 -85l-58 67q108 37 108 165q0 81 -48 127.5t-136 46.5h-201v-241h193q35 0 54 19t19 49q0 31 -20 48.5t-52 17.5h-55l-90 80h150q78 0 118.5 -39.5t40.5 -107.5
q0 -65 -33.5 -102.5t-99.5 -44.5zM288 44l-93 83v176l93 -84v-175zM195 454v170l93 -84v-86h-93zM549 27l-69 80h120l70 -80h-121zM176 107l89 -80h-78l-90 80h79zM307 240l-90 80h41l70 -80h-21z" />
    <glyph glyph-name="s" unicode="s" horiz-adv-x="660" 
d="M376 113q51 0 85 29.5t34 77.5q0 75 -91 135l-127 83q-42 28 -63.5 54.5t-21.5 62.5q0 37 26 58.5t66 21.5q7 0 10 -1q-9 -18 -9 -44q0 -59 69 -104l126 -84q108 -73 108 -183q0 -86 -59.5 -139t-155.5 -53q-85 0 -142.5 39t-78.5 99l75 67q14 -56 52.5 -87.5t96.5 -31.5
zM375 185q0 59 -66 102l-130 87q-107 70 -107 182q0 89 64.5 140.5t150.5 51.5q85 0 142.5 -39t78.5 -99l-75 -66q-14 56 -52.5 87t-96.5 31q-51 0 -85 -29.5t-34 -77.5q0 -73 90 -134l125 -82q44 -29 66 -56t22 -63q0 -37 -26 -58.5t-66 -21.5h-11q10 20 10 45zM626 619
h-92q-37 90 -125 131q67 -1 129.5 -36.5t87.5 -94.5zM34 156h92q36 -92 125 -131q-68 1 -130 36t-87 95zM52 183l68 61h78l-68 -61h-78zM608 592l-68 -61h-78l68 61h78z" />
    <glyph glyph-name="t" unicode="t" horiz-adv-x="749" 
d="M361 134h-93v534h-141l-89 80h584l88 -80h-349v-534zM481 44l-93 83v498l93 -84v-497zM411 641h323v-80h-235zM135 561v80h106v-80h-106zM108 579l-93 83v69l93 -83v-69zM369 107l89 -80h-78l-90 80h79z" />
    <glyph glyph-name="u" unicode="u" horiz-adv-x="705" 
d="M638 648v-356q0 -122 -81.5 -193.5t-203.5 -71.5q-123 0 -204.5 71.5t-81.5 193.5v439l93 -83v-373q0 -92 53.5 -142t138.5 -50q84 0 138.5 50t54.5 142v456zM425 280v468h93v-473q0 -80 -46.5 -122.5t-117.5 -42.5q-74 0 -120.5 42.5t-46.5 123.5v365h93v-361
q0 -44 20 -64t52 -20q73 0 73 84zM168 748l90 -80h-79l-89 80h78z" />
    <glyph glyph-name="v" unicode="v" horiz-adv-x="870" 
d="M123 641l245 -422l306 529h101l-408 -705l-346 598h102zM493 27h-102l410 708l56 -80zM150 651l55 80l213 -368l-50 -87zM128 668h-106l55 80h106z" />
    <glyph glyph-name="w" unicode="w" horiz-adv-x="1148" 
d="M71 728l218 -469l226 489h98l-325 -702l-276 596zM636 517l-226 -490h-100l326 702l137 -297l-49 -106zM636 450l89 -192l220 477l59 -85l-280 -604l-137 297zM846 27h-100l285 614h99zM93 748h98l147 -317l-49 -105zM971 748h100l55 -80h-100z" />
    <glyph glyph-name="x" unicode="x" horiz-adv-x="701" 
d="M663 654l-192 -266l193 -267l-51 -74l-194 269l-196 -271l-51 74l441 609zM48 134l182 253l-184 254h105l131 -182l208 289h104l-443 -614h-103zM366 198l53 72l175 -243h-104zM172 656l52 74l110 -153l-52 -72zM147 668h-100l55 80h100zM47 107h99l56 -80h-100z" />
    <glyph glyph-name="y" unicode="y" horiz-adv-x="698" 
d="M136 641l146 -218l216 325h102l-274 -413v-291l-93 83v215l-200 299h103zM446 313v-286h-93v301l271 408l53 -76zM158 656l53 75l122 -184l-51 -76zM133 668h-107l55 80h107z" />
    <glyph glyph-name="z" unicode="z" horiz-adv-x="738" 
d="M47 668v80h555v-80l-555 -559v123l433 436h-433zM677 581l-470 -474h371l89 -80h-557l-55 50l557 561zM159 561l-88 80h342l-79 -80h-175zM273 134l79 80h218v-80h-297zM597 127v69l93 -83v-69zM629 661v70l62 -55v-70z" />
    <glyph glyph-name="braceleft" unicode="{" horiz-adv-x="603" 
d="M367 447q58 -41 58 -127v-257q0 -29 17.5 -46t48.5 -17h82l-89 -80h-98q-23 0 -38.5 13.5t-15.5 34.5v367q0 29 -22.5 50.5t-53.5 21.5h-84v80h84q31 0 53.5 21.5t22.5 50.5v236q0 81 44.5 124t119.5 43h100v-80h-95q-31 0 -53.5 -22t-22.5 -51v-235q0 -86 -58 -127z
M381 -107h95v-80h-99q-75 0 -120 43.5t-45 123.5v257q0 29 -17.5 46t-48.5 17h-71l89 80h87q23 0 38.5 -13.5t15.5 -34.5v-367q0 -29 22.5 -50.5t53.5 -21.5zM596 -87l-93 -83v70l93 83v-70zM52 387l93 83v-70l-93 -83v70zM452 775v32q0 21 15.5 34.5t38.5 13.5h66l-88 -80
h-32zM212 514v176q0 83 49 126l51 46q-7 -25 -7 -58v-242q0 -21 -15.5 -34.5t-38.5 -13.5h-39z" />
    <glyph glyph-name="bar" unicode="|" horiz-adv-x="363" 
d="M288 755v-835h-93v918zM168 -63l-93 83v835h93v-918z" />
    <glyph glyph-name="braceright" unicode="}" horiz-adv-x="603" 
d="M236 328q-58 41 -58 127v257q0 29 -17.5 46t-48.5 17h-82l89 80h98q23 0 38.5 -13.5t15.5 -34.5v-367q0 -29 22.5 -50.5t53.5 -21.5h84v-80h-84q-31 0 -53.5 -21.5t-22.5 -50.5v-236q0 -81 -44.5 -124t-119.5 -43h-100v80h95q31 0 53.5 22t22.5 51v235q0 86 58 127z
M298 443v367q0 29 -22.5 50.5t-53.5 21.5h-95v80h99q75 0 120 -43.5t45 -123.5v-257q0 -29 17.5 -46t48.5 -17h71l-89 -80h-87q-23 0 -38.5 13.5t-15.5 34.5zM342 -41l-52 -46q8 29 8 58v242q0 20 14 34t35 14h44v-176q0 -83 -49 -126zM7 862l93 83v-70l-93 -83v70zM551 388
l-93 -83v70l93 83v-70zM97 -80h-66l88 80h32v-32q0 -21 -15.5 -34.5t-38.5 -13.5z" />
    <glyph glyph-name="asciitilde" unicode="~" horiz-adv-x="993" 
d="M328 521q66 0 174 -40t151 -40q68 0 101 43l61 -53q-59 -70 -161 -70q-47 0 -154 40t-161 40q-120 0 -188 -85h-98q96 165 275 165zM340 414q45 0 152.5 -40t161.5 -40q124 0 188 85h97q-94 -165 -274 -165q-66 0 -174 40t-151 40q-67 0 -101 -44l-61 53q58 71 162 71z
M841 446l-63 54h96l64 -54h-97zM118 275l-63 54h96l64 -54h-97z" />
    <glyph glyph-name="uni00A0" unicode="&#xa0;" horiz-adv-x="340" 
 />
    <glyph glyph-name="exclamdown" unicode="&#xa1;" horiz-adv-x="363" 
d="M288 27h-93v525l93 -83v-442zM75 569h93v-525l-93 83v442zM229 559l-41 37h-39l-50 45h78l92 -82h-40zM170 750v-84h-93v84h93zM290 575l-95 84v75l95 -85v-74z" />
    <glyph glyph-name="cent" unicode="&#xa2;" horiz-adv-x="835" 
d="M312 -50v83q-118 24 -191.5 125.5t-73.5 238.5q0 142 77 235t188 116v77h93v-59q-111 -27 -188 -123.5t-77 -238.5q0 -125 69 -208t168 -83q71 0 131 53.5t80 144.5l76 -69q-33 -89 -104 -146.5t-155 -66.5v-79h-93zM525 825v-80q88 -12 157 -68t104 -148l-77 -69
q-21 95 -83 148.5t-147 53.5q-84 0 -151.5 -68.5t-67.5 -182.5q0 -104 55.5 -171.5t141.5 -78.5q-37 -21 -79 -21q-86 0 -148.5 74t-62.5 190q0 139 76.5 230t188.5 110v81h93zM688 233h93q-34 -87 -103.5 -142.5t-152.5 -70.5v-70h-93v55q81 17 150.5 75t105.5 153z
M479 635q76 0 131.5 -48t73.5 -133h-98q-15 57 -64 104t-124 55q41 22 81 22zM697 321l68 -61h-78l-68 61h78z" />
    <glyph glyph-name="sterling" unicode="&#xa3;" horiz-adv-x="742" 
d="M167 374h151q-7 20 -21.5 52t-21.5 56.5t-7 54.5q0 48 28.5 72.5t67.5 24.5q19 0 35 -4q-41 -32 -41 -86q0 -25 8 -51.5t24.5 -65t21.5 -53.5h202v-80h-193q-3 -32 -18 -53h-91q12 23 15 53h-160v80zM158 576q0 71 54 121.5t151 50.5q95 0 161 -55t71 -147l-81 -72
q-5 105 -48 146t-102 41q-52 0 -87.5 -32t-35.5 -92q0 -43 31 -120l-102 92q-12 25 -12 67zM262 214h313l88 -80h-531l-55 49q103 29 131 84h86q-10 -29 -32 -53zM687 27h-548v80h548v-80zM714 552h-93q-6 69 -42.5 120t-94.5 78q95 -5 159 -57.5t71 -140.5zM489 437h62
l40 -36h-160q-5 14 -16.5 40.5t-16.5 39.5h89q2 -28 2 -44zM159 401l-89 80h89l90 -80h-90zM47 394v70l93 -83v-70zM691 525l-68 -61h-78l68 61h78zM60 91v74l54 -49v-74z" />
    <glyph glyph-name="currency" unicode="&#xa4;" horiz-adv-x="851" 
d="M452 27h-55q-96 0 -173.5 39t-127 123t-49.5 201q0 86 28.5 155.5t77 113t110.5 66.5t131 23h58q149 0 250.5 -94t101.5 -265q0 -173 -101 -267.5t-251 -94.5zM374 113h102q97 0 166 72.5t69 199.5q0 124 -69 200.5t-164 76.5h-102q-97 0 -166 -72.5t-69 -199.5
q0 -124 69 -200.5t164 -76.5zM478 635q84 0 145 -69.5t61 -180.5q0 -115 -61.5 -182t-146.5 -67h-5q58 30 89 93t31 137q0 82 -35 132.5t-79 50.5q-47 0 -76.5 -46.5t-29.5 -115.5q0 -74 32 -127q-14 -7 -29 -7q-30 0 -58 42.5t-28 112.5q0 56 19.5 106t64 85.5t106.5 35.5z
M374 140q-84 0 -145 69.5t-61 180.5q0 115 61.5 182t146.5 67h4q-57 -30 -88 -93t-31 -137q0 -82 35 -132.5t79 -50.5q47 0 76.5 46t29.5 115q0 72 -33 127q14 8 30 8q30 0 58 -42.5t28 -112.5q0 -56 -19.5 -106t-64 -85.5t-106.5 -35.5z" />
    <glyph glyph-name="yen" unicode="&#xa5;" horiz-adv-x="697" 
d="M86 324h160l-225 336l53 76l275 -412h165v-80h-168v-217h-93v217h-167v80zM200 748l202 -302l130 195h103l-139 -210h115l-89 -80h-160l-264 397h102zM402 493l-52 77l108 161l52 -75zM466 127l-93 -83v173h93v-90zM643 668h-107l-55 80h107zM634 345l-93 -83v69l93 83
v-69zM110 351l53 48l32 -48h-85z" />
    <glyph glyph-name="brokenbar" unicode="&#xa6;" horiz-adv-x="363" 
d="M75 -80v326l93 83v-409h-93zM288 346v-326l-93 -83v409h93zM288 535h-93v320h93v-320zM75 445v310l93 83v-309zM266 508l-90 -80h-78l89 80h79z" />
    <glyph glyph-name="section" unicode="&#xa7;" horiz-adv-x="642" 
d="M416 748q110 0 182 -61l-52 -70q-53 45 -126 45q-30 0 -51.5 -6.5t-31 -17t-13.5 -19.5t-4 -18q0 -30 35 -53l160 -105q78 -50 78 -130q0 -60 -45 -97q-3 110 -91 168l-157 103q-19 13 -30.5 22t-27 34.5t-15.5 56.5q0 69 53.5 108.5t135.5 39.5zM226 27q-111 0 -182 60
l52 71q51 -45 126 -45q30 0 51.5 6.5t31 17t13.5 19.5t4 18q0 29 -35 53l-160 105q-78 50 -78 130q0 62 45 97q1 -110 91 -168l157 -103q19 -13 30.5 -22t27 -34.5t15.5 -56.5q0 -69 -53.5 -108.5t-135.5 -39.5zM442 176q0 78 -84 134l-160 104q-77 50 -77 150
q0 72 44.5 118t115.5 60q-81 -48 -81 -143q0 -78 84 -134l160 -104q77 -50 77 -150q0 -72 -45 -118.5t-116 -60.5q82 48 82 144zM259 143q-15 -3 -38 -3q-54 0 -86 29h93q19 -19 31 -26zM383 631q20 4 38 4q53 0 85 -29h-92q-20 18 -31 25z" />
    <glyph glyph-name="dieresis" unicode="&#xa8;" horiz-adv-x="500" 
d="M181 843v57l58 20v-57zM101 863v56l58 -20v-56zM261 863v56l58 -20v-56zM341 843v56l58 20v-56zM215 935l-45 -15l-57 19l46 16zM284 935l57 20l45 -16l-56 -19z" />
    <glyph glyph-name="copyright" unicode="&#xa9;" horiz-adv-x="851" 
d="M452 27h-55q-96 0 -173.5 39t-127 123t-49.5 201q0 86 28.5 155.5t77 113t110.5 66.5t131 23h58q149 0 250.5 -94t101.5 -265q0 -173 -101 -267.5t-251 -94.5zM595 368h-127q-8 -67 -35 -94q-28 42 -28 113q0 74 30 110q28 -45 32 -90h128l111 100q-27 74 -87.5 114.5
t-133.5 40.5h-103q-100 0 -171 -72.5t-71 -199.5q0 -130 70 -203.5t170 -73.5h103q75 0 135 40.5t87 115.5zM380 140q-88 0 -150.5 67.5t-62.5 182.5q0 113 62.5 179t151.5 68q-58 -31 -89 -93t-31 -135q0 -82 37 -132.5t84 -50.5q37 0 64.5 25.5t39.5 68.5l70 -63
q-23 -52 -69 -84.5t-107 -32.5zM673 515l-79 -71q-15 48 -47 76.5t-63 28.5q-47 0 -76.5 -46.5t-29.5 -115.5q0 -79 33 -128q-13 -6 -30 -6q-33 0 -63 42t-30 113q0 56 20.5 106t67 85.5t109.5 35.5q59 0 110 -31.5t78 -88.5zM484 138q71 38 101 115h83q-28 -54 -77 -84
t-107 -31zM455 514q14 8 30 8q22 0 47 -24t37 -64h-78q-10 44 -36 80zM583 341l68 -61h-78l-68 61h78z" />
    <glyph glyph-name="ordfeminine" unicode="&#xaa;" horiz-adv-x="630" 
d="M246 434q-32 0 -58 29t-26 90q0 78 48.5 136.5t139.5 58.5q65 0 115 -44v44h93v-426h-93v194q0 71 -34.5 109t-79.5 38q-48 0 -77 -34.5t-29 -93.5q0 -57 29 -98q-13 -3 -28 -3zM135 554q0 -73 33.5 -110t78.5 -37q49 0 78.5 33t29.5 85v58q0 29 -8 53h5q32 0 59 -29.5
t27 -89.5v-195h-93v43q-49 -43 -122 -43q-72 0 -126.5 59.5t-54.5 155.5q0 98 59 155t143 59q-53 -28 -81 -81t-28 -116zM558 134h-396v80h396v-80zM446 27h-382l89 80h382zM42 114l93 83v-70l-93 -83v70z" />
    <glyph glyph-name="guillemotleft" unicode="&#xab;" horiz-adv-x="596" 
d="M131 165l-91 226l93 232h90l-93 -232l72 -179zM442 570l-72 -179l93 -232h-90l-93 232l91 225zM228 222l-68 169l90 224l71 -47l-71 -177l68 -169h-90zM558 560l-68 -169l71 -178l-71 -46l-90 224l68 169h90zM239 159h-71l57 38h71zM465 585l-57 38h71l57 -38h-71z" />
    <glyph glyph-name="logicalnot" unicode="&#xac;" horiz-adv-x="840" 
d="M172 400v80h603v-353l-93 -83v356h-510zM164 373h468l-89 -80h-468zM562 273l93 83v-329h-93v246zM52 380l93 83v-70l-93 -83v70z" />
    <glyph glyph-name="uni00AD" unicode="&#xad;" horiz-adv-x="627" 
d="M172 480h380l-89 -80h-291v80zM164 373h291v-80h-380zM52 380l93 83v-70l-93 -83v70zM575 393l-93 -83v70l93 83v-70z" />
    <glyph glyph-name="registered" unicode="&#xae;" horiz-adv-x="851" 
d="M452 27h-55q-96 0 -173.5 39t-127 123t-49.5 201q0 86 28.5 155.5t77 113t110.5 66.5t131 23h58q149 0 250.5 -94t101.5 -265q0 -173 -101 -267.5t-251 -94.5zM699 206l-64 58q76 63 76 172q0 101 -69.5 163.5t-183.5 62.5h-164l-127 -114v-435h140l60 51l55 -51h174z
M314 341v80h141q16 0 16 14q0 13 -17 13h-167v-134h164q67 0 103.5 32.5t36.5 87.5q0 53 -37.5 87t-102.5 34h-235l90 80h152q103 0 164.5 -54.5t61.5 -144.5q0 -93 -61 -146t-148 -53h-17l101 -97h-124l-105 97h-43v-97h-93v388h257q57 0 85 -28t28 -66q0 -93 -113 -93
h-137zM593 148l-69 66q50 9 88 32l44 -41zM314 155v57l33 -30z" />
    <glyph glyph-name="macron" unicode="&#xaf;" horiz-adv-x="500" 
d="M388 949v-37h-218v37h218zM122 853l41 37h208l-41 -37h-208zM113 906l35 32v-34l-35 -31v33z" />
    <glyph glyph-name="degree" unicode="&#xb0;" horiz-adv-x="527" 
d="M277 548q0 115 -70 115q-32 0 -54.5 -32.5t-22.5 -89.5q0 -142 95 -196h-13q-67 0 -121 53.5t-54 149.5q0 98 49 149t123 51q66 0 113.5 -49.5t47.5 -143.5q0 -50 -15.5 -72.5t-34.5 -22.5q-43 0 -43 88zM250 548q0 -115 70 -115q32 0 54.5 32.5t22.5 89.5q0 141 -95 196
h12q68 0 122 -53.5t54 -149.5q0 -98 -48.5 -149t-122.5 -51q-66 0 -114 49.5t-48 143.5q0 51 15 73t35 22q43 0 43 -88z" />
    <glyph glyph-name="plusminus" unicode="&#xb1;" horiz-adv-x="827" 
d="M427 454h-255v80h255v214h93v-214h255v-80h-255v-213h-93v213zM52 214h255v110l93 84v-194h255v-80h-603v80zM74 107h589l89 -80h-588zM75 347l89 80h215l-89 -80h-215zM752 427l-89 -80h-116v80h205zM307 561v87l93 83v-170h-93zM52 434l93 83v-70l-93 -83v70zM682 197
l93 -83v-70l-93 83v70z" />
    <glyph glyph-name="twosuperior" unicode="&#xb2;" horiz-adv-x="417" 
d="M57 625v10q0 48 31.5 80.5t80.5 32.5h41q49 0 81 -30t32 -73q0 -34 -21 -61l-37 -50h105v-80h-290l126 169q7 7 7 17q0 12 -8 20t-20 8q-11 0 -18.5 -8t-7.5 -20v-15h-102zM259 347h-193v80h282zM121 554l-48 44h81z" />
    <glyph glyph-name="threesuperior" unicode="&#xb3;" horiz-adv-x="495" 
d="M168 347l-89 80h136q65 0 101 34t36 87q0 7 -1 11l60 -53q32 -28 32 -65q0 -38 -28 -66t-85 -28h-162zM443 553q0 -17 -6 -34l-97 86q10 25 10 50q0 6 -2 18l63 -55q32 -28 32 -65zM306 602q19 -30 19 -54q0 -38 -26.5 -66t-83.5 -28h-158v80h156q17 0 17 13q0 14 -16 14
h-46l-89 80h135q16 0 16 14q0 13 -17 13h-156v80h153q113 0 113 -93q0 -28 -17 -53z" />
    <glyph glyph-name="acute" unicode="&#xb4;" horiz-adv-x="500" 
d="M181 844v56l218 74v-56zM386 994l-216 -74l-56 19l216 74zM101 863v56l58 -20v-56z" />
    <glyph glyph-name="mu" unicode="&#xb5;" horiz-adv-x="713" 
d="M75 -187v828h93v-335q0 -92 54.5 -142t138.5 -50q85 0 138.5 50t53.5 142v442h93v-466q0 -121 -80.5 -188t-205.5 -67q-121 0 -192 67v-281h-93zM526 731v-424q0 -81 -46.5 -123.5t-120.5 -42.5q-71 0 -117.5 42.5t-46.5 122.5v342l93 83v-442q0 -92 73 -92q72 0 72 92
v359zM288 6v-93l-93 -83v212q39 -25 93 -36zM97 668l90 80h78l-89 -80h-79z" />
    <glyph glyph-name="paragraph" unicode="&#xb6;" horiz-adv-x="823" 
d="M655 561h-91v-534h-93v267h-194q-105 0 -169.5 62.5t-64.5 164.5q0 99 64 163t162 64h367l90 -80h-427q-70 0 -116 -39.5t-46 -107.5q0 -69 45.5 -108t116.5 -39h172v187h-172q-19 0 -30.5 -12t-11.5 -28q0 -15 11.5 -27.5t30.5 -12.5h33l90 -80h-125q-61 0 -97 32.5
t-36 87.5t36 87.5t97 32.5h451v-614h-93v534zM628 44l-37 33v457h37v-490zM444 44l-93 83v140h93v-223zM444 534v-116l-93 84v32h93z" />
    <glyph glyph-name="periodcentered" unicode="&#xb7;" horiz-adv-x="323" 
d="M175 292v84h93v-84h-93zM55 467l95 -84v-75l-95 85v74zM76 483h73l96 -82h-77z" />
    <glyph glyph-name="cedilla" unicode="&#xb8;" horiz-adv-x="500" 
d="M202 0h71q45 0 77 -33t32 -86t-35 -85.5t-90 -32.5q-44 0 -76.5 20t-46.5 52l28 26q8 -28 32.5 -47t60.5 -19q39 0 65.5 24t26.5 64t-26.5 64t-69.5 24h-49v29zM181 -49h70q35 0 55.5 -19t20.5 -49q0 -32 -20.5 -50t-51.5 -18q-29 0 -48.5 17t-24.5 39h30q8 -29 42 -29
q15 0 26.5 10t11.5 29q0 41 -52 41h-94v78h35v-49z" />
    <glyph glyph-name="onesuperior" unicode="&#xb9;" horiz-adv-x="487" 
d="M240 624v-197h90v-80h-273v80h90v115zM57 648l93 83v-70l-93 -83v70zM169 641h49l-89 -80h-49zM267 454v214h-90v80h183v-214h67l-89 -80h-71zM120 454h-39l39 35v-35zM450 447l-93 -83v70l93 83v-70z" />
    <glyph glyph-name="ordmasculine" unicode="&#xba;" horiz-adv-x="605" 
d="M248 322q-84 0 -145 59t-61 156q0 99 59.5 155.5t144.5 58.5q-54 -28 -82.5 -81.5t-28.5 -115.5q0 -71 34.5 -109t79.5 -38q48 0 77 34.5t29 93.5q0 53 -29 97q11 4 26 4q32 0 59 -29.5t27 -89.5q0 -77 -49.5 -136t-140.5 -59zM352 748q84 0 145 -59t61 -156
q0 -99 -60 -155.5t-144 -58.5q54 28 82.5 81.5t28.5 115.5q0 71 -34.5 109t-79.5 38q-48 0 -77 -34.5t-29 -93.5q0 -57 29 -98q-12 -3 -26 -3q-32 0 -59 29.5t-27 89.5q0 77 49.5 136t140.5 59zM558 134h-396v80h396v-80zM446 27h-382l89 80h382zM42 114l93 83v-70l-93 -83
v70z" />
    <glyph glyph-name="guillemotright" unicode="&#xbb;" horiz-adv-x="596" 
d="M372 159l94 232l-72 179l70 46l92 -225l-94 -232h-90zM222 623l94 -232l-92 -226l-70 47l72 179l-94 232h90zM105 615l91 -224l-69 -169h-90l69 169l-72 177zM274 214l72 177l-68 169h89l69 -169l-91 -224zM116 159l-57 38h71l58 -38h-72zM299 585l57 38h72l-58 -38h-71z
" />
    <glyph glyph-name="onequarter" unicode="&#xbc;" horiz-adv-x="928" 
d="M388 27h-101l356 614h102zM778 134h-194l203 278l67 -61l-93 -137h110v-187h-93v107zM350 320l127 114v127h-15l98 169l55 -80l-353 -610l-56 80l115 200h29zM240 624v-197h90v-80h-273v80h90v115zM267 454v214h-90v80h183v-214h67l-89 -80h-71zM654 428h105l-209 -288
l-41 38zM743 668h-106l-55 80h106zM751 27h-93v80h93v-80zM57 648l93 83v-70l-93 -83v70zM450 447l-93 -83v70l93 83v-70zM169 641h49l-89 -80h-49zM120 454h-39l39 35v-35z" />
    <glyph glyph-name="onehalf" unicode="&#xbd;" horiz-adv-x="952" 
d="M388 27h-101l356 614h102zM699 428h41q49 0 81 -30t32 -73q0 -34 -21 -61l-37 -50h105v-80h-290l126 169q7 7 7 17q0 12 -8 20t-20 8q-11 0 -18.5 -8t-7.5 -20v-15h-106l65 112q24 11 51 11zM350 320l127 114v127h-15l98 169l55 -80l-353 -610l-56 80l115 200h29z
M240 624v-197h90v-80h-273v80h90v115zM267 454v214h-90v80h183v-214h67l-89 -80h-71zM789 27h-193v80h282zM743 668h-106l-55 80h106zM57 648l93 83v-70l-93 -83v70zM450 447l-93 -83v70l93 83v-70zM169 641h49l-89 -80h-49zM651 234l-48 44h81zM120 454h-39l39 35v-35z" />
    <glyph glyph-name="threequarters" unicode="&#xbe;" horiz-adv-x="960" 
d="M420 27h-101l356 614h102zM306 602q19 -30 19 -54q0 -38 -26.5 -66t-83.5 -28h-158v80h156q17 0 17 13q0 14 -16 14h-46l-89 80h135q16 0 16 14q0 13 -17 13h-156v80h153q113 0 113 -93q0 -28 -17 -53zM470 441q0 29 -14 54l136 235l55 -80l-353 -610l-56 80l117 201
q54 7 84.5 40t30.5 80zM810 134h-194l203 278l67 -61l-93 -137h110v-187h-93v107zM168 347l-89 80h136q65 0 101 34t36 87q0 7 -1 11l60 -53q32 -28 32 -65q0 -38 -28 -66t-85 -28h-162zM686 428h105l-209 -288l-41 38zM775 668h-106l-55 80h106zM783 27h-93v80h93v-80z
M350 655q0 6 -2 18l63 -55q32 -28 32 -65q0 -17 -6 -34l-97 87q10 20 10 49z" />
    <glyph glyph-name="questiondown" unicode="&#xbf;" horiz-adv-x="596" 
d="M325 569v-38q0 -40 -18 -59t-56 -33q-50 -19 -80.5 -53.5t-30.5 -104.5q0 -66 45.5 -117t127.5 -51q109 0 161 75h104q-26 -73 -93.5 -117t-170.5 -44q-124 0 -195.5 74.5t-71.5 178.5q0 160 135 224q27 12 38.5 26t11.5 36v3h93zM313 140q-65 0 -105.5 41t-40.5 100
q0 101 95 133q42 14 66 38.5t24 72.5v27l93 -83v-15q0 -40 -21 -60t-62 -32q-3 -1 -15 -4.5t-15.5 -4.5t-14 -4.5t-14 -5.5t-12 -6.5t-11.5 -8t-8.5 -9.5t-7.5 -11.5t-4 -13t-2 -16.5q0 -28 18.5 -46t44.5 -18q49 0 68 44l61 -55q-44 -63 -137 -63zM488 276l68 -61h-78
l-68 61h78zM386 559l-41 37h-39l-50 45h78l92 -82h-40zM327 750v-84h-93v84h93zM447 575l-95 84v75l95 -85v-74z" />
    <glyph glyph-name="Agrave" unicode="&#xc0;" 
d="M236 321h239l47 -80h-332l-63 -107h-102l356 614h102zM506 555l-121 -207h-100l222 383l354 -611l-56 -80zM225 214h345l-114 198l50 87l274 -472h-102l-62 107h-335zM81 27l-55 80h106l55 -80h-106zM209 44l-54 79l45 79l55 -79zM290 918v56l218 -74v-56zM519 920
l-216 74l56 19l216 -74zM530 843v56l58 20v-56z" />
    <glyph glyph-name="Aacute" unicode="&#xc1;" 
d="M236 321h239l47 -80h-332l-63 -107h-102l356 614h102zM506 555l-121 -207h-100l222 383l354 -611l-56 -80zM225 214h345l-114 198l50 87l274 -472h-102l-62 107h-335zM81 27l-55 80h106l55 -80h-106zM209 44l-54 79l45 79l55 -79zM370 844v56l218 74v-56zM575 994
l-216 -74l-56 19l216 74zM290 863v56l58 -20v-56z" />
    <glyph glyph-name="Acircumflex" unicode="&#xc2;" 
d="M236 321h239l47 -80h-332l-63 -107h-102l356 614h102zM506 555l-121 -207h-100l222 383l354 -611l-56 -80zM225 214h345l-114 198l50 87l274 -472h-102l-62 107h-335zM81 27l-55 80h106l55 -80h-106zM209 44l-54 79l45 79l55 -79zM519 920l-80 27l-80 -27l-56 19l136 47
l136 -47zM370 843v57l58 20v-57zM450 863v57l58 -20v-57zM290 863v56l58 -20v-56zM530 843v56l58 20v-56z" />
    <glyph glyph-name="Atilde" unicode="&#xc3;" 
d="M236 321h239l47 -80h-332l-63 -107h-102l356 614h102zM506 555l-121 -207h-100l222 383l354 -611l-56 -80zM225 214h345l-114 198l50 87l274 -472h-102l-62 107h-335zM81 27l-55 80h106l55 -80h-106zM209 44l-54 79l45 79l55 -79zM352 905q19 0 60 -13t61 -13q29 0 50 11
v-38q-23 -14 -48 -14q-18 0 -59 14t-63 14q-24 0 -48 -6v39q19 6 47 6zM325 925l14 12q22 21 54 21q18 0 58.5 -13t62.5 -13q15 0 30 3l-14 -13q-21 -20 -55 -20q-18 0 -58.5 13t-62.5 13q-14 0 -29 -3zM545 872v34l28 25v-34z" />
    <glyph glyph-name="Adieresis" unicode="&#xc4;" 
d="M236 321h239l47 -80h-332l-63 -107h-102l356 614h102zM506 555l-121 -207h-100l222 383l354 -611l-56 -80zM225 214h345l-114 198l50 87l274 -472h-102l-62 107h-335zM81 27l-55 80h106l55 -80h-106zM209 44l-54 79l45 79l55 -79zM370 843v57l58 20v-57zM290 863v56
l58 -20v-56zM450 863v56l58 -20v-56zM530 843v56l58 20v-56zM404 935l-45 -15l-57 19l46 16zM473 935l57 20l45 -16l-56 -19z" />
    <glyph glyph-name="Aring" unicode="&#xc5;" 
d="M459 707l-223 -386h239l47 -80h-332l-63 -107h-102l339 584q-50 32 -50 92q0 46 31.5 77.5t77.5 31.5t77.5 -31.5t31.5 -77.5q0 -32 -18.5 -61t-54.5 -42zM524 702l337 -582l-56 -80l-299 515l-121 -207h-100l200 345q31 17 50.5 48.5t19.5 68.5q0 72 -62 112h4
q47 0 78 -32.5t31 -79.5q0 -39 -22.5 -69t-59.5 -39zM225 214h345l-114 198l50 87l274 -472h-102l-62 107h-335zM363 810q0 -24 18 -42t42 -18q25 0 42.5 17t17.5 43t-17.5 43t-42.5 17t-42.5 -17t-17.5 -43zM81 27l-55 80h106l55 -80h-106zM209 44l-54 79l45 79l55 -79z
" />
    <glyph glyph-name="AE" unicode="&#xc6;" horiz-adv-x="1157" 
d="M531 360v342l-429 -583h-110l462 629h508v-80h-338v-187h338v-80h-338v-187h338v-80h-431v147h-131l58 79h73zM504 469l-158 -215h158v-80h-217l-98 -132l-59 68l374 508v-149zM642 27l-89 80h418l89 -80h-418zM763 561l-90 80h298l88 -80h-296zM763 294l-90 80h298
l88 -80h-296zM651 508v116l93 -83v-33h-93zM744 274v-33h-93v116zM57 27l-56 65h107l55 -65h-106zM989 465l93 -85v-69l-93 83v71zM989 197l93 -83v-70l-93 83v70zM989 732l93 -85v-69l-93 83v71z" />
    <glyph glyph-name="Ccedilla" unicode="&#xc7;" horiz-adv-x="835" 
d="M356 -78v106q-136 8 -222.5 113.5t-86.5 255.5q0 156 92.5 251.5t216.5 101.5q-94 -40 -155 -131t-61 -215q0 -125 69 -208t168 -83q71 0 131 53.5t80 144.5l76 -69q-34 -93 -110 -151.5t-163 -63.5v-76h70q35 0 55.5 -19t20.5 -49q0 -32 -20.5 -50t-51.5 -18
q-29 0 -48.5 17t-24.5 39h30q8 -29 42 -29q15 0 26.5 10t11.5 29q0 41 -52 41h-94zM479 662q-84 0 -151.5 -68.5t-67.5 -182.5q0 -104 55.5 -171.5t141.5 -78.5q-37 -21 -79 -21q-86 0 -148.5 74t-62.5 190q0 155 94 249.5t222 94.5q100 0 182.5 -57.5t120.5 -161.5l-77 -69
q-21 95 -83 148.5t-147 53.5zM479 635q76 0 131.5 -48t73.5 -133h-98q-15 57 -64 104t-124 55q41 22 81 22zM592 -119q0 -53 -35 -85.5t-90 -32.5q-44 0 -76.5 20t-46.5 52l28 26q8 -28 32.5 -47t60.5 -19q39 0 65.5 24t26.5 64t-26.5 64t-69.5 24h-49v29h71q45 0 77 -33
t32 -86zM688 233h93q-38 -96 -116 -150t-170 -58q62 26 113 79t80 129zM697 321l68 -61h-78l-68 61h78z" />
    <glyph glyph-name="Egrave" unicode="&#xc8;" horiz-adv-x="721" 
d="M168 731v-357h358v-80h-358v-187h358v-80h-451v621zM288 668v-167l-93 -83v330h451v-80h-358zM217 401l90 80h316l-88 -80h-318zM218 134l89 80h317l-89 -80h-317zM315 561v80h308l-89 -80h-219zM195 151v116h93v-32zM646 395l-93 -85v71l93 83v-69zM646 127l-93 -83v70
l93 83v-70zM206 918v56l218 -74v-56zM435 920l-216 74l56 19l216 -74zM446 843v56l58 20v-56z" />
    <glyph glyph-name="Eacute" unicode="&#xc9;" horiz-adv-x="721" 
d="M168 731v-357h358v-80h-358v-187h358v-80h-451v621zM288 668v-167l-93 -83v330h451v-80h-358zM217 401l90 80h316l-88 -80h-318zM218 134l89 80h317l-89 -80h-317zM315 561v80h308l-89 -80h-219zM195 151v116h93v-32zM646 395l-93 -85v71l93 83v-69zM646 127l-93 -83v70
l93 83v-70zM286 844v56l218 74v-56zM491 994l-216 -74l-56 19l216 74zM206 863v56l58 -20v-56z" />
    <glyph glyph-name="Ecircumflex" unicode="&#xca;" horiz-adv-x="721" 
d="M168 731v-357h358v-80h-358v-187h358v-80h-451v621zM288 668v-167l-93 -83v330h451v-80h-358zM217 401l90 80h316l-88 -80h-318zM218 134l89 80h317l-89 -80h-317zM315 561v80h308l-89 -80h-219zM195 151v116h93v-32zM646 395l-93 -85v71l93 83v-69zM646 127l-93 -83v70
l93 83v-70zM435 920l-80 27l-80 -27l-56 19l136 47l136 -47zM286 843v57l58 20v-57zM366 863v57l58 -20v-57zM206 863v56l58 -20v-56zM446 843v56l58 20v-56z" />
    <glyph glyph-name="Edieresis" unicode="&#xcb;" horiz-adv-x="721" 
d="M168 731v-357h358v-80h-358v-187h358v-80h-451v621zM288 668v-167l-93 -83v330h451v-80h-358zM217 401l90 80h316l-88 -80h-318zM218 134l89 80h317l-89 -80h-317zM315 561v80h308l-89 -80h-219zM195 151v116h93v-32zM646 395l-93 -85v71l93 83v-69zM646 127l-93 -83v70
l93 83v-70zM286 843v57l58 20v-57zM206 863v56l58 -20v-56zM366 863v56l58 -20v-56zM446 843v56l58 20v-56zM320 935l-45 -15l-57 19l46 16zM389 935l57 20l45 -16l-56 -19z" />
    <glyph glyph-name="Igrave" unicode="&#xcc;" horiz-adv-x="539" 
d="M283 668h-120v80h333v-80h-120v-435l-93 -82v517zM256 107h120v-80h-333v80h120v433l93 83v-516zM43 648l93 83v-70l-93 -83v70zM496 127l-93 -83v70l93 83v-70zM145 561h-80l89 80h81zM384 134h-79l89 80h79zM403 578v63h69zM136 134h-69l69 63v-63zM168 918v56l218 -74
v-56zM397 920l-216 74l56 19l216 -74zM408 843v56l58 20v-56z" />
    <glyph glyph-name="Iacute" unicode="&#xcd;" horiz-adv-x="539" 
d="M283 668h-120v80h333v-80h-120v-435l-93 -82v517zM256 107h120v-80h-333v80h120v433l93 83v-516zM43 648l93 83v-70l-93 -83v70zM496 127l-93 -83v70l93 83v-70zM145 561h-80l89 80h81zM384 134h-79l89 80h79zM403 578v63h69zM136 134h-69l69 63v-63zM248 844v56l218 74
v-56zM453 994l-216 -74l-56 19l216 74zM168 863v56l58 -20v-56z" />
    <glyph glyph-name="Icircumflex" unicode="&#xce;" horiz-adv-x="539" 
d="M283 668h-120v80h333v-80h-120v-435l-93 -82v517zM256 107h120v-80h-333v80h120v433l93 83v-516zM43 648l93 83v-70l-93 -83v70zM496 127l-93 -83v70l93 83v-70zM145 561h-80l89 80h81zM384 134h-79l89 80h79zM403 578v63h69zM136 134h-69l69 63v-63zM397 920l-80 27
l-80 -27l-56 19l136 47l136 -47zM248 843v57l58 20v-57zM328 863v57l58 -20v-57zM168 863v56l58 -20v-56zM408 843v56l58 20v-56z" />
    <glyph glyph-name="Idieresis" unicode="&#xcf;" horiz-adv-x="539" 
d="M283 668h-120v80h333v-80h-120v-435l-93 -82v517zM256 107h120v-80h-333v80h120v433l93 83v-516zM43 648l93 83v-70l-93 -83v70zM496 127l-93 -83v70l93 83v-70zM145 561h-80l89 80h81zM384 134h-79l89 80h79zM403 578v63h69zM136 134h-69l69 63v-63zM248 843v57l58 20
v-57zM168 863v56l58 -20v-56zM328 863v56l58 -20v-56zM408 843v56l58 20v-56zM282 935l-45 -15l-57 19l46 16zM351 935l57 20l45 -16l-56 -19z" />
    <glyph glyph-name="Eth" unicode="&#xd0;" horiz-adv-x="875" 
d="M147 27v267h-120v80h120v267h284q128 0 202.5 -70t74.5 -184t-74 -183.5t-203 -69.5h-141l89 80h52q86 0 135 47t49 126q0 81 -49 127.5t-135 46.5h-191v-187h120v-80h-120v-187h191q140 0 222 77.5t82 202.5q0 126 -82.5 203.5t-221.5 77.5h-262l90 80h198
q165 0 268 -98.5t103 -261.5q0 -167 -102.5 -264t-289.5 -97h-289zM267 418v116h93v-33zM360 235l-93 -84v116h93v-32zM480 394l-93 -83v70l93 83v-70zM379 481h78l-89 -80h-79zM120 401h-70l70 63v-63z" />
    <glyph glyph-name="Ntilde" unicode="&#xd1;" horiz-adv-x="746" 
d="M168 503v-476h-93v638h95l419 -638h-109zM578 263v384l93 84v-650l-52 -47l-420 640l69 61zM288 127l-93 -84v365l93 -142v-139zM458 499v142h93v-283zM559 668h-79l90 80h78zM178 692h-83l62 56h83zM286 905q20 0 61 -13t60 -13q29 0 50 11v-38q-23 -14 -48 -14
q-18 0 -59 14t-63 14q-24 0 -48 -6v39q19 6 47 6zM259 925l14 12q22 21 54 21q18 0 58.5 -13t62.5 -13q15 0 30 3l-14 -13q-21 -20 -55 -20q-18 0 -58.5 13t-62.5 13q-14 0 -29 -3zM479 872v34l28 25v-34z" />
    <glyph glyph-name="Ograve" unicode="&#xd2;" horiz-adv-x="857" 
d="M167 404q0 157 91.5 250.5t224.5 93.5q63 0 121.5 -25t104.5 -71t73.5 -117.5t27.5 -157.5q0 -153 -88.5 -248.5t-215.5 -103.5q95 40 153 131.5t58 214.5q0 124 -69 207.5t-169 83.5q-90 0 -154.5 -68t-64.5 -183q0 -105 57.5 -173.5t144.5 -76.5q-39 -21 -84 -21
q-88 0 -149.5 75t-61.5 189zM690 371q0 -157 -91 -250.5t-222 -93.5q-142 0 -236 105.5t-94 265.5q0 153 89.5 249t215.5 102q-94 -40 -153 -130t-59 -215q0 -124 69 -207.5t168 -83.5q90 0 155 67.5t65 183.5q0 105 -58 173t-145 77q42 21 85 21q88 0 149.5 -75t61.5 -189z
M279 918v56l218 -74v-56zM508 920l-216 74l56 19l216 -74zM519 843v56l58 20v-56z" />
    <glyph glyph-name="Oacute" unicode="&#xd3;" horiz-adv-x="857" 
d="M167 404q0 157 91.5 250.5t224.5 93.5q63 0 121.5 -25t104.5 -71t73.5 -117.5t27.5 -157.5q0 -153 -88.5 -248.5t-215.5 -103.5q95 40 153 131.5t58 214.5q0 124 -69 207.5t-169 83.5q-90 0 -154.5 -68t-64.5 -183q0 -105 57.5 -173.5t144.5 -76.5q-39 -21 -84 -21
q-88 0 -149.5 75t-61.5 189zM690 371q0 -157 -91 -250.5t-222 -93.5q-142 0 -236 105.5t-94 265.5q0 153 89.5 249t215.5 102q-94 -40 -153 -130t-59 -215q0 -124 69 -207.5t168 -83.5q90 0 155 67.5t65 183.5q0 105 -58 173t-145 77q42 21 85 21q88 0 149.5 -75t61.5 -189z
M359 844v56l218 74v-56zM564 994l-216 -74l-56 19l216 74zM279 863v56l58 -20v-56z" />
    <glyph glyph-name="Ocircumflex" unicode="&#xd4;" horiz-adv-x="857" 
d="M167 404q0 157 91.5 250.5t224.5 93.5q63 0 121.5 -25t104.5 -71t73.5 -117.5t27.5 -157.5q0 -153 -88.5 -248.5t-215.5 -103.5q95 40 153 131.5t58 214.5q0 124 -69 207.5t-169 83.5q-90 0 -154.5 -68t-64.5 -183q0 -105 57.5 -173.5t144.5 -76.5q-39 -21 -84 -21
q-88 0 -149.5 75t-61.5 189zM690 371q0 -157 -91 -250.5t-222 -93.5q-142 0 -236 105.5t-94 265.5q0 153 89.5 249t215.5 102q-94 -40 -153 -130t-59 -215q0 -124 69 -207.5t168 -83.5q90 0 155 67.5t65 183.5q0 105 -58 173t-145 77q42 21 85 21q88 0 149.5 -75t61.5 -189z
M508 920l-80 27l-80 -27l-56 19l136 47l136 -47zM359 843v57l58 20v-57zM439 863v57l58 -20v-57zM279 863v56l58 -20v-56zM519 843v56l58 20v-56z" />
    <glyph glyph-name="Otilde" unicode="&#xd5;" horiz-adv-x="857" 
d="M167 404q0 157 91.5 250.5t224.5 93.5q63 0 121.5 -25t104.5 -71t73.5 -117.5t27.5 -157.5q0 -153 -88.5 -248.5t-215.5 -103.5q95 40 153 131.5t58 214.5q0 124 -69 207.5t-169 83.5q-90 0 -154.5 -68t-64.5 -183q0 -105 57.5 -173.5t144.5 -76.5q-39 -21 -84 -21
q-88 0 -149.5 75t-61.5 189zM690 371q0 -157 -91 -250.5t-222 -93.5q-142 0 -236 105.5t-94 265.5q0 153 89.5 249t215.5 102q-94 -40 -153 -130t-59 -215q0 -124 69 -207.5t168 -83.5q90 0 155 67.5t65 183.5q0 105 -58 173t-145 77q42 21 85 21q88 0 149.5 -75t61.5 -189z
M341 905q19 0 60 -13t61 -13q29 0 50 11v-38q-23 -14 -48 -14q-18 0 -59 14t-63 14q-24 0 -48 -6v39q19 6 47 6zM314 925l14 12q22 21 54 21q18 0 58.5 -13t62.5 -13q15 0 30 3l-14 -13q-21 -20 -55 -20q-18 0 -58.5 13t-62.5 13q-14 0 -29 -3zM534 872v34l28 25v-34z" />
    <glyph glyph-name="Odieresis" unicode="&#xd6;" horiz-adv-x="857" 
d="M167 404q0 157 91.5 250.5t224.5 93.5q63 0 121.5 -25t104.5 -71t73.5 -117.5t27.5 -157.5q0 -153 -88.5 -248.5t-215.5 -103.5q95 40 153 131.5t58 214.5q0 124 -69 207.5t-169 83.5q-90 0 -154.5 -68t-64.5 -183q0 -105 57.5 -173.5t144.5 -76.5q-39 -21 -84 -21
q-88 0 -149.5 75t-61.5 189zM690 371q0 -157 -91 -250.5t-222 -93.5q-142 0 -236 105.5t-94 265.5q0 153 89.5 249t215.5 102q-94 -40 -153 -130t-59 -215q0 -124 69 -207.5t168 -83.5q90 0 155 67.5t65 183.5q0 105 -58 173t-145 77q42 21 85 21q88 0 149.5 -75t61.5 -189z
M359 843v57l58 20v-57zM279 863v56l58 -20v-56zM439 863v56l58 -20v-56zM519 843v56l58 20v-56zM393 935l-45 -15l-57 19l46 16zM462 935l57 20l45 -16l-56 -19z" />
    <glyph glyph-name="multiply" unicode="&#xd7;" horiz-adv-x="701" 
d="M37 120l193 267l-193 267l51 74l194 -269l195 271l51 -74l-440 -609zM652 641l-181 -253l183 -254h-104l-131 182l-209 -289h-103l443 614h102zM106 748h104l124 -171l-52 -72zM367 197l52 72l109 -151l-51 -73zM554 107h100l-55 -80h-100zM654 668h-99l-56 80h100z" />
    <glyph glyph-name="Oslash" unicode="&#xd8;" horiz-adv-x="881" 
d="M180 106l-80 -94l-57 66l81 93q-65 96 -65 227q0 153 89.5 249t215.5 102q-94 -40 -153 -130t-59 -215q0 -89 37 -158l296 344q-35 19 -79 24q42 21 85 21q62 0 112 -39l-363 -421q67 -62 149 -62q90 0 155 67.5t65 183.5q0 11 -1 17l79 91q15 -46 15 -101
q0 -157 -91 -250.5t-222 -93.5q-118 0 -209 79zM280 176l364 421q-69 65 -153 65q-90 0 -154.5 -68t-64.5 -183v-23l-77 -90q-16 51 -16 106q0 157 91.5 250.5t224.5 93.5q123 0 209 -81l82 95l55 -65l-81 -95q62 -92 62 -225q0 -153 -88.5 -248.5t-215.5 -103.5
q95 40 153 131.5t58 214.5q0 84 -35 155l-296 -343q33 -18 77 -22q-39 -21 -85 -21q-60 0 -110 36zM622 749l23 26h112l-59 -69q-40 28 -76 43zM261 24l-21 -24h-112l58 67q33 -26 75 -43z" />
    <glyph glyph-name="Ugrave" unicode="&#xd9;" horiz-adv-x="705" 
d="M638 748v-466q0 -121 -80.5 -188t-205.5 -67q-123 0 -204 67t-81 188v359h93v-335q0 -92 54.5 -142t138.5 -50q85 0 138.5 50t53.5 142v442h93zM518 731v-424q0 -81 -46.5 -123.5t-120.5 -42.5q-71 0 -117.5 42.5t-46.5 122.5v342l93 83v-442q0 -92 73 -92q72 0 72 92
v359zM89 668l90 80h78l-89 -80h-79zM203 918v56l218 -74v-56zM432 920l-216 74l56 19l216 -74zM443 843v56l58 20v-56z" />
    <glyph glyph-name="Uacute" unicode="&#xda;" horiz-adv-x="705" 
d="M638 748v-466q0 -121 -80.5 -188t-205.5 -67q-123 0 -204 67t-81 188v359h93v-335q0 -92 54.5 -142t138.5 -50q85 0 138.5 50t53.5 142v442h93zM518 731v-424q0 -81 -46.5 -123.5t-120.5 -42.5q-71 0 -117.5 42.5t-46.5 122.5v342l93 83v-442q0 -92 73 -92q72 0 72 92
v359zM89 668l90 80h78l-89 -80h-79zM283 844v56l218 74v-56zM488 994l-216 -74l-56 19l216 74zM203 863v56l58 -20v-56z" />
    <glyph glyph-name="Ucircumflex" unicode="&#xdb;" horiz-adv-x="705" 
d="M638 748v-466q0 -121 -80.5 -188t-205.5 -67q-123 0 -204 67t-81 188v359h93v-335q0 -92 54.5 -142t138.5 -50q85 0 138.5 50t53.5 142v442h93zM518 731v-424q0 -81 -46.5 -123.5t-120.5 -42.5q-71 0 -117.5 42.5t-46.5 122.5v342l93 83v-442q0 -92 73 -92q72 0 72 92
v359zM89 668l90 80h78l-89 -80h-79zM432 920l-80 27l-80 -27l-56 19l136 47l136 -47zM283 843v57l58 20v-57zM363 863v57l58 -20v-57zM203 863v56l58 -20v-56zM443 843v56l58 20v-56z" />
    <glyph glyph-name="Udieresis" unicode="&#xdc;" horiz-adv-x="705" 
d="M638 748v-466q0 -121 -80.5 -188t-205.5 -67q-123 0 -204 67t-81 188v359h93v-335q0 -92 54.5 -142t138.5 -50q85 0 138.5 50t53.5 142v442h93zM518 731v-424q0 -81 -46.5 -123.5t-120.5 -42.5q-71 0 -117.5 42.5t-46.5 122.5v342l93 83v-442q0 -92 73 -92q72 0 72 92
v359zM89 668l90 80h78l-89 -80h-79zM283 843v57l58 20v-57zM203 863v56l58 -20v-56zM363 863v56l58 -20v-56zM443 843v56l58 20v-56zM317 935l-45 -15l-57 19l46 16zM386 935l57 20l45 -16l-56 -19z" />
    <glyph glyph-name="Yacute" unicode="&#xdd;" horiz-adv-x="698" 
d="M199 748l217 -325l145 218h103l-199 -299v-215l-93 -83v291l-275 413h102zM252 27v286l-232 347l53 76l272 -408v-301h-93zM416 471l-51 76l122 184l52 -75zM672 668h-107l-55 80h107zM280 844v56l218 74v-56zM485 994l-216 -74l-56 19l216 74zM200 863v56l58 -20v-56z
" />
    <glyph glyph-name="Thorn" unicode="&#xde;" horiz-adv-x="689" 
d="M369 594h-152l90 80h84q115 0 185 -68t70 -186q0 -119 -68 -186.5t-183 -67.5h-227v-139h-93v614h93v-74h199q78 0 118.5 -39.5t40.5 -107.5q0 -70 -39 -108.5t-111 -38.5h-159l90 80h53q35 0 54 19t19 49q0 31 -20 48.5t-52 17.5h-193v-241h210q83 0 129 47t46 127
q0 81 -48 127.5t-136 46.5zM195 290v170h93v-86zM265 748l-89 -80h-79l90 80h78zM288 127l-93 -83v95h93v-12zM288 731v-37l-93 -83v37z" />
    <glyph glyph-name="germandbls" unicode="&#xdf;" horiz-adv-x="1313" 
d="M376 113q51 0 85 29.5t34 77.5q0 75 -91 135l-127 83q-42 28 -63.5 54.5t-21.5 62.5q0 37 26 58.5t66 21.5q7 0 10 -1q-9 -18 -9 -44q0 -59 69 -104l126 -84q108 -73 108 -183q0 -86 -59.5 -139t-155.5 -53q-85 0 -142.5 39t-78.5 99l75 67q14 -56 52.5 -87.5t96.5 -31.5
zM375 185q0 59 -66 102l-130 87q-107 70 -107 182q0 89 64.5 140.5t150.5 51.5q85 0 142.5 -39t78.5 -99l-75 -66q-14 56 -52.5 87t-96.5 31q-51 0 -85 -29.5t-34 -77.5q0 -73 90 -134l125 -82q44 -29 66 -56t22 -63q0 -37 -26 -58.5t-66 -21.5h-11q10 20 10 45zM626 619
h-92q-37 90 -125 131q67 -1 129.5 -36.5t87.5 -94.5zM34 156h92q36 -92 125 -131q-68 1 -130 36t-87 95zM52 183l68 61h78l-68 -61h-78zM608 592l-68 -61h-78l68 61h78zM918 113q54 0 81 25t27 55q0 51 -72 99l-81 54q-142 94 -142 218q0 89 60.5 136.5t148.5 49.5
q-53 -24 -84.5 -67.5t-31.5 -100.5q0 -103 95 -167l101 -67q102 -69 102 -158q0 -73 -60.5 -118t-147.5 -45q-81 0 -141 39.5t-82 102.5l76 69q12 -58 53 -91.5t98 -33.5zM1055 662q-54 0 -81 -25.5t-27 -57.5q0 -51 73 -99l101 -67q57 -38 89 -84t32 -111
q0 -82 -62.5 -136.5t-146.5 -56.5q53 24 84.5 67t31.5 98q0 105 -105 174l-101 67q-92 62 -92 151q0 75 60 120.5t148 45.5q81 0 140.5 -39.5t81.5 -103.5l-76 -68q-12 58 -52 91.5t-98 33.5zM1055 635q44 0 78.5 -27.5t45.5 -76.5h-98q-18 64 -72 96q18 8 46 8zM918 140
q-43 0 -78 27.5t-46 76.5h97q20 -64 72 -97q-19 -7 -45 -7z" />
    <glyph glyph-name="agrave" unicode="&#xe0;" 
d="M403 321h239l-247 427h102l356 -614h-102l-63 107h-332zM493 348l-121 207l-299 -515l-56 80l354 611l222 -383h-100zM308 214h345l-56 -80h-335l-62 -107h-102l274 472l50 -87zM852 107l-55 -80h-106l55 80h106zM723 123l-54 -79l-46 79l55 79zM370 953v56l218 -75v-56z
M303 914l56 19l216 -74l-56 -19zM290 933v56l58 20v-56z" />
    <glyph glyph-name="aacute" unicode="&#xe1;" 
d="M403 321h239l-247 427h102l356 -614h-102l-63 107h-332zM493 348l-121 207l-299 -515l-56 80l354 611l222 -383h-100zM308 214h345l-56 -80h-335l-62 -107h-102l274 472l50 -87zM852 107l-55 -80h-106l55 80h106zM723 123l-54 -79l-46 79l55 79zM290 878v56l218 75v-56z
M303 859l216 74l56 -19l-216 -74zM530 953v56l58 -20v-56z" />
    <glyph glyph-name="acircumflex" unicode="&#xe2;" 
d="M403 321h239l-247 427h102l356 -614h-102l-63 107h-332zM493 348l-121 207l-299 -515l-56 80l354 611l222 -383h-100zM308 214h345l-56 -80h-335l-62 -107h-102l274 472l50 -87zM852 107l-55 -80h-106l55 80h106zM723 123l-54 -79l-46 79l55 79zM290 935l149 51l149 -51
v-54l-149 51l-149 -51v54zM439 867l-80 -27l-61 20l141 49l140 -49l-60 -20z" />
    <glyph glyph-name="atilde" unicode="&#xe3;" 
d="M403 321h239l-247 427h102l356 -614h-102l-63 107h-332zM493 348l-121 207l-299 -515l-56 80l354 611l222 -383h-100zM308 214h345l-56 -80h-335l-62 -107h-102l274 472l50 -87zM852 107l-55 -80h-106l55 80h106zM723 123l-54 -79l-46 79l55 79zM473 918q-20 0 -61 -13
t-60 -13q-25 0 -47 5v40q19 -6 48 -6q22 0 63 14t59 14q25 0 48 -15v-37q-23 11 -50 11zM514 865q-22 0 -62.5 -13t-58.5 -13q-32 0 -54 21l-14 12q15 -3 29 -3q22 0 62.5 13t58.5 13q34 0 55 -20l14 -14q-13 4 -30 4zM545 891v34l28 -25v-35z" />
    <glyph glyph-name="adieresis" unicode="&#xe4;" 
d="M403 321h239l-247 427h102l356 -614h-102l-63 107h-332zM493 348l-121 207l-299 -515l-56 80l354 611l222 -383h-100zM308 214h345l-56 -80h-335l-62 -107h-102l274 472l50 -87zM852 107l-55 -80h-106l55 80h106zM723 123l-54 -79l-46 79l55 79zM370 894v56l58 -20v-56z
M290 874v56l58 20v-56zM450 874v56l58 20v-56zM530 894v56l58 -20v-56zM473 858l46 16l56 -19l-45 -16zM404 858l-56 -19l-46 16l57 19z" />
    <glyph glyph-name="aring" unicode="&#xe5;" 
d="M308 214h345l-56 -80h-335l-62 -107h-102l274 472l50 -87zM515 810q0 26 -17.5 43t-42.5 17t-42.5 -17t-17.5 -43t17.5 -43t42.5 -17q24 0 42 18t18 42zM852 107l-55 -80h-106l55 80h106zM723 123l-54 -79l-46 79l55 79zM642 321l-223 386q-36 13 -54.5 42t-18.5 61
q0 46 31.5 77.5t77.5 31.5t77.5 -31.5t31.5 -77.5q0 -60 -50 -92l339 -584h-102l-63 107h-332l47 80h239zM17 120l337 582q-37 9 -59.5 39t-22.5 69q0 47 31 79.5t78 32.5h4q-62 -40 -62 -112q0 -38 19 -69t51 -48l200 -345h-100l-121 207l-299 -515z" />
    <glyph glyph-name="ae" unicode="&#xe6;" horiz-adv-x="1157" 
d="M744 561v-187h338v-80h-338v-187h338v-80h-431v147h-364l-109 -147h-108l434 591v-149l-158 -215h305v387h431v-80h-338zM531 380v322l-486 -662l-59 70l468 638h517l88 -80h-435v-372zM1059 401h-288v80h200zM771 214h199l89 -80h-288v80zM512 360l88 -79h-200l58 79h54
zM624 43l-93 84v20h93v-104z" />
    <glyph glyph-name="ccedilla" unicode="&#xe7;" horiz-adv-x="835" 
d="M468 27v-27h15q45 0 77 -33t32 -86t-35 -85.5t-90 -32.5q-40 0 -71.5 17.5t-47.5 44.5h45q28 -30 72 -30q39 0 65.5 24t26.5 64t-26.5 64t-69.5 24h-49v64q-103 20 -174 110.5t-71 225.5q0 116 62.5 190t148.5 74q42 0 79 -22q-86 -11 -141.5 -78t-55.5 -171
q0 -114 67.5 -182.5t151.5 -68.5q85 0 147 53t83 149l77 -69q-38 -104 -120 -161.5t-183 -57.5h-15zM47 378q0 156 93 263t237 107q91 0 171 -59.5t116 -156.5l-76 -69q-20 91 -80 145t-131 54q-99 0 -168 -83t-69 -208q0 -140 71.5 -234.5t179.5 -124.5v-48l-35 -30v73
q-55 4 -108.5 30t-99 71t-73.5 115.5t-28 154.5zM479 140q-42 0 -81 21q75 8 124 55t64 105h98q-18 -85 -73.5 -133t-131.5 -48zM495 749q92 -4 170 -58t116 -149h-93q-28 75 -79 127.5t-114 79.5zM465 -185q-31 0 -55 22l20 18q12 -13 34 -13q15 0 26.5 10t11.5 29
q0 41 -52 41h-76l34 29h53q35 0 55.5 -19t20.5 -49q0 -32 -20.5 -50t-51.5 -18zM765 515l-68 -61h-78l68 61h78zM389 -155h-35l29 26h35z" />
    <glyph glyph-name="egrave" unicode="&#xe8;" horiz-adv-x="721" 
d="M195 27v597l93 -84v-166h358v-80h-358v-187h358v-80h-451zM526 668h-358v-624l-93 83v621h451v-80zM307 561l-89 80h316l89 -80h-316zM315 214h219l89 -80h-308v80zM315 481h220l88 -80h-308v80zM646 648v-70l-93 83v70zM286 953v56l218 -75v-56zM219 914l56 19l216 -74
l-56 -19zM206 933v56l58 20v-56z" />
    <glyph glyph-name="eacute" unicode="&#xe9;" horiz-adv-x="721" 
d="M195 27v597l93 -84v-166h358v-80h-358v-187h358v-80h-451zM526 668h-358v-624l-93 83v621h451v-80zM307 561l-89 80h316l89 -80h-316zM315 214h219l89 -80h-308v80zM315 481h220l88 -80h-308v80zM646 648v-70l-93 83v70zM206 878v56l218 75v-56zM219 859l216 74l56 -19
l-216 -74zM446 953v56l58 -20v-56z" />
    <glyph glyph-name="ecircumflex" unicode="&#xea;" horiz-adv-x="721" 
d="M195 27v597l93 -84v-166h358v-80h-358v-187h358v-80h-451zM526 668h-358v-624l-93 83v621h451v-80zM307 561l-89 80h316l89 -80h-316zM315 214h219l89 -80h-308v80zM315 481h220l88 -80h-308v80zM646 648v-70l-93 83v70zM206 935l149 51l149 -51v-54l-149 51l-149 -51v54
zM355 867l-80 -27l-61 20l141 49l140 -49l-60 -20z" />
    <glyph glyph-name="edieresis" unicode="&#xeb;" horiz-adv-x="721" 
d="M195 27v597l93 -84v-166h358v-80h-358v-187h358v-80h-451zM526 668h-358v-624l-93 83v621h451v-80zM307 561l-89 80h316l89 -80h-316zM315 214h219l89 -80h-308v80zM315 481h220l88 -80h-308v80zM646 648v-70l-93 83v70zM286 894v56l58 -20v-56zM206 874v56l58 20v-56z
M366 874v56l58 20v-56zM446 894v56l58 -20v-56zM389 858l46 16l56 -19l-45 -16zM320 858l-56 -19l-46 16l57 19z" />
    <glyph glyph-name="igrave" unicode="&#xec;" horiz-adv-x="539" 
d="M376 668h-120v-517l-93 82v435h-120v80h333v-80zM163 107h120v516l93 -83v-433h120v-80h-333v80zM403 731l93 -83v-70l-93 83v70zM136 44l-93 83v70l93 -83v-70zM474 561h-80l-90 80h81zM234 134h-79l-89 80h79zM136 641v-63l-69 63h69zM472 134h-69v63zM248 953v56
l218 -75v-56zM181 914l56 19l216 -74l-56 -19zM168 933v56l58 20v-56z" />
    <glyph glyph-name="iacute" unicode="&#xed;" horiz-adv-x="539" 
d="M376 668h-120v-517l-93 82v435h-120v80h333v-80zM163 107h120v516l93 -83v-433h120v-80h-333v80zM403 731l93 -83v-70l-93 83v70zM136 44l-93 83v70l93 -83v-70zM474 561h-80l-90 80h81zM234 134h-79l-89 80h79zM136 641v-63l-69 63h69zM472 134h-69v63zM168 878v56
l218 75v-56zM181 859l216 74l56 -19l-216 -74zM408 953v56l58 -20v-56z" />
    <glyph glyph-name="icircumflex" unicode="&#xee;" horiz-adv-x="539" 
d="M376 668h-120v-517l-93 82v435h-120v80h333v-80zM163 107h120v516l93 -83v-433h120v-80h-333v80zM403 731l93 -83v-70l-93 83v70zM136 44l-93 83v70l93 -83v-70zM474 561h-80l-90 80h81zM234 134h-79l-89 80h79zM136 641v-63l-69 63h69zM472 134h-69v63zM168 935l149 51
l149 -51v-54l-149 51l-149 -51v54zM317 867l-80 -27l-61 20l141 49l140 -49l-60 -20z" />
    <glyph glyph-name="idieresis" unicode="&#xef;" horiz-adv-x="539" 
d="M376 668h-120v-517l-93 82v435h-120v80h333v-80zM163 107h120v516l93 -83v-433h120v-80h-333v80zM403 731l93 -83v-70l-93 83v70zM136 44l-93 83v70l93 -83v-70zM474 561h-80l-90 80h81zM234 134h-79l-89 80h79zM136 641v-63l-69 63h69zM472 134h-69v63zM248 894v56
l58 -20v-56zM168 874v56l58 20v-56zM328 874v56l58 20v-56zM408 894v56l58 -20v-56zM351 858l46 16l56 -19l-45 -16zM282 858l-56 -19l-46 16l57 19z" />
    <glyph glyph-name="eth" unicode="&#xf0;" horiz-adv-x="875" 
d="M240 668v-187h120v-80h-120v-187h191q86 0 135 46.5t49 127.5q0 79 -49 126t-135 47h-52l-89 80h141q129 0 203 -69.5t74 -183.5t-74.5 -184t-202.5 -70h-284v267h-120v80h120v267h289q187 0 289.5 -97t102.5 -264q0 -163 -103 -261.5t-268 -98.5h-198l-90 80h262
q139 0 221.5 77.5t82.5 203.5q0 125 -82 202.5t-222 77.5h-191zM360 274v-33h-93v116zM267 624l93 -84v-32h-93v116zM387 464l93 -83v-70l-93 83v70zM289 374h79l89 -80h-78zM50 374h70v-63z" />
    <glyph glyph-name="ntilde" unicode="&#xf1;" horiz-adv-x="746" 
d="M578 272v476h93v-638h-95l-419 638h109zM168 512v-384l-93 -84v650l52 47l420 -640l-69 -61zM458 508v140l93 84v-365zM288 134h-93v283l93 -142v-141zM187 107h79l-90 -80h-78zM568 83h83l-62 -56h-83zM407 918q-19 0 -60 -13t-61 -13q-25 0 -47 5v40q19 -6 48 -6
q22 0 63 14t59 14q25 0 48 -15v-37q-23 11 -50 11zM448 865q-22 0 -62.5 -13t-58.5 -13q-31 0 -54 21l-14 12q15 -3 29 -3q22 0 62.5 13t58.5 13q34 0 55 -20l14 -14q-13 4 -30 4zM479 891v34l28 -25v-35z" />
    <glyph glyph-name="ograve" unicode="&#xf2;" horiz-adv-x="857" 
d="M717 404q0 123 -58 214.5t-153 130.5q127 -7 215.5 -102.5t88.5 -248.5q0 -86 -27.5 -157.5t-73.5 -117.5t-104.5 -71t-121.5 -25q-133 0 -224.5 93.5t-91.5 250.5q0 114 61.5 189t149.5 75q42 0 84 -21q-87 -9 -144.5 -77t-57.5 -173q0 -115 64.5 -183t154.5 -68
q100 0 169 83.5t69 207.5zM140 371q0 -125 59 -216t153 -130q-126 7 -215.5 103t-89.5 249q0 160 94 265.5t236 105.5q131 0 222 -93.5t91 -250.5q0 -114 -61.5 -189t-149.5 -75q-46 0 -85 21q87 8 145 76.5t58 173.5q0 116 -65 183.5t-155 67.5q-99 0 -168 -83.5
t-69 -207.5zM359 953v56l218 -75v-56zM292 914l56 19l216 -74l-56 -19zM279 933v56l58 20v-56z" />
    <glyph glyph-name="oacute" unicode="&#xf3;" horiz-adv-x="857" 
d="M717 404q0 123 -58 214.5t-153 130.5q127 -7 215.5 -102.5t88.5 -248.5q0 -86 -27.5 -157.5t-73.5 -117.5t-104.5 -71t-121.5 -25q-133 0 -224.5 93.5t-91.5 250.5q0 114 61.5 189t149.5 75q42 0 84 -21q-87 -9 -144.5 -77t-57.5 -173q0 -115 64.5 -183t154.5 -68
q100 0 169 83.5t69 207.5zM140 371q0 -125 59 -216t153 -130q-126 7 -215.5 103t-89.5 249q0 160 94 265.5t236 105.5q131 0 222 -93.5t91 -250.5q0 -114 -61.5 -189t-149.5 -75q-46 0 -85 21q87 8 145 76.5t58 173.5q0 116 -65 183.5t-155 67.5q-99 0 -168 -83.5
t-69 -207.5zM279 878v56l218 75v-56zM292 859l216 74l56 -19l-216 -74zM519 953v56l58 -20v-56z" />
    <glyph glyph-name="ocircumflex" unicode="&#xf4;" horiz-adv-x="857" 
d="M717 404q0 123 -58 214.5t-153 130.5q127 -7 215.5 -102.5t88.5 -248.5q0 -86 -27.5 -157.5t-73.5 -117.5t-104.5 -71t-121.5 -25q-133 0 -224.5 93.5t-91.5 250.5q0 114 61.5 189t149.5 75q42 0 84 -21q-87 -9 -144.5 -77t-57.5 -173q0 -115 64.5 -183t154.5 -68
q100 0 169 83.5t69 207.5zM140 371q0 -125 59 -216t153 -130q-126 7 -215.5 103t-89.5 249q0 160 94 265.5t236 105.5q131 0 222 -93.5t91 -250.5q0 -114 -61.5 -189t-149.5 -75q-46 0 -85 21q87 8 145 76.5t58 173.5q0 116 -65 183.5t-155 67.5q-99 0 -168 -83.5
t-69 -207.5zM279 935l149 51l149 -51v-54l-149 51l-149 -51v54zM428 867l-80 -27l-61 20l141 49l140 -49l-60 -20z" />
    <glyph glyph-name="otilde" unicode="&#xf5;" horiz-adv-x="857" 
d="M717 404q0 123 -58 214.5t-153 130.5q127 -7 215.5 -102.5t88.5 -248.5q0 -86 -27.5 -157.5t-73.5 -117.5t-104.5 -71t-121.5 -25q-133 0 -224.5 93.5t-91.5 250.5q0 114 61.5 189t149.5 75q42 0 84 -21q-87 -9 -144.5 -77t-57.5 -173q0 -115 64.5 -183t154.5 -68
q100 0 169 83.5t69 207.5zM140 371q0 -125 59 -216t153 -130q-126 7 -215.5 103t-89.5 249q0 160 94 265.5t236 105.5q131 0 222 -93.5t91 -250.5q0 -114 -61.5 -189t-149.5 -75q-46 0 -85 21q87 8 145 76.5t58 173.5q0 116 -65 183.5t-155 67.5q-99 0 -168 -83.5
t-69 -207.5zM462 918q-20 0 -61 -13t-60 -13q-25 0 -47 5v40q19 -6 48 -6q22 0 63 14t59 14q26 0 48 -15v-37q-23 11 -50 11zM503 865q-22 0 -62.5 -13t-58.5 -13q-32 0 -54 21l-14 12q15 -3 29 -3q22 0 62.5 13t58.5 13q34 0 55 -20l14 -14q-13 4 -30 4zM534 891v34l28 -25
v-35z" />
    <glyph glyph-name="odieresis" unicode="&#xf6;" horiz-adv-x="857" 
d="M717 404q0 123 -58 214.5t-153 130.5q127 -7 215.5 -102.5t88.5 -248.5q0 -86 -27.5 -157.5t-73.5 -117.5t-104.5 -71t-121.5 -25q-133 0 -224.5 93.5t-91.5 250.5q0 114 61.5 189t149.5 75q42 0 84 -21q-87 -9 -144.5 -77t-57.5 -173q0 -115 64.5 -183t154.5 -68
q100 0 169 83.5t69 207.5zM140 371q0 -125 59 -216t153 -130q-126 7 -215.5 103t-89.5 249q0 160 94 265.5t236 105.5q131 0 222 -93.5t91 -250.5q0 -114 -61.5 -189t-149.5 -75q-46 0 -85 21q87 8 145 76.5t58 173.5q0 116 -65 183.5t-155 67.5q-99 0 -168 -83.5
t-69 -207.5zM359 894v56l58 -20v-56zM279 874v56l58 20v-56zM439 874v56l58 20v-56zM519 894v56l58 -20v-56zM462 858l46 16l56 -19l-45 -16zM393 858l-56 -19l-46 16l57 19z" />
    <glyph glyph-name="divide" unicode="&#xf7;" horiz-adv-x="827" 
d="M400 109v-84h-93v84h93zM425 41v75l95 84v-74zM406 134h-77l96 82h73zM172 480h580l-89 -80h-491v80zM164 373h491v-80h-580zM52 380l93 83v-70l-93 -83v70zM775 393l-93 -83v70l93 83v-70zM400 644v-84h-93v84h93zM425 576v75l95 84v-74zM406 669h-77l96 82h73z" />
    <glyph glyph-name="oslash" unicode="&#xf8;" horiz-adv-x="881" 
d="M571 690l64 74l56 -66l-59 -68q70 -91 70 -226q0 -114 -61.5 -189t-149.5 -75q-42 0 -77 16l5 7q83 13 136.5 80t53.5 168q0 85 -38 147l-254 -294q-18 44 -18 101v9l214 248q-53 40 -124 40q-99 0 -168 -83.5t-69 -207.5q0 -130 64 -224l-48 -55h-113l64 73
q-60 91 -60 212q0 160 94 265.5t236 105.5q103 0 182 -58zM193 76l58 67q-72 91 -72 228q0 114 61.5 189t149.5 75q41 0 79 -19l-3 -4q-84 -12 -139 -79t-55 -169q0 -87 40 -151l253 294q17 -45 17 -97q0 -2 -0.5 -6.5t-0.5 -7.5l-211 -245q55 -38 121 -38q100 0 169 83.5
t69 207.5q0 125 -62 220l51 59h111l-65 -76q58 -90 58 -209q0 -86 -27.5 -157.5t-73.5 -117.5t-104.5 -71t-121.5 -25q-102 0 -182 57l-63 -74zM110 0l-56 65h111l55 -65h-110zM720 710l-56 65h111l55 -65h-110zM579 744l-16 -18q-27 16 -56 28q33 -1 72 -10zM374 21
q-33 0 -70 8l16 18q28 -16 54 -26z" />
    <glyph glyph-name="ugrave" unicode="&#xf9;" horiz-adv-x="705" 
d="M638 648v-356q0 -122 -81.5 -193.5t-203.5 -71.5q-123 0 -204.5 71.5t-81.5 193.5v439l93 -83v-373q0 -92 53.5 -142t138.5 -50q84 0 138.5 50t54.5 142v456zM425 280v468h93v-473q0 -80 -46.5 -122.5t-117.5 -42.5q-74 0 -120.5 42.5t-46.5 123.5v365h93v-361
q0 -44 20 -64t52 -20q73 0 73 84zM168 748l90 -80h-79l-89 80h78zM283 953v56l218 -75v-56zM216 914l56 19l216 -74l-56 -19zM203 933v56l58 20v-56z" />
    <glyph glyph-name="uacute" unicode="&#xfa;" horiz-adv-x="705" 
d="M638 648v-356q0 -122 -81.5 -193.5t-203.5 -71.5q-123 0 -204.5 71.5t-81.5 193.5v439l93 -83v-373q0 -92 53.5 -142t138.5 -50q84 0 138.5 50t54.5 142v456zM425 280v468h93v-473q0 -80 -46.5 -122.5t-117.5 -42.5q-74 0 -120.5 42.5t-46.5 123.5v365h93v-361
q0 -44 20 -64t52 -20q73 0 73 84zM168 748l90 -80h-79l-89 80h78zM203 878v56l218 75v-56zM216 859l216 74l56 -19l-216 -74zM443 953v56l58 -20v-56z" />
    <glyph glyph-name="ucircumflex" unicode="&#xfb;" horiz-adv-x="705" 
d="M638 648v-356q0 -122 -81.5 -193.5t-203.5 -71.5q-123 0 -204.5 71.5t-81.5 193.5v439l93 -83v-373q0 -92 53.5 -142t138.5 -50q84 0 138.5 50t54.5 142v456zM425 280v468h93v-473q0 -80 -46.5 -122.5t-117.5 -42.5q-74 0 -120.5 42.5t-46.5 123.5v365h93v-361
q0 -44 20 -64t52 -20q73 0 73 84zM168 748l90 -80h-79l-89 80h78zM203 935l149 51l149 -51v-54l-149 51l-149 -51v54zM352 867l-80 -27l-61 20l141 49l140 -49l-60 -20z" />
    <glyph glyph-name="udieresis" unicode="&#xfc;" horiz-adv-x="705" 
d="M638 648v-356q0 -122 -81.5 -193.5t-203.5 -71.5q-123 0 -204.5 71.5t-81.5 193.5v439l93 -83v-373q0 -92 53.5 -142t138.5 -50q84 0 138.5 50t54.5 142v456zM425 280v468h93v-473q0 -80 -46.5 -122.5t-117.5 -42.5q-74 0 -120.5 42.5t-46.5 123.5v365h93v-361
q0 -44 20 -64t52 -20q73 0 73 84zM168 748l90 -80h-79l-89 80h78zM283 894v56l58 -20v-56zM203 874v56l58 20v-56zM363 874v56l58 20v-56zM443 894v56l58 -20v-56zM386 858l46 16l56 -19l-45 -16zM317 858l-56 -19l-46 16l57 19z" />
    <glyph glyph-name="yacute" unicode="&#xfd;" horiz-adv-x="698" 
d="M136 641l146 -218l216 325h102l-274 -413v-291l-93 83v215l-200 299h103zM446 313v-286h-93v301l271 408l53 -76zM158 656l53 75l122 -184l-51 -76zM133 668h-107l55 80h107zM200 878v56l218 75v-56zM213 859l216 74l56 -19l-216 -74zM440 953v56l58 -20v-56z" />
    <glyph glyph-name="thorn" unicode="&#xfe;" horiz-adv-x="689" 
d="M75 748h93v-74h223q115 0 185 -68t70 -186q0 -119 -68 -186.5t-183 -67.5h-88l-90 80h161q83 0 129 47t46 127q0 81 -48 127.5t-136 46.5h-201v-241h192q35 0 54 19t19 49q0 31 -20 48.5t-52 17.5h-54l-90 80h150q78 0 118.5 -39.5t40.5 -107.5q0 -70 -39 -108.5
t-111 -38.5h-208v-139h-93v614zM195 380v170l93 -84v-86h-93zM288 44l-93 83v102l93 -84v-101zM176 107l89 -80h-78l-90 80h79zM195 701v32l36 -32h-36z" />
    <glyph glyph-name="ydieresis" unicode="&#xff;" horiz-adv-x="698" 
d="M136 641l146 -218l216 325h102l-274 -413v-291l-93 83v215l-200 299h103zM446 313v-286h-93v301l271 408l53 -76zM158 656l53 75l122 -184l-51 -76zM133 668h-107l55 80h107zM280 894v56l58 -20v-56zM200 874v56l58 20v-56zM360 874v56l58 20v-56zM440 894v56l58 -20v-56
zM383 858l46 16l56 -19l-45 -16zM314 858l-56 -19l-46 16l57 19z" />
    <glyph glyph-name="Amacron" unicode="&#x100;" 
d="M236 321h239l47 -80h-332l-63 -107h-102l356 614h102zM506 555l-121 -207h-100l222 383l354 -611l-56 -80zM225 214h345l-114 198l50 87l274 -472h-102l-62 107h-335zM81 27l-55 80h106l55 -80h-106zM209 44l-54 79l45 79l55 -79zM576 949v-37h-218v37h218zM310 853
l41 37h208l-41 -37h-208zM301 906l35 32v-34l-35 -31v33z" />
    <glyph glyph-name="amacron" unicode="&#x101;" 
d="M403 321h239l-247 427h102l356 -614h-102l-63 107h-332zM493 348l-121 207l-299 -515l-56 80l354 611l222 -383h-100zM308 214h345l-56 -80h-335l-62 -107h-102l274 472l50 -87zM852 107l-55 -80h-106l55 80h106zM723 123l-54 -79l-46 79l55 79zM301 912v37h218v-37h-218
zM358 853l-41 37h208l42 -37h-209zM541 904v34l35 -32v-33z" />
    <glyph glyph-name="Abreve" unicode="&#x102;" 
d="M236 321h239l47 -80h-332l-63 -107h-102l356 614h102zM506 555l-121 -207h-100l222 383l354 -611l-56 -80zM225 214h345l-114 198l50 87l274 -472h-102l-62 107h-335zM81 27l-55 80h106l55 -80h-106zM209 44l-54 79l45 79l55 -79zM439 880q45 0 82 24l58 -20
q-60 -57 -140 -57q-84 0 -143 56l61 21q38 -24 82 -24zM439 901q-35 0 -69 24v51q30 -17 69 -17q38 0 69 17v-51q-34 -24 -69 -24zM290 905v56l58 20v-56zM530 925v56l58 -20v-56z" />
    <glyph glyph-name="abreve" unicode="&#x103;" 
d="M403 321h239l-247 427h102l356 -614h-102l-63 107h-332zM493 348l-121 207l-299 -515l-56 80l354 611l222 -383h-100zM308 214h345l-56 -80h-335l-62 -107h-102l274 472l50 -87zM852 107l-55 -80h-106l55 80h106zM723 123l-54 -79l-46 79l55 79zM439 886q84 0 149 54v-53
q-65 -55 -149 -55q-85 0 -149 53v54q62 -53 149 -53zM439 957q40 0 81 28l59 -21q-60 -57 -140 -57q-84 0 -143 56l62 22q42 -28 81 -28z" />
    <glyph glyph-name="Aogonek" unicode="&#x104;" 
d="M506 555l-121 -207h-100l222 383l354 -611l-56 -80zM236 321h239l47 -80h-332l-63 -107h-102l356 614h102zM678 27l-62 107h-335l-56 80h345l-114 198l50 87l274 -472h-35q-20 0 -34 -12t-14 -33q0 -20 11.5 -30.5t26.5 -10.5q22 0 34 13l20 -18q-24 -22 -55 -22
t-51.5 18t-20.5 50q0 25 16 45zM642 -18q0 -40 26.5 -64t65.5 -24q44 0 72 30h45q-16 -27 -47.5 -44.5t-71.5 -17.5q-55 0 -90 32.5t-35 85.5q0 42 22 75l20 -35q-7 -19 -7 -38zM81 27l-55 80h106l55 -80h-106zM209 44l-54 79l45 79l55 -79zM846 -56h-35l-29 26h35z" />
    <glyph glyph-name="aogonek" unicode="&#x105;" 
d="M403 321h239l-247 427h102l356 -614h-102l-63 107h-332zM493 348l-121 207l-299 -515l-56 80l354 611l222 -383h-100zM308 214h345l-56 -80h-335l-62 -107h-102l274 472l50 -87zM439 383l20 -35h-40zM863 -56h-35l-29 26h35zM824 -76h45q-16 -27 -47.5 -44.5t-71.5 -17.5
q-55 0 -90 34t-35 87q0 45 26 90l-28 50l55 79l48 -82l-13 -19q-53 -77 -53 -119q0 -40 26.5 -64t65.5 -24q44 0 72 30zM680 -18q0 30 40 87l26 38h106l-56 -80h-33q-22 0 -35 -12.5t-13 -32.5t12 -30.5t27 -10.5q21 0 33 13l20 -18q-24 -22 -55 -22t-51.5 18.5t-20.5 49.5z
" />
    <glyph glyph-name="Cacute" unicode="&#x106;" horiz-adv-x="835" 
d="M377 27q-144 0 -237 107t-93 263t92.5 251.5t216.5 101.5q-94 -40 -155 -131t-61 -215q0 -125 69 -208t168 -83q71 0 131 53.5t80 144.5l76 -69q-36 -96 -116 -155.5t-171 -59.5zM479 662q-84 0 -151.5 -68.5t-67.5 -182.5q0 -104 55.5 -171.5t141.5 -78.5
q-37 -21 -79 -21q-86 0 -148.5 74t-62.5 190q0 155 94 249.5t222 94.5q100 0 182.5 -57.5t120.5 -161.5l-77 -69q-21 95 -83 148.5t-147 53.5zM479 635q76 0 131.5 -48t73.5 -133h-98q-15 57 -64 104t-124 55q41 22 81 22zM688 233h93q-38 -95 -116 -149t-170 -59
q63 27 114 79.5t79 128.5zM697 321l68 -61h-78l-68 61h78zM359 844v56l218 74v-56zM564 994l-216 -74l-56 19l216 74zM279 863v56l58 -20v-56z" />
    <glyph glyph-name="cacute" unicode="&#x107;" horiz-adv-x="835" 
d="M47 378q0 156 93 263t237 107q91 0 171 -59.5t116 -156.5l-76 -69q-20 91 -80 145t-131 54q-99 0 -168 -83t-69 -208q0 -126 58 -216t152 -129q-58 4 -111.5 28.5t-96.5 67t-69 109t-26 147.5zM260 364q0 -114 67.5 -182.5t151.5 -68.5q85 0 147 53t83 149l77 -69
q-38 -104 -120 -161.5t-183 -57.5q-133 0 -224.5 93.5t-91.5 250.5q0 116 62.5 190t148.5 74q42 0 79 -22q-86 -11 -141.5 -78t-55.5 -171zM479 140q-42 0 -81 21q75 8 124 55t64 105h98q-18 -85 -73.5 -133t-131.5 -48zM495 749q92 -4 170 -58t116 -149h-93
q-28 75 -79 127.5t-114 79.5zM765 515l-68 -61h-78l68 61h78zM279 878v56l218 75v-56zM292 859l216 74l56 -19l-216 -74zM519 953v56l58 -20v-56z" />
    <glyph glyph-name="Ccircumflex" unicode="&#x108;" horiz-adv-x="835" 
d="M377 27q-144 0 -237 107t-93 263t92.5 251.5t216.5 101.5q-94 -40 -155 -131t-61 -215q0 -125 69 -208t168 -83q71 0 131 53.5t80 144.5l76 -69q-36 -96 -116 -155.5t-171 -59.5zM479 662q-84 0 -151.5 -68.5t-67.5 -182.5q0 -104 55.5 -171.5t141.5 -78.5
q-37 -21 -79 -21q-86 0 -148.5 74t-62.5 190q0 155 94 249.5t222 94.5q100 0 182.5 -57.5t120.5 -161.5l-77 -69q-21 95 -83 148.5t-147 53.5zM479 635q76 0 131.5 -48t73.5 -133h-98q-15 57 -64 104t-124 55q41 22 81 22zM688 233h93q-38 -95 -116 -149t-170 -59
q63 27 114 79.5t79 128.5zM697 321l68 -61h-78l-68 61h78zM508 920l-80 27l-80 -27l-56 19l136 47l136 -47zM359 843v57l58 20v-57zM439 863v57l58 -20v-57zM279 863v56l58 -20v-56zM519 843v56l58 20v-56z" />
    <glyph glyph-name="ccircumflex" unicode="&#x109;" horiz-adv-x="835" 
d="M47 378q0 156 93 263t237 107q91 0 171 -59.5t116 -156.5l-76 -69q-20 91 -80 145t-131 54q-99 0 -168 -83t-69 -208q0 -126 58 -216t152 -129q-58 4 -111.5 28.5t-96.5 67t-69 109t-26 147.5zM260 364q0 -114 67.5 -182.5t151.5 -68.5q85 0 147 53t83 149l77 -69
q-38 -104 -120 -161.5t-183 -57.5q-133 0 -224.5 93.5t-91.5 250.5q0 116 62.5 190t148.5 74q42 0 79 -22q-86 -11 -141.5 -78t-55.5 -171zM479 140q-42 0 -81 21q75 8 124 55t64 105h98q-18 -85 -73.5 -133t-131.5 -48zM495 749q92 -4 170 -58t116 -149h-93
q-28 75 -79 127.5t-114 79.5zM765 515l-68 -61h-78l68 61h78zM279 935l149 51l149 -51v-54l-149 51l-149 -51v54zM428 867l-80 -27l-61 20l141 49l140 -49l-60 -20z" />
    <glyph glyph-name="Cdotaccent" unicode="&#x10a;" horiz-adv-x="835" 
d="M377 27q-144 0 -237 107t-93 263t92.5 251.5t216.5 101.5q-94 -40 -155 -131t-61 -215q0 -125 69 -208t168 -83q71 0 131 53.5t80 144.5l76 -69q-36 -96 -116 -155.5t-171 -59.5zM479 662q-84 0 -151.5 -68.5t-67.5 -182.5q0 -104 55.5 -171.5t141.5 -78.5
q-37 -21 -79 -21q-86 0 -148.5 74t-62.5 190q0 155 94 249.5t222 94.5q100 0 182.5 -57.5t120.5 -161.5l-77 -69q-21 95 -83 148.5t-147 53.5zM479 635q76 0 131.5 -48t73.5 -133h-98q-15 57 -64 104t-124 55q41 22 81 22zM688 233h93q-38 -95 -116 -149t-170 -59
q63 27 114 79.5t79 128.5zM697 321l68 -61h-78l-68 61h78zM359 863v56l58 -20v-56zM439 843v56l58 20v-56zM372 939l56 19l56 -19l-56 -19z" />
    <glyph glyph-name="cdotaccent" unicode="&#x10b;" horiz-adv-x="835" 
d="M47 378q0 156 93 263t237 107q91 0 171 -59.5t116 -156.5l-76 -69q-20 91 -80 145t-131 54q-99 0 -168 -83t-69 -208q0 -126 58 -216t152 -129q-58 4 -111.5 28.5t-96.5 67t-69 109t-26 147.5zM260 364q0 -114 67.5 -182.5t151.5 -68.5q85 0 147 53t83 149l77 -69
q-38 -104 -120 -161.5t-183 -57.5q-133 0 -224.5 93.5t-91.5 250.5q0 116 62.5 190t148.5 74q42 0 79 -22q-86 -11 -141.5 -78t-55.5 -171zM479 140q-42 0 -81 21q75 8 124 55t64 105h98q-18 -85 -73.5 -133t-131.5 -48zM495 749q92 -4 170 -58t116 -149h-93
q-28 75 -79 127.5t-114 79.5zM765 515l-68 -61h-78l68 61h78zM359 878v56l58 20v-56zM439 898v56l58 -20v-56zM372 859l56 19l56 -19l-56 -19z" />
    <glyph glyph-name="Ccaron" unicode="&#x10c;" horiz-adv-x="835" 
d="M377 27q-144 0 -237 107t-93 263t92.5 251.5t216.5 101.5q-94 -40 -155 -131t-61 -215q0 -125 69 -208t168 -83q71 0 131 53.5t80 144.5l76 -69q-36 -96 -116 -155.5t-171 -59.5zM479 662q-84 0 -151.5 -68.5t-67.5 -182.5q0 -104 55.5 -171.5t141.5 -78.5
q-37 -21 -79 -21q-86 0 -148.5 74t-62.5 190q0 155 94 249.5t222 94.5q100 0 182.5 -57.5t120.5 -161.5l-77 -69q-21 95 -83 148.5t-147 53.5zM479 635q76 0 131.5 -48t73.5 -133h-98q-15 57 -64 104t-124 55q41 22 81 22zM688 233h93q-38 -95 -116 -149t-170 -59
q63 27 114 79.5t79 128.5zM697 321l68 -61h-78l-68 61h78zM428 878l80 27l56 -19l-136 -47l-136 47l56 19zM359 925v56l58 -20v-56zM439 905v56l58 20v-56zM279 905v56l58 20v-56zM519 925v56l58 -20v-56z" />
    <glyph glyph-name="ccaron" unicode="&#x10d;" horiz-adv-x="835" 
d="M47 378q0 156 93 263t237 107q91 0 171 -59.5t116 -156.5l-76 -69q-20 91 -80 145t-131 54q-99 0 -168 -83t-69 -208q0 -126 58 -216t152 -129q-58 4 -111.5 28.5t-96.5 67t-69 109t-26 147.5zM260 364q0 -114 67.5 -182.5t151.5 -68.5q85 0 147 53t83 149l77 -69
q-38 -104 -120 -161.5t-183 -57.5q-133 0 -224.5 93.5t-91.5 250.5q0 116 62.5 190t148.5 74q42 0 79 -22q-86 -11 -141.5 -78t-55.5 -171zM479 140q-42 0 -81 21q75 8 124 55t64 105h98q-18 -85 -73.5 -133t-131.5 -48zM495 749q92 -4 170 -58t116 -149h-93
q-28 75 -79 127.5t-114 79.5zM765 515l-68 -61h-78l68 61h78zM428 839l-149 51v54l149 -51l149 51v-54zM348 985l80 -27l80 27l60 -20l-140 -49l-141 49z" />
    <glyph glyph-name="Dcaron" unicode="&#x10e;" horiz-adv-x="803" 
d="M187 748h198q165 0 268 -98.5t103 -261.5q0 -167 -102.5 -264t-289.5 -97h-289v614h284q128 0 202.5 -70t74.5 -184t-74 -183.5t-203 -69.5h-141l89 80h52q86 0 135 47t49 126q0 81 -49 127.5t-135 46.5h-191v-454h191q140 0 222 77.5t82 202.5q0 126 -82.5 203.5
t-221.5 77.5h-262zM195 151v383h93v-299zM393 878l80 27l56 -19l-136 -47l-136 47l56 19zM324 925v56l58 -20v-56zM404 905v56l58 20v-56zM244 905v56l58 20v-56zM484 925v56l58 -20v-56z" />
    <glyph glyph-name="dcaron" unicode="&#x10f;" horiz-adv-x="803" 
d="M385 27h-198l-90 80h262q139 0 221.5 77.5t82.5 203.5q0 125 -82 202.5t-222 77.5h-191v-454h191q86 0 135 46.5t49 127.5q0 79 -49 126t-135 47h-52l-89 80h141q129 0 203 -69.5t74 -183.5t-74.5 -184t-202.5 -70h-284v614h289q187 0 289.5 -97t102.5 -264
q0 -163 -103 -261.5t-268 -98.5zM195 241v383l93 -84v-299h-93zM393 839l-149 51v54l149 -51l149 51v-54zM313 985l80 -27l80 27l60 -20l-140 -49l-141 49z" />
    <glyph glyph-name="Dcroat" unicode="&#x110;" horiz-adv-x="875" 
d="M240 294v-187h191q140 0 222 77.5t82 202.5q0 126 -82.5 203.5t-221.5 77.5h-262l90 80h198q165 0 268 -98.5t103 -261.5q0 -167 -102.5 -264t-289.5 -97h-289v267h-120v80h120v267h284q128 0 202.5 -70t74.5 -184t-74 -183.5t-203 -69.5h-141l89 80h52q86 0 135 47
t49 126q0 81 -49 127.5t-135 46.5h-191v-187h120v-80h-120zM360 534v-33l-93 -83v116h93zM360 235l-93 -84v116h93v-32zM480 394l-93 -83v70l93 83v-70zM368 401h-79l90 80h78zM120 401h-70l70 63v-63z" />
    <glyph glyph-name="dcroat" unicode="&#x111;" horiz-adv-x="875" 
d="M240 668v-187h120v-80h-120v-187h191q86 0 135 46.5t49 127.5q0 79 -49 126t-135 47h-52l-89 80h141q129 0 203 -69.5t74 -183.5t-74.5 -184t-202.5 -70h-284v267h-120v80h120v267h289q187 0 289.5 -97t102.5 -264q0 -163 -103 -261.5t-268 -98.5h-198l-90 80h262
q139 0 221.5 77.5t82.5 203.5q0 125 -82 202.5t-222 77.5h-191zM360 274v-33h-93v116zM267 624l93 -84v-32h-93v116zM387 464l93 -83v-70l-93 83v70zM289 374h79l89 -80h-78zM50 374h70v-63z" />
    <glyph glyph-name="Emacron" unicode="&#x112;" horiz-adv-x="721" 
d="M168 731v-357h358v-80h-358v-187h358v-80h-451v621zM288 668v-167l-93 -83v330h451v-80h-358zM217 401l90 80h316l-88 -80h-318zM218 134l89 80h317l-89 -80h-317zM315 561v80h308l-89 -80h-219zM195 151v116h93v-32zM646 395l-93 -85v71l93 83v-69zM646 127l-93 -83v70
l93 83v-70zM493 949v-37h-218v37h218zM227 853l41 37h208l-41 -37h-208zM218 906l35 32v-34l-35 -31v33z" />
    <glyph glyph-name="emacron" unicode="&#x113;" horiz-adv-x="721" 
d="M195 27v597l93 -84v-166h358v-80h-358v-187h358v-80h-451zM526 668h-358v-624l-93 83v621h451v-80zM307 561l-89 80h316l89 -80h-316zM315 214h219l89 -80h-308v80zM315 481h220l88 -80h-308v80zM646 648v-70l-93 83v70zM218 912v37h218v-37h-218zM275 853l-41 37h208
l42 -37h-209zM458 904v34l35 -32v-33z" />
    <glyph glyph-name="Ebreve" unicode="&#x114;" horiz-adv-x="721" 
d="M168 731v-357h358v-80h-358v-187h358v-80h-451v621zM288 668v-167l-93 -83v330h451v-80h-358zM217 401l90 80h316l-88 -80h-318zM218 134l89 80h317l-89 -80h-317zM315 561v80h308l-89 -80h-219zM195 151v116h93v-32zM646 395l-93 -85v71l93 83v-69zM646 127l-93 -83v70
l93 83v-70zM355 880q45 0 82 24l58 -20q-60 -57 -140 -57q-84 0 -143 56l61 21q38 -24 82 -24zM355 901q-35 0 -69 24v51q30 -17 69 -17q38 0 69 17v-51q-34 -24 -69 -24zM206 905v56l58 20v-56zM446 925v56l58 -20v-56z" />
    <glyph glyph-name="ebreve" unicode="&#x115;" horiz-adv-x="721" 
d="M195 27v597l93 -84v-166h358v-80h-358v-187h358v-80h-451zM526 668h-358v-624l-93 83v621h451v-80zM307 561l-89 80h316l89 -80h-316zM315 214h219l89 -80h-308v80zM315 481h220l88 -80h-308v80zM646 648v-70l-93 83v70zM355 886q84 0 149 54v-53q-65 -55 -149 -55
q-85 0 -149 53v54q62 -53 149 -53zM355 957q40 0 81 28l59 -21q-60 -57 -140 -57q-84 0 -143 56l62 22q42 -28 81 -28z" />
    <glyph glyph-name="Edotaccent" unicode="&#x116;" horiz-adv-x="721" 
d="M168 731v-357h358v-80h-358v-187h358v-80h-451v621zM288 668v-167l-93 -83v330h451v-80h-358zM217 401l90 80h316l-88 -80h-318zM218 134l89 80h317l-89 -80h-317zM315 561v80h308l-89 -80h-219zM195 151v116h93v-32zM646 395l-93 -85v71l93 83v-69zM646 127l-93 -83v70
l93 83v-70zM286 863v56l58 -20v-56zM366 843v56l58 20v-56zM299 939l56 19l56 -19l-56 -19z" />
    <glyph glyph-name="edotaccent" unicode="&#x117;" horiz-adv-x="721" 
d="M195 27v597l93 -84v-166h358v-80h-358v-187h358v-80h-451zM526 668h-358v-624l-93 83v621h451v-80zM307 561l-89 80h316l89 -80h-316zM315 214h219l89 -80h-308v80zM315 481h220l88 -80h-308v80zM646 648v-70l-93 83v70zM286 878v56l58 20v-56zM366 898v56l58 -20v-56z
M299 859l56 19l56 -19l-56 -19z" />
    <glyph glyph-name="Eogonek" unicode="&#x118;" horiz-adv-x="721" 
d="M401 27h-326v621l93 83v-357h358v-80h-358v-187h358v-80h-51q-25 0 -40.5 -12.5t-15.5 -34.5q0 -19 11.5 -29t26.5 -10q34 0 42 29h30q-5 -22 -24.5 -39t-48.5 -17q-31 0 -51.5 18t-20.5 50q0 28 17 45zM288 668v-167l-93 -83v330h451v-80h-358zM217 401l90 80h316
l-88 -80h-318zM218 134l89 80h317l-89 -80h-317zM315 561v80h308l-89 -80h-219zM364 -18q0 -40 26.5 -64t65.5 -24q36 0 60.5 19t32.5 47l28 -26q-14 -32 -46.5 -52t-76.5 -20q-55 0 -90 32.5t-35 85.5q0 14 1 20h35q-1 -5 -1 -18zM195 151v116h93v-32zM646 395l-93 -85v71
l93 83v-69zM646 127l-93 -83v70l93 83v-70z" />
    <glyph glyph-name="eogonek" unicode="&#x119;" horiz-adv-x="721" 
d="M521 27h-326v597l93 -84v-166h358v-80h-358v-187h358v-80h-46q-28 0 -44.5 -12.5t-16.5 -34.5q0 -19 11.5 -29t26.5 -10q22 0 34 13l20 -18q-24 -22 -55 -22t-51.5 18t-20.5 50q0 28 17 45zM75 748h451v-80h-358v-624l-93 83v621zM307 561l-89 80h316l89 -80h-316z
M315 481h220l88 -80h-308v80zM315 214h219l89 -80h-308v80zM484 -18q0 -40 26.5 -64t65.5 -24q44 0 72 30h45q-16 -27 -47.5 -44.5t-71.5 -17.5q-55 0 -90 32.5t-35 85.5q0 14 1 20h35q-1 -6 -1 -18zM646 648v-70l-93 83v70zM687 -56h-35l-29 26h35z" />
    <glyph glyph-name="Ecaron" unicode="&#x11a;" horiz-adv-x="721" 
d="M168 731v-357h358v-80h-358v-187h358v-80h-451v621zM288 668v-167l-93 -83v330h451v-80h-358zM217 401l90 80h316l-88 -80h-318zM218 134l89 80h317l-89 -80h-317zM315 561v80h308l-89 -80h-219zM195 151v116h93v-32zM646 395l-93 -85v71l93 83v-69zM646 127l-93 -83v70
l93 83v-70zM355 878l80 27l56 -19l-136 -47l-136 47l56 19zM286 925v56l58 -20v-56zM366 905v56l58 20v-56zM206 905v56l58 20v-56zM446 925v56l58 -20v-56z" />
    <glyph glyph-name="ecaron" unicode="&#x11b;" horiz-adv-x="721" 
d="M195 27v597l93 -84v-166h358v-80h-358v-187h358v-80h-451zM526 668h-358v-624l-93 83v621h451v-80zM307 561l-89 80h316l89 -80h-316zM315 214h219l89 -80h-308v80zM315 481h220l88 -80h-308v80zM646 648v-70l-93 83v70zM355 839l-149 51v54l149 -51l149 51v-54zM275 985
l80 -27l80 27l60 -20l-140 -49l-141 49z" />
    <glyph glyph-name="Gcircumflex" unicode="&#x11c;" horiz-adv-x="838" 
d="M647 129l-25 -22q-88 -80 -214 -80q-159 0 -260 107t-101 263t92.5 251.5t216.5 101.5q-94 -40 -155 -131t-61 -215q0 -125 75.5 -208t186.5 -83q94 0 152 55v131h93v-170zM479 662q-83 0 -151 -68.5t-68 -175.5q0 -109 62.5 -166.5t157.5 -57.5q31 0 47 4v-19
q-51 -39 -125 -39q-101 0 -168 73.5t-67 190.5q0 155 94 249.5t222 94.5q97 0 172.5 -50.5t118.5 -138.5l-74 -66q-25 77 -83.5 123t-137.5 46zM479 635q71 0 123.5 -41t73.5 -110h-101q-21 49 -66.5 85.5t-110.5 43.5q41 22 81 22zM674 153v153l93 83v-152zM576 326l90 80
h78l-89 -80h-79zM508 920l-80 27l-80 -27l-56 19l136 47l136 -47zM359 843v57l58 20v-57zM439 863v57l58 -20v-57zM279 863v56l58 -20v-56zM519 843v56l58 20v-56z" />
    <glyph glyph-name="gcircumflex" unicode="&#x11d;" horiz-adv-x="832" 
d="M423 27q-73 0 -140 24.5t-120 70.5t-84.5 118.5t-31.5 160.5q0 151 90 249t223 98q92 0 170.5 -52.5t116.5 -133.5l-71 -68q-26 75 -83 121.5t-129 46.5q-100 0 -162 -78t-62 -183q0 -143 96.5 -234.5t245.5 -91.5q104 0 187 45q-106 -93 -246 -93zM758 406v-180
q-38 -52 -108 -88t-168 -36q-137 0 -226 83.5t-89 215.5q0 97 55 165.5t142 68.5q42 0 80 -19q-78 -7 -131 -62t-53 -155q0 -101 66 -159t156 -58q115 0 183 72v152h93zM485 750q87 -3 162 -50.5t116 -127.5h-92q-59 125 -186 178zM557 218v99l81 72v-123q-33 -33 -81 -48z
M748 545l-68 -61h-78l68 61h78zM279 935l149 51l149 -51v-54l-149 51l-149 -51v54zM428 867l-80 -27l-61 20l141 49l140 -49l-60 -20z" />
    <glyph glyph-name="Gbreve" unicode="&#x11e;" horiz-adv-x="838" 
d="M647 129l-25 -22q-88 -80 -214 -80q-159 0 -260 107t-101 263t92.5 251.5t216.5 101.5q-94 -40 -155 -131t-61 -215q0 -125 75.5 -208t186.5 -83q94 0 152 55v131h93v-170zM479 662q-83 0 -151 -68.5t-68 -175.5q0 -109 62.5 -166.5t157.5 -57.5q31 0 47 4v-19
q-51 -39 -125 -39q-101 0 -168 73.5t-67 190.5q0 155 94 249.5t222 94.5q97 0 172.5 -50.5t118.5 -138.5l-74 -66q-25 77 -83.5 123t-137.5 46zM479 635q71 0 123.5 -41t73.5 -110h-101q-21 49 -66.5 85.5t-110.5 43.5q41 22 81 22zM674 153v153l93 83v-152zM576 326l90 80
h78l-89 -80h-79zM428 880q45 0 82 24l58 -20q-60 -57 -140 -57q-84 0 -143 56l61 21q38 -24 82 -24zM428 901q-35 0 -69 24v51q30 -17 69 -17q38 0 69 17v-51q-34 -24 -69 -24zM279 905v56l58 20v-56zM519 925v56l58 -20v-56z" />
    <glyph glyph-name="gbreve" unicode="&#x11f;" horiz-adv-x="832" 
d="M423 27q-73 0 -140 24.5t-120 70.5t-84.5 118.5t-31.5 160.5q0 151 90 249t223 98q92 0 170.5 -52.5t116.5 -133.5l-71 -68q-26 75 -83 121.5t-129 46.5q-100 0 -162 -78t-62 -183q0 -143 96.5 -234.5t245.5 -91.5q104 0 187 45q-106 -93 -246 -93zM758 406v-180
q-38 -52 -108 -88t-168 -36q-137 0 -226 83.5t-89 215.5q0 97 55 165.5t142 68.5q42 0 80 -19q-78 -7 -131 -62t-53 -155q0 -101 66 -159t156 -58q115 0 183 72v152h93zM485 750q87 -3 162 -50.5t116 -127.5h-92q-59 125 -186 178zM557 218v99l81 72v-123q-33 -33 -81 -48z
M748 545l-68 -61h-78l68 61h78zM428 886q84 0 149 54v-53q-65 -55 -149 -55q-85 0 -149 53v54q62 -53 149 -53zM428 957q40 0 81 28l59 -21q-60 -57 -140 -57q-84 0 -143 56l62 22q42 -28 81 -28z" />
    <glyph glyph-name="Gdotaccent" unicode="&#x120;" horiz-adv-x="838" 
d="M647 129l-25 -22q-88 -80 -214 -80q-159 0 -260 107t-101 263t92.5 251.5t216.5 101.5q-94 -40 -155 -131t-61 -215q0 -125 75.5 -208t186.5 -83q94 0 152 55v131h93v-170zM479 662q-83 0 -151 -68.5t-68 -175.5q0 -109 62.5 -166.5t157.5 -57.5q31 0 47 4v-19
q-51 -39 -125 -39q-101 0 -168 73.5t-67 190.5q0 155 94 249.5t222 94.5q97 0 172.5 -50.5t118.5 -138.5l-74 -66q-25 77 -83.5 123t-137.5 46zM479 635q71 0 123.5 -41t73.5 -110h-101q-21 49 -66.5 85.5t-110.5 43.5q41 22 81 22zM674 153v153l93 83v-152zM576 326l90 80
h78l-89 -80h-79zM359 863v56l58 -20v-56zM439 843v56l58 20v-56zM372 939l56 19l56 -19l-56 -19z" />
    <glyph glyph-name="gdotaccent" unicode="&#x121;" horiz-adv-x="832" 
d="M423 27q-73 0 -140 24.5t-120 70.5t-84.5 118.5t-31.5 160.5q0 151 90 249t223 98q92 0 170.5 -52.5t116.5 -133.5l-71 -68q-26 75 -83 121.5t-129 46.5q-100 0 -162 -78t-62 -183q0 -143 96.5 -234.5t245.5 -91.5q104 0 187 45q-106 -93 -246 -93zM758 406v-180
q-38 -52 -108 -88t-168 -36q-137 0 -226 83.5t-89 215.5q0 97 55 165.5t142 68.5q42 0 80 -19q-78 -7 -131 -62t-53 -155q0 -101 66 -159t156 -58q115 0 183 72v152h93zM485 750q87 -3 162 -50.5t116 -127.5h-92q-59 125 -186 178zM557 218v99l81 72v-123q-33 -33 -81 -48z
M748 545l-68 -61h-78l68 61h78zM359 878v56l58 20v-56zM439 898v56l58 -20v-56zM372 859l56 19l56 -19l-56 -19z" />
    <glyph glyph-name="Gcommaaccent" unicode="&#x122;" horiz-adv-x="838" 
d="M647 129l-25 -22q-88 -80 -214 -80q-159 0 -260 107t-101 263t92.5 251.5t216.5 101.5q-94 -40 -155 -131t-61 -215q0 -125 75.5 -208t186.5 -83q94 0 152 55v131h93v-170zM479 662q-83 0 -151 -68.5t-68 -175.5q0 -109 62.5 -166.5t157.5 -57.5q31 0 47 4v-19
q-51 -39 -125 -39q-101 0 -168 73.5t-67 190.5q0 155 94 249.5t222 94.5q97 0 172.5 -50.5t118.5 -138.5l-74 -66q-25 77 -83.5 123t-137.5 46zM479 635q71 0 123.5 -41t73.5 -110h-101q-21 49 -66.5 85.5t-110.5 43.5q41 22 81 22zM674 153v153l93 83v-152zM576 326l90 80
h78l-89 -80h-79zM366 -292l-10 40q38 3 38 40v22h-47v90h96v-109q0 -45 -19 -62.5t-58 -20.5zM484 -222l-21 -18q2 16 2 28v118l45 40v-111q0 -35 -26 -57zM366 -78l42 37h81l-41 -37h-82z" />
    <glyph glyph-name="gcommaaccent" unicode="&#x123;" horiz-adv-x="832" 
d="M423 27q-73 0 -140 24.5t-120 70.5t-84.5 118.5t-31.5 160.5q0 151 90 249t223 98q92 0 170.5 -52.5t116.5 -133.5l-71 -68q-26 75 -83 121.5t-129 46.5q-100 0 -162 -78t-62 -183q0 -143 96.5 -234.5t245.5 -91.5q104 0 187 45q-106 -93 -246 -93zM758 406v-180
q-38 -52 -108 -88t-168 -36q-137 0 -226 83.5t-89 215.5q0 97 55 165.5t142 68.5q42 0 80 -19q-78 -7 -131 -62t-53 -155q0 -101 66 -159t156 -58q115 0 183 72v152h93zM485 750q87 -3 162 -50.5t116 -127.5h-92q-59 125 -186 178zM557 218v99l81 72v-123q-33 -33 -81 -48z
M748 545l-68 -61h-78l68 61h78zM433 -292l-9 40q37 3 37 40v22h-47v90h96v-110q0 -45 -19 -62t-58 -20zM347 -137v83l45 -40v-83zM408 -78l-40 37h81l41 -37h-82zM410 -231h-17l10 -40l-38 34l-9 35h31l12 -10h35q0 -19 -24 -19z" />
    <glyph glyph-name="Hcircumflex" unicode="&#x124;" horiz-adv-x="824" 
d="M168 374h368v274l93 83v-604l-93 -83v250h-368v-267h-93v614h93v-267zM656 134v614h93v-614h-93zM195 418v230l93 83v-230zM217 401l90 80h202v-80h-292zM288 127l-93 -83v223h93v-140zM559 27l89 80h79l-90 -80h-78zM97 668l90 80h78l-89 -80h-79zM492 920l-80 27
l-80 -27l-56 19l136 47l136 -47zM343 843v57l58 20v-57zM423 863v57l58 -20v-57zM263 863v56l58 -20v-56zM503 843v56l58 20v-56z" />
    <glyph glyph-name="hcircumflex" unicode="&#x125;" horiz-adv-x="824" 
d="M75 731l93 -83v-274h368v374h93v-614h-93v160h-368v-250l-93 83v604zM749 648v-604l-93 83v604zM195 267h93v-240h-93v240zM217 401l90 80h202v-80h-292zM288 641v-140l-93 -83v223h93zM176 748l90 -80h-79l-89 80h78zM637 107l89 -80h-78l-90 80h79zM263 935l149 51
l149 -51v-54l-149 51l-149 -51v54zM412 867l-80 -27l-61 20l141 49l140 -49l-60 -20z" />
    <glyph glyph-name="Hbar" unicode="&#x126;" horiz-adv-x="928" 
d="M137 476v165h93v-165h531v-80h-531v-89h368v62h93v-342h-93v200h-368v-200h-93v369h-90v80h90zM858 583l-89 -80h-492l89 80h492zM781 369l30 27v-269l-93 -83v325h63zM350 731v-125l-93 -84v126zM350 127l-93 -83v156h93v-73zM571 369v-35h-288l38 35h250zM881 496
l-93 -83v70l93 83v-70zM159 668l90 80h78l-89 -80h-79zM68 503l42 37v-37h-42zM281 369l-24 -23v23h24zM811 731v-121h-93v38zM598 610v31h93v-31h-93zM788 748l-89 -80h-79l90 80h78z" />
    <glyph glyph-name="hbar" unicode="&#x127;" horiz-adv-x="928" 
d="M791 641v-165h90v-80h-90v-369h-93v200h-368v-200h-93v342h93v-62h368v89h-531v80h531v165h93zM159 503l-89 80h492l89 -80h-492zM117 396l30 -27h63v-325l-93 83v269zM578 606v125l93 -83v-126zM671 44l-93 83v73h93v-156zM357 334v35h250l38 -35h-288zM140 413l-93 83
v70l93 -83v-70zM679 748l90 -80h-79l-89 80h78zM818 540l42 -37h-42v37zM671 346l-24 23h24v-23zM117 610v121l93 -83v-38h-93zM330 641v-31h-93v31h93zM229 668l-89 80h78l90 -80h-79z" />
    <glyph glyph-name="Itilde" unicode="&#x128;" horiz-adv-x="539" 
d="M283 668h-120v80h333v-80h-120v-435l-93 -82v517zM256 107h120v-80h-333v80h120v433l93 83v-516zM43 648l93 83v-70l-93 -83v70zM496 127l-93 -83v70l93 83v-70zM145 561h-80l89 80h81zM384 134h-79l89 80h79zM403 578v63h69zM136 134h-69l69 63v-63zM230 905
q20 0 61 -13t60 -13q29 0 50 11v-38q-23 -14 -48 -14q-18 0 -59 14t-63 14q-24 0 -48 -6v39q19 6 47 6zM203 925l14 12q22 21 54 21q18 0 58.5 -13t62.5 -13q15 0 30 3l-14 -13q-21 -20 -55 -20q-18 0 -58.5 13t-62.5 13q-14 0 -29 -3zM423 872v34l28 25v-34z" />
    <glyph glyph-name="itilde" unicode="&#x129;" horiz-adv-x="539" 
d="M376 668h-120v-517l-93 82v435h-120v80h333v-80zM163 107h120v516l93 -83v-433h120v-80h-333v80zM403 731l93 -83v-70l-93 83v70zM136 44l-93 83v70l93 -83v-70zM474 561h-80l-90 80h81zM234 134h-79l-89 80h79zM136 641v-63l-69 63h69zM472 134h-69v63zM351 918
q-19 0 -60 -13t-61 -13q-25 0 -47 5v40q19 -6 48 -6q22 0 63 14t59 14q25 0 48 -15v-37q-23 11 -50 11zM392 865q-22 0 -62.5 -13t-58.5 -13q-31 0 -54 21l-14 12q15 -3 29 -3q22 0 62.5 13t58.5 13q34 0 55 -20l14 -14q-13 4 -30 4zM423 891v34l28 -25v-35z" />
    <glyph glyph-name="Imacron" unicode="&#x12a;" horiz-adv-x="539" 
d="M283 668h-120v80h333v-80h-120v-435l-93 -82v517zM256 107h120v-80h-333v80h120v433l93 83v-516zM43 648l93 83v-70l-93 -83v70zM496 127l-93 -83v70l93 83v-70zM145 561h-80l89 80h81zM384 134h-79l89 80h79zM403 578v63h69zM136 134h-69l69 63v-63zM455 949v-37h-218
v37h218zM189 853l41 37h208l-41 -37h-208zM180 906l35 32v-34l-35 -31v33z" />
    <glyph glyph-name="imacron" unicode="&#x12b;" horiz-adv-x="539" 
d="M376 668h-120v-517l-93 82v435h-120v80h333v-80zM163 107h120v516l93 -83v-433h120v-80h-333v80zM403 731l93 -83v-70l-93 83v70zM136 44l-93 83v70l93 -83v-70zM474 561h-80l-90 80h81zM234 134h-79l-89 80h79zM136 641v-63l-69 63h69zM472 134h-69v63zM180 912v37h218
v-37h-218zM237 853l-41 37h208l42 -37h-209zM420 904v34l35 -32v-33z" />
    <glyph glyph-name="Ibreve" unicode="&#x12c;" horiz-adv-x="539" 
d="M283 668h-120v80h333v-80h-120v-435l-93 -82v517zM256 107h120v-80h-333v80h120v433l93 83v-516zM43 648l93 83v-70l-93 -83v70zM496 127l-93 -83v70l93 83v-70zM145 561h-80l89 80h81zM384 134h-79l89 80h79zM403 578v63h69zM136 134h-69l69 63v-63zM317 880q45 0 82 24
l58 -20q-60 -57 -140 -57q-84 0 -143 56l61 21q38 -24 82 -24zM317 901q-35 0 -69 24v51q30 -17 69 -17q38 0 69 17v-51q-34 -24 -69 -24zM168 905v56l58 20v-56zM408 925v56l58 -20v-56z" />
    <glyph glyph-name="ibreve" unicode="&#x12d;" horiz-adv-x="539" 
d="M376 668h-120v-517l-93 82v435h-120v80h333v-80zM163 107h120v516l93 -83v-433h120v-80h-333v80zM403 731l93 -83v-70l-93 83v70zM136 44l-93 83v70l93 -83v-70zM474 561h-80l-90 80h81zM234 134h-79l-89 80h79zM136 641v-63l-69 63h69zM472 134h-69v63zM317 886
q84 0 149 54v-53q-65 -55 -149 -55q-85 0 -149 53v54q62 -53 149 -53zM317 957q40 0 81 28l59 -21q-60 -57 -140 -57q-84 0 -143 56l62 22q42 -28 81 -28z" />
    <glyph glyph-name="Iogonek" unicode="&#x12e;" horiz-adv-x="539" 
d="M323 27h-280v80h120v433l93 83v-516h120v-82q-35 -10 -35 -45q0 -19 11.5 -29t26.5 -10q34 0 42 29h30q-5 -22 -24.5 -39t-48.5 -17q-31 0 -51.5 18t-20.5 50q0 27 17 45zM283 668h-120v80h333v-80h-120v-435l-93 -82v517zM286 -18q0 -40 26.5 -64t65.5 -24q36 0 60.5 19
t32.5 47l28 -26q-14 -32 -46.5 -52t-76.5 -20q-55 0 -90 32.5t-35 85.5q0 14 1 20h35q-1 -5 -1 -18zM43 648l93 83v-70l-93 -83v70zM496 127l-93 -83v70l93 83v-70zM145 561h-80l89 80h81zM384 134h-79l89 80h79zM403 578v63h69zM136 134h-69l69 63v-63z" />
    <glyph glyph-name="iogonek" unicode="&#x12f;" horiz-adv-x="539" 
d="M433 25l2 2h-272v80h120v516l93 -83v-433h120v-80q-19 -2 -31.5 -14.5t-12.5 -32.5q0 -19 11.5 -29t26.5 -10q22 0 34 13l20 -18q-24 -22 -55 -22t-51.5 18t-20.5 50q0 28 16 43zM376 668h-120v-517l-93 82v435h-120v80h333v-80zM397 -18q0 -40 26.5 -64t65.5 -24
q44 0 72 30h45q-16 -27 -47.5 -44.5t-71.5 -17.5q-55 0 -90 32.5t-35 85.5q0 14 1 20h35q-1 -6 -1 -18zM403 731l93 -83v-70l-93 83v70zM136 44l-93 83v70l93 -83v-70zM474 561h-80l-90 80h81zM234 134h-79l-89 80h79zM136 641v-63l-69 63h69zM472 134h-69v63zM600 -56h-35
l-29 26h35z" />
    <glyph glyph-name="Idotaccent" unicode="&#x130;" horiz-adv-x="539" 
d="M283 668h-120v80h333v-80h-120v-435l-93 -82v517zM256 107h120v-80h-333v80h120v433l93 83v-516zM43 648l93 83v-70l-93 -83v70zM496 127l-93 -83v70l93 83v-70zM145 561h-80l89 80h81zM384 134h-79l89 80h79zM403 578v63h69zM136 134h-69l69 63v-63zM248 863v56l58 -20
v-56zM328 843v56l58 20v-56zM261 939l56 19l56 -19l-56 -19z" />
    <glyph glyph-name="dotlessi" unicode="&#x131;" horiz-adv-x="539" 
d="M376 668h-120v-517l-93 82v435h-120v80h333v-80zM163 107h120v516l93 -83v-433h120v-80h-333v80zM403 731l93 -83v-70l-93 83v70zM136 44l-93 83v70l93 -83v-70zM474 561h-80l-90 80h81zM234 134h-79l-89 80h79zM136 641v-63l-69 63h69zM472 134h-69v63z" />
    <glyph glyph-name="Jcircumflex" unicode="&#x134;" horiz-adv-x="673" 
d="M386 114q58 0 92.5 38t34.5 109v386l93 83v-488q0 -96 -59 -155.5t-160 -59.5t-167.5 58.5t-70.5 152.5l80 73q5 -107 49 -152t108 -45zM393 271v290h-278v80h371v-380q0 -59 -26.5 -89.5t-73.5 -30.5q-19 0 -35 4q42 35 42 126zM137 668l89 80h357l-89 -80h-357zM29 233
h94q5 -72 43 -126t99 -82q-98 0 -163.5 57t-72.5 151zM53 260l68 61h78l-68 -61h-78zM442 920l-80 27l-80 -27l-56 19l136 47l136 -47zM293 843v57l58 20v-57zM373 863v57l58 -20v-57zM213 863v56l58 -20v-56zM453 843v56l58 20v-56z" />
    <glyph glyph-name="jcircumflex" unicode="&#x135;" horiz-adv-x="673" 
d="M513 252v416h-278v80h371v-496q0 -100 -61 -162.5t-160 -64.5q61 29 94.5 88t33.5 139zM393 261v279l93 83v-371q0 -103 -58.5 -164t-160.5 -61t-168.5 59t-69.5 157l77 69q5 -108 50 -153t110 -45q58 0 92.5 38t34.5 109zM375 561h-238l89 80h239zM323 156
q-24 -15 -57 -15q-54 0 -92 40t-41 140h96q4 -127 94 -165zM115 578v70l93 83v-70zM213 935l149 51l149 -51v-54l-149 51l-149 -51v54zM362 867l-80 -27l-61 20l141 49l140 -49l-60 -20z" />
    <glyph glyph-name="Kcommaaccent" unicode="&#x136;" horiz-adv-x="744" 
d="M168 641v-205l454 -409h-137l-317 286v-286h-93v614h93zM205 440l341 308h137l-341 -308l386 -347l-70 -62zM383 440l327 295v-124l-259 -233zM288 731v-179l-93 -84v180zM288 127l-93 -83v208l93 -84v-41zM97 668l90 80h78l-89 -80h-79zM308 -292l-10 40q38 3 38 40v22
h-47v90h96v-109q0 -45 -19 -62.5t-58 -20.5zM426 -222l-21 -18q2 16 2 28v118l45 40v-111q0 -35 -26 -57zM308 -78l42 37h81l-41 -37h-82z" />
    <glyph glyph-name="kcommaaccent" unicode="&#x137;" horiz-adv-x="752" 
d="M168 339v-205h-93v614h93v-286l317 286h137zM546 27l-341 308l453 409l70 -62l-386 -347l341 -308h-137zM451 396l259 -232v-124l-327 295zM288 223v-179l-93 83v180zM195 731l93 -83v-41l-93 -84v208zM187 27l-90 80h79l89 -80h-78zM377 -292l-9 40q37 3 37 40v22h-47
v90h96v-110q0 -45 -19 -62t-58 -20zM291 -137v83l45 -40v-83zM352 -78l-40 37h81l41 -37h-82zM354 -231h-17l10 -40l-38 34l-9 35h31l12 -10h35q0 -19 -24 -19z" />
    <glyph glyph-name="Lacute" unicode="&#x139;" horiz-adv-x="689" 
d="M553 214v107h93v-187h-428l88 80h247zM526 241h-71l71 63v-63zM168 641v-534h456l-90 -80h-459v614h93zM288 235l-93 -85v497l93 84v-496zM97 668l90 80h78l-89 -80h-79zM251 844v56l218 74v-56zM456 994l-216 -74l-56 19l216 74zM171 863v56l58 -20v-56z" />
    <glyph glyph-name="lacute" unicode="&#x13a;" horiz-adv-x="689" 
d="M168 214h246l89 -80h-428v614h93v-534zM98 107h455v107h93v-187h-460zM195 241v490l93 -83v-407h-93zM526 151l-93 84v68l93 -82v-70zM545 241l-90 80h79l89 -80h-78zM171 878v56l218 75v-56zM184 859l216 74l56 -19l-216 -74zM411 953v56l58 -20v-56z" />
    <glyph glyph-name="Lcommaaccent" unicode="&#x13b;" horiz-adv-x="689" 
d="M553 214v107h93v-187h-428l88 80h247zM526 241h-71l71 63v-63zM168 641v-534h456l-90 -80h-459v614h93zM288 235l-93 -85v497l93 84v-496zM97 668l90 80h78l-89 -80h-79zM260 -292l-10 40q38 3 38 40v22h-47v90h96v-109q0 -45 -19 -62.5t-58 -20.5zM378 -222l-21 -18
q2 16 2 28v118l45 40v-111q0 -35 -26 -57zM260 -78l42 37h81l-41 -37h-82z" />
    <glyph glyph-name="lcommaaccent" unicode="&#x13c;" horiz-adv-x="689" 
d="M168 214h246l89 -80h-428v614h93v-534zM98 107h455v107h93v-187h-460zM195 241v490l93 -83v-407h-93zM526 151l-93 84v68l93 -82v-70zM545 241l-90 80h79l89 -80h-78zM397 -292l-9 40q37 3 37 40v22h-47v90h96v-110q0 -45 -19 -62t-58 -20zM311 -137v83l45 -40v-83z
M372 -78l-40 37h81l41 -37h-82zM374 -231h-17l10 -40l-38 34l-9 35h31l12 -10h35q0 -19 -24 -19z" />
    <glyph glyph-name="Lcaron" unicode="&#x13d;" horiz-adv-x="689" 
d="M553 214v107h93v-187h-428l88 80h247zM526 241h-71l71 63v-63zM168 641v-534h456l-90 -80h-459v614h93zM288 235l-93 -85v497l93 84v-496zM97 668l90 80h78l-89 -80h-79zM402 502l-10 40q38 3 38 40v22h-47v90h96v-109q0 -45 -19 -62.5t-58 -20.5zM520 572l-21 -18
q2 16 2 28v118l45 40v-111q0 -35 -26 -57zM402 716l42 37h81l-41 -37h-82z" />
    <glyph glyph-name="lcaron" unicode="&#x13e;" horiz-adv-x="689" 
d="M168 214h246l89 -80h-428v614h93v-534zM98 107h455v107h93v-187h-460zM195 241v490l93 -83v-407h-93zM526 151l-93 84v68l93 -82v-70zM545 241l-90 80h79l89 -80h-78zM469 502l-9 40q37 3 37 40v22h-47v90h96v-110q0 -45 -19 -62t-58 -20zM383 657v83l45 -40v-83z
M444 716l-40 37h81l41 -37h-82zM446 563h-17l10 -40l-38 34l-9 35h31l12 -10h35q0 -19 -24 -19z" />
    <glyph glyph-name="Ldot" unicode="&#x13f;" horiz-adv-x="689" 
d="M553 214v107h93v-187h-428l88 80h247zM526 241h-71l71 63v-63zM168 641v-534h456l-90 -80h-459v614h93zM288 235l-93 -85v497l93 84v-496zM97 668l90 80h78l-89 -80h-79zM401 463v56l58 -20v-56zM481 443v56l58 20v-56zM414 539l56 19l56 -19l-56 -19z" />
    <glyph glyph-name="ldot" unicode="&#x140;" horiz-adv-x="689" 
d="M168 214h246l89 -80h-428v614h93v-534zM98 107h455v107h93v-187h-460zM195 241v490l93 -83v-407h-93zM526 151l-93 84v68l93 -82v-70zM545 241l-90 80h79l89 -80h-78zM401 478v56l58 20v-56zM481 498v56l58 -20v-56zM414 459l56 19l56 -19l-56 -19z" />
    <glyph glyph-name="Lslash" unicode="&#x141;" horiz-adv-x="752" 
d="M138 348v293h93v-208l160 145v-108l-160 -145v-218h456l-90 -80h-459v214l-93 -85v107zM616 214v107h93v-187h-428l88 80h247zM258 150v163l93 84v-162zM258 494v153l93 84v-153zM418 494v108l93 85v-108zM160 668l90 80h78l-89 -80h-79zM589 241h-71l71 63v-63z" />
    <glyph glyph-name="lslash" unicode="&#x142;" horiz-adv-x="752" 
d="M138 134v226l-93 -53v101l93 54v286h93v-232l173 100v-103l-173 -99v-200h246l89 -80h-428zM161 107h455v107h93v-187h-460zM494 431l-134 -77l-79 54l134 78zM351 241h-93v148l93 -63v-85zM258 564v168l93 -63v-52zM431 509v106l80 -55v-106zM589 151l-93 84v68l93 -82
v-70zM608 241l-90 80h79l89 -80h-78zM111 312v-67l-53 37z" />
    <glyph glyph-name="Nacute" unicode="&#x143;" horiz-adv-x="746" 
d="M168 503v-476h-93v638h95l419 -638h-109zM578 263v384l93 84v-650l-52 -47l-420 640l69 61zM288 127l-93 -84v365l93 -142v-139zM458 499v142h93v-283zM559 668h-79l90 80h78zM178 692h-83l62 56h83zM304 844v56l218 74v-56zM509 994l-216 -74l-56 19l216 74zM224 863v56
l58 -20v-56z" />
    <glyph glyph-name="nacute" unicode="&#x144;" horiz-adv-x="746" 
d="M578 272v476h93v-638h-95l-419 638h109zM168 512v-384l-93 -84v650l52 47l420 -640l-69 -61zM458 508v140l93 84v-365zM288 134h-93v283l93 -142v-141zM187 107h79l-90 -80h-78zM568 83h83l-62 -56h-83zM224 878v56l218 75v-56zM237 859l216 74l56 -19l-216 -74zM464 953
v56l58 -20v-56z" />
    <glyph glyph-name="Ncommaaccent" unicode="&#x145;" horiz-adv-x="746" 
d="M168 503v-476h-93v638h95l419 -638h-109zM578 263v384l93 84v-650l-52 -47l-420 640l69 61zM288 127l-93 -84v365l93 -142v-139zM458 499v142h93v-283zM559 668h-79l90 80h78zM178 692h-83l62 56h83zM310 -292l-10 40q38 3 38 40v22h-47v90h96v-109q0 -45 -19 -62.5
t-58 -20.5zM428 -222l-21 -18q2 16 2 28v118l45 40v-111q0 -35 -26 -57zM310 -78l42 37h81l-41 -37h-82z" />
    <glyph glyph-name="ncommaaccent" unicode="&#x146;" horiz-adv-x="746" 
d="M578 272v476h93v-638h-95l-419 638h109zM168 512v-384l-93 -84v650l52 47l420 -640l-69 -61zM458 508v140l93 84v-365zM288 134h-93v283l93 -142v-141zM187 107h79l-90 -80h-78zM568 83h83l-62 -56h-83zM377 -292l-9 40q37 3 37 40v22h-47v90h96v-110q0 -45 -19 -62
t-58 -20zM291 -137v83l45 -40v-83zM352 -78l-40 37h81l41 -37h-82zM354 -231h-17l10 -40l-38 34l-9 35h31l12 -10h35q0 -19 -24 -19z" />
    <glyph glyph-name="Ncaron" unicode="&#x147;" horiz-adv-x="746" 
d="M168 503v-476h-93v638h95l419 -638h-109zM578 263v384l93 84v-650l-52 -47l-420 640l69 61zM288 127l-93 -84v365l93 -142v-139zM458 499v142h93v-283zM559 668h-79l90 80h78zM178 692h-83l62 56h83zM373 878l80 27l56 -19l-136 -47l-136 47l56 19zM304 925v56l58 -20
v-56zM384 905v56l58 20v-56zM224 905v56l58 20v-56zM464 925v56l58 -20v-56z" />
    <glyph glyph-name="ncaron" unicode="&#x148;" horiz-adv-x="746" 
d="M578 272v476h93v-638h-95l-419 638h109zM168 512v-384l-93 -84v650l52 47l420 -640l-69 -61zM458 508v140l93 84v-365zM288 134h-93v283l93 -142v-141zM187 107h79l-90 -80h-78zM568 83h83l-62 -56h-83zM373 839l-149 51v54l149 -51l149 51v-54zM293 985l80 -27l80 27
l60 -20l-140 -49l-141 49z" />
    <glyph glyph-name="napostrophe" unicode="&#x149;" horiz-adv-x="920" 
d="M752 272v476h93v-638h-95l-419 638h109zM342 512v-384l-93 -84v650l52 47l420 -640l-69 -61zM632 508v140l93 84v-365zM462 134h-93v283l93 -142v-141zM361 107h79l-90 -80h-78zM742 83h83l-62 -56h-83zM96 502l-9 40q37 3 37 40v22h-47v90h96v-110q0 -45 -19 -62
t-58 -20zM10 657v83l45 -40v-83zM71 716l-40 37h81l41 -37h-82zM73 563h-17l10 -40l-38 34l-9 35h31l12 -10h35q0 -19 -24 -19z" />
    <glyph glyph-name="Eng" unicode="&#x14a;" horiz-adv-x="746" 
d="M461 -106q117 0 117 147v55l-379 578l69 61l310 -472v384l93 84v-709q0 -98 -54.5 -156.5t-154.5 -58.5q-93 0 -157 50l54 77q40 -40 102 -40zM458 51v10l-290 442v-476h-93v638h95l381 -581v-43q0 -120 -90 -120q-20 0 -35 4q32 32 32 126zM288 127l-93 -84v365l93 -142
v-139zM458 499v142h93v-283zM281 -130h-107l55 80h107zM559 668h-79l90 80h78zM178 692h-83l62 56h83zM201 -157h80q26 -23 59 -38q-79 0 -139 38z" />
    <glyph glyph-name="eng" unicode="&#x14b;" horiz-adv-x="746" 
d="M458 70l-290 442v-384l-93 -84v650l52 47l424 -646v-63q0 -104 -54.5 -164.5t-154.5 -60.5t-164 55l53 77q40 -45 110 -45q57 0 87 37.5t30 109.5v29zM578 107l-421 641h109l312 -476v476h93v-716q0 -102 -57 -163.5t-156 -63.5q120 60 120 227v75zM458 508v140l93 84
v-365zM288 134h-93v283l93 -142v-141zM187 107h79l-90 -80h-78zM396 -63q-20 -16 -55 -16q-50 0 -82 29h113q9 -6 24 -13z" />
    <glyph glyph-name="Omacron" unicode="&#x14c;" horiz-adv-x="857" 
d="M167 404q0 157 91.5 250.5t224.5 93.5q63 0 121.5 -25t104.5 -71t73.5 -117.5t27.5 -157.5q0 -153 -88.5 -248.5t-215.5 -103.5q95 40 153 131.5t58 214.5q0 124 -69 207.5t-169 83.5q-90 0 -154.5 -68t-64.5 -183q0 -105 57.5 -173.5t144.5 -76.5q-39 -21 -84 -21
q-88 0 -149.5 75t-61.5 189zM690 371q0 -157 -91 -250.5t-222 -93.5q-142 0 -236 105.5t-94 265.5q0 153 89.5 249t215.5 102q-94 -40 -153 -130t-59 -215q0 -124 69 -207.5t168 -83.5q90 0 155 67.5t65 183.5q0 105 -58 173t-145 77q42 21 85 21q88 0 149.5 -75t61.5 -189z
M566 949v-37h-218v37h218zM300 853l41 37h208l-41 -37h-208zM291 906l35 32v-34l-35 -31v33z" />
    <glyph glyph-name="omacron" unicode="&#x14d;" horiz-adv-x="857" 
d="M717 404q0 123 -58 214.5t-153 130.5q127 -7 215.5 -102.5t88.5 -248.5q0 -86 -27.5 -157.5t-73.5 -117.5t-104.5 -71t-121.5 -25q-133 0 -224.5 93.5t-91.5 250.5q0 114 61.5 189t149.5 75q42 0 84 -21q-87 -9 -144.5 -77t-57.5 -173q0 -115 64.5 -183t154.5 -68
q100 0 169 83.5t69 207.5zM140 371q0 -125 59 -216t153 -130q-126 7 -215.5 103t-89.5 249q0 160 94 265.5t236 105.5q131 0 222 -93.5t91 -250.5q0 -114 -61.5 -189t-149.5 -75q-46 0 -85 21q87 8 145 76.5t58 173.5q0 116 -65 183.5t-155 67.5q-99 0 -168 -83.5
t-69 -207.5zM291 912v37h218v-37h-218zM348 853l-41 37h208l42 -37h-209zM531 904v34l35 -32v-33z" />
    <glyph glyph-name="Obreve" unicode="&#x14e;" horiz-adv-x="857" 
d="M167 404q0 157 91.5 250.5t224.5 93.5q63 0 121.5 -25t104.5 -71t73.5 -117.5t27.5 -157.5q0 -153 -88.5 -248.5t-215.5 -103.5q95 40 153 131.5t58 214.5q0 124 -69 207.5t-169 83.5q-90 0 -154.5 -68t-64.5 -183q0 -105 57.5 -173.5t144.5 -76.5q-39 -21 -84 -21
q-88 0 -149.5 75t-61.5 189zM690 371q0 -157 -91 -250.5t-222 -93.5q-142 0 -236 105.5t-94 265.5q0 153 89.5 249t215.5 102q-94 -40 -153 -130t-59 -215q0 -124 69 -207.5t168 -83.5q90 0 155 67.5t65 183.5q0 105 -58 173t-145 77q42 21 85 21q88 0 149.5 -75t61.5 -189z
M428 880q45 0 82 24l58 -20q-60 -57 -140 -57q-84 0 -143 56l61 21q38 -24 82 -24zM428 901q-35 0 -69 24v51q30 -17 69 -17q38 0 69 17v-51q-34 -24 -69 -24zM279 905v56l58 20v-56zM519 925v56l58 -20v-56z" />
    <glyph glyph-name="obreve" unicode="&#x14f;" horiz-adv-x="857" 
d="M717 404q0 123 -58 214.5t-153 130.5q127 -7 215.5 -102.5t88.5 -248.5q0 -86 -27.5 -157.5t-73.5 -117.5t-104.5 -71t-121.5 -25q-133 0 -224.5 93.5t-91.5 250.5q0 114 61.5 189t149.5 75q42 0 84 -21q-87 -9 -144.5 -77t-57.5 -173q0 -115 64.5 -183t154.5 -68
q100 0 169 83.5t69 207.5zM140 371q0 -125 59 -216t153 -130q-126 7 -215.5 103t-89.5 249q0 160 94 265.5t236 105.5q131 0 222 -93.5t91 -250.5q0 -114 -61.5 -189t-149.5 -75q-46 0 -85 21q87 8 145 76.5t58 173.5q0 116 -65 183.5t-155 67.5q-99 0 -168 -83.5
t-69 -207.5zM428 886q84 0 149 54v-53q-65 -55 -149 -55q-85 0 -149 53v54q62 -53 149 -53zM428 957q40 0 81 28l59 -21q-60 -57 -140 -57q-84 0 -143 56l62 22q42 -28 81 -28z" />
    <glyph glyph-name="Ohungarumlaut" unicode="&#x150;" horiz-adv-x="857" 
d="M167 404q0 157 91.5 250.5t224.5 93.5q63 0 121.5 -25t104.5 -71t73.5 -117.5t27.5 -157.5q0 -153 -88.5 -248.5t-215.5 -103.5q95 40 153 131.5t58 214.5q0 124 -69 207.5t-169 83.5q-90 0 -154.5 -68t-64.5 -183q0 -105 57.5 -173.5t144.5 -76.5q-39 -21 -84 -21
q-88 0 -149.5 75t-61.5 189zM690 371q0 -157 -91 -250.5t-222 -93.5q-142 0 -236 105.5t-94 265.5q0 153 89.5 249t215.5 102q-94 -40 -153 -130t-59 -215q0 -124 69 -207.5t168 -83.5q90 0 155 67.5t65 183.5q0 105 -58 173t-145 77q42 21 85 21q88 0 149.5 -75t61.5 -189z
M255 864l18 116l59 -20l-19 -116zM437 864l19 116l58 -20l-19 -116zM353 851l-17 -6l19 112l52 18zM535 851l-17 -6l19 112l52 18zM290 997l57 20l57 -20l-57 -19zM472 997l57 20l57 -20l-57 -19z" />
    <glyph glyph-name="ohungarumlaut" unicode="&#x151;" horiz-adv-x="857" 
d="M717 404q0 123 -58 214.5t-153 130.5q127 -7 215.5 -102.5t88.5 -248.5q0 -86 -27.5 -157.5t-73.5 -117.5t-104.5 -71t-121.5 -25q-133 0 -224.5 93.5t-91.5 250.5q0 114 61.5 189t149.5 75q42 0 84 -21q-87 -9 -144.5 -77t-57.5 -173q0 -115 64.5 -183t154.5 -68
q100 0 169 83.5t69 207.5zM140 371q0 -125 59 -216t153 -130q-126 7 -215.5 103t-89.5 249q0 160 94 265.5t236 105.5q131 0 222 -93.5t91 -250.5q0 -114 -61.5 -189t-149.5 -75q-46 0 -85 21q87 8 145 76.5t58 173.5q0 116 -65 183.5t-155 67.5q-99 0 -168 -83.5
t-69 -207.5zM257 874l18 118l58 20l-20 -119zM439 874l18 118l58 20l-20 -119zM335 892l21 122l59 -20l-49 -113zM517 892l21 122l59 -20l-49 -113zM297 848l-28 9l53 18l27 -9zM479 848l-28 9l53 18l27 -9z" />
    <glyph glyph-name="OE" unicode="&#x152;" horiz-adv-x="1097" 
d="M1022 401h-338v-166l-93 -84v517h-147q-140 0 -222 -77.5t-82 -202.5q0 -126 82.5 -203.5t221.5 -77.5h27v433l93 84v-517h338v-80h-484q-165 0 -268 98.5t-103 261.5q0 167 102.5 264t289.5 97h583v-80h-338v-187h338v-80zM167 388q0 114 74 183.5t203 69.5h96l-88 -80
h-8q-86 0 -135 -47t-49 -126q0 -81 49 -127.5t135 -46.5v-80q-128 0 -202.5 70t-74.5 184zM614 134l89 80h297l-89 -80h-297zM711 294v80h288l-89 -80h-199zM711 561v80h288l-89 -80h-199zM1022 127l-93 -83v70l93 83v-70z" />
    <glyph glyph-name="oe" unicode="&#x153;" horiz-adv-x="1097" 
d="M703 294l-90 80h298l88 -80h-296zM703 561l-89 80h297l89 -80h-297zM711 134v80h199l89 -80h-288zM591 508v116l93 -84v-32h-93zM929 465l93 -85v-69l-93 83v71zM929 731l93 -83v-70l-93 83v70zM444 641v-80q-86 0 -135 -46.5t-49 -127.5q0 -79 49 -126t135 -47h20
l86 -80h-106q-129 0 -203 69.5t-74 183.5t74.5 184t202.5 70zM47 388q0 163 103 261.5t268 98.5h484v-80h-338v-187h338v-80h-338v-244l-93 91v420h-27q-139 0 -221.5 -77.5t-82.5 -203.5q0 -125 82 -202.5t222 -77.5h147v250l93 -83v-167h338v-80h-583q-187 0 -289.5 97
t-102.5 264z" />
    <glyph glyph-name="Racute" unicode="&#x154;" horiz-adv-x="738" 
d="M384 240l237 -213h-137l-236 213h-80v-213h-93v614h292q78 0 118.5 -39.5t40.5 -107.5q0 -70 -39 -108.5t-111 -38.5h-159l90 80h55q34 0 53 19t19 49q0 31 -20.5 48.5t-52.5 17.5h-193v-241h210q83 0 129 47t46 127q0 81 -48 127.5t-136 46.5h-272l90 80h204
q115 0 185 -68t70 -186q0 -119 -68 -186.5t-182 -67.5h-12zM660 31l-208 186q53 7 99 34l176 -159zM195 364v170h93v-86zM195 44v169h39l54 -49v-37zM287 844v56l218 74v-56zM492 994l-216 -74l-56 19l216 74zM207 863v56l58 -20v-56z" />
    <glyph glyph-name="racute" unicode="&#x155;" horiz-adv-x="714" 
d="M393 347l184 -213h-121l-184 213h-104v-213h-93v614h316q115 0 185 -68t70 -186q0 -87 -38.5 -147t-104.5 -85l-58 67q108 37 108 165q0 81 -48 127.5t-136 46.5h-201v-241h193q35 0 54 19t19 49q0 31 -20 48.5t-52 17.5h-55l-90 80h150q78 0 118.5 -39.5t40.5 -107.5
q0 -65 -33.5 -102.5t-99.5 -44.5zM288 44l-93 83v176l93 -84v-175zM195 454v170l93 -84v-86h-93zM549 27l-69 80h120l70 -80h-121zM176 107l89 -80h-78l-90 80h79zM307 240l-90 80h41l70 -80h-21zM202 878v56l218 75v-56zM215 859l216 74l56 -19l-216 -74zM442 953v56
l58 -20v-56z" />
    <glyph glyph-name="Rcommaaccent" unicode="&#x156;" horiz-adv-x="738" 
d="M384 240l237 -213h-137l-236 213h-80v-213h-93v614h292q78 0 118.5 -39.5t40.5 -107.5q0 -70 -39 -108.5t-111 -38.5h-159l90 80h55q34 0 53 19t19 49q0 31 -20.5 48.5t-52.5 17.5h-193v-241h210q83 0 129 47t46 127q0 81 -48 127.5t-136 46.5h-272l90 80h204
q115 0 185 -68t70 -186q0 -119 -68 -186.5t-182 -67.5h-12zM660 31l-208 186q53 7 99 34l176 -159zM195 364v170h93v-86zM195 44v169h39l54 -49v-37zM294 -292l-10 40q38 3 38 40v22h-47v90h96v-109q0 -45 -19 -62.5t-58 -20.5zM412 -222l-21 -18q2 16 2 28v118l45 40v-111
q0 -35 -26 -57zM294 -78l42 37h81l-41 -37h-82z" />
    <glyph glyph-name="rcommaaccent" unicode="&#x157;" horiz-adv-x="714" 
d="M393 347l184 -213h-121l-184 213h-104v-213h-93v614h316q115 0 185 -68t70 -186q0 -87 -38.5 -147t-104.5 -85l-58 67q108 37 108 165q0 81 -48 127.5t-136 46.5h-201v-241h193q35 0 54 19t19 49q0 31 -20 48.5t-52 17.5h-55l-90 80h150q78 0 118.5 -39.5t40.5 -107.5
q0 -65 -33.5 -102.5t-99.5 -44.5zM288 44l-93 83v176l93 -84v-175zM195 454v170l93 -84v-86h-93zM549 27l-69 80h120l70 -80h-121zM176 107l89 -80h-78l-90 80h79zM307 240l-90 80h41l70 -80h-21zM356 -292l-9 40q37 3 37 40v22h-47v90h96v-110q0 -45 -19 -62t-58 -20z
M270 -137v83l45 -40v-83zM331 -78l-40 37h81l41 -37h-82zM333 -231h-17l10 -40l-38 34l-9 35h31l12 -10h35q0 -19 -24 -19z" />
    <glyph glyph-name="Rcaron" unicode="&#x158;" horiz-adv-x="738" 
d="M384 240l237 -213h-137l-236 213h-80v-213h-93v614h292q78 0 118.5 -39.5t40.5 -107.5q0 -70 -39 -108.5t-111 -38.5h-159l90 80h55q34 0 53 19t19 49q0 31 -20.5 48.5t-52.5 17.5h-193v-241h210q83 0 129 47t46 127q0 81 -48 127.5t-136 46.5h-272l90 80h204
q115 0 185 -68t70 -186q0 -119 -68 -186.5t-182 -67.5h-12zM660 31l-208 186q53 7 99 34l176 -159zM195 364v170h93v-86zM195 44v169h39l54 -49v-37zM356 878l80 27l56 -19l-136 -47l-136 47l56 19zM287 925v56l58 -20v-56zM367 905v56l58 20v-56zM207 905v56l58 20v-56z
M447 925v56l58 -20v-56z" />
    <glyph glyph-name="rcaron" unicode="&#x159;" horiz-adv-x="714" 
d="M393 347l184 -213h-121l-184 213h-104v-213h-93v614h316q115 0 185 -68t70 -186q0 -87 -38.5 -147t-104.5 -85l-58 67q108 37 108 165q0 81 -48 127.5t-136 46.5h-201v-241h193q35 0 54 19t19 49q0 31 -20 48.5t-52 17.5h-55l-90 80h150q78 0 118.5 -39.5t40.5 -107.5
q0 -65 -33.5 -102.5t-99.5 -44.5zM288 44l-93 83v176l93 -84v-175zM195 454v170l93 -84v-86h-93zM549 27l-69 80h120l70 -80h-121zM176 107l89 -80h-78l-90 80h79zM307 240l-90 80h41l70 -80h-21zM351 839l-149 51v54l149 -51l149 51v-54zM271 985l80 -27l80 27l60 -20
l-140 -49l-141 49z" />
    <glyph glyph-name="Sacute" unicode="&#x15a;" horiz-adv-x="653" 
d="M258 113q54 0 81 25t27 55q0 51 -72 99l-81 54q-142 94 -142 218q0 89 60.5 136.5t148.5 49.5q-53 -24 -84.5 -67.5t-31.5 -100.5q0 -103 95 -167l101 -67q102 -69 102 -158q0 -73 -60.5 -118t-147.5 -45q-81 0 -141 39.5t-82 102.5l76 69q12 -58 53 -91.5t98 -33.5z
M395 662q-54 0 -81 -25.5t-27 -57.5q0 -51 73 -99l101 -67q57 -38 89 -84t32 -111q0 -82 -62.5 -136.5t-146.5 -56.5q53 24 84.5 67t31.5 98q0 105 -105 174l-101 67q-92 62 -92 151q0 75 60 120.5t148 45.5q81 0 140.5 -39.5t81.5 -103.5l-76 -68q-12 58 -52 91.5t-98 33.5
zM395 635q44 0 78.5 -27.5t45.5 -76.5h-98q-18 64 -72 96q18 8 46 8zM258 140q-43 0 -78 27.5t-46 76.5h97q20 -64 72 -97q-19 -7 -45 -7zM257 844v56l218 74v-56zM462 994l-216 -74l-56 19l216 74zM177 863v56l58 -20v-56z" />
    <glyph glyph-name="sacute" unicode="&#x15b;" horiz-adv-x="660" 
d="M376 113q51 0 85 29.5t34 77.5q0 75 -91 135l-127 83q-42 28 -63.5 54.5t-21.5 62.5q0 37 26 58.5t66 21.5q7 0 10 -1q-9 -18 -9 -44q0 -59 69 -104l126 -84q108 -73 108 -183q0 -86 -59.5 -139t-155.5 -53q-85 0 -142.5 39t-78.5 99l75 67q14 -56 52.5 -87.5t96.5 -31.5
zM375 185q0 59 -66 102l-130 87q-107 70 -107 182q0 89 64.5 140.5t150.5 51.5q85 0 142.5 -39t78.5 -99l-75 -66q-14 56 -52.5 87t-96.5 31q-51 0 -85 -29.5t-34 -77.5q0 -73 90 -134l125 -82q44 -29 66 -56t22 -63q0 -37 -26 -58.5t-66 -21.5h-11q10 20 10 45zM626 619
h-92q-37 90 -125 131q67 -1 129.5 -36.5t87.5 -94.5zM34 156h92q36 -92 125 -131q-68 1 -130 36t-87 95zM52 183l68 61h78l-68 -61h-78zM608 592l-68 -61h-78l68 61h78zM181 878v56l218 75v-56zM194 859l216 74l56 -19l-216 -74zM421 953v56l58 -20v-56z" />
    <glyph glyph-name="Scircumflex" unicode="&#x15c;" horiz-adv-x="653" 
d="M258 113q54 0 81 25t27 55q0 51 -72 99l-81 54q-142 94 -142 218q0 89 60.5 136.5t148.5 49.5q-53 -24 -84.5 -67.5t-31.5 -100.5q0 -103 95 -167l101 -67q102 -69 102 -158q0 -73 -60.5 -118t-147.5 -45q-81 0 -141 39.5t-82 102.5l76 69q12 -58 53 -91.5t98 -33.5z
M395 662q-54 0 -81 -25.5t-27 -57.5q0 -51 73 -99l101 -67q57 -38 89 -84t32 -111q0 -82 -62.5 -136.5t-146.5 -56.5q53 24 84.5 67t31.5 98q0 105 -105 174l-101 67q-92 62 -92 151q0 75 60 120.5t148 45.5q81 0 140.5 -39.5t81.5 -103.5l-76 -68q-12 58 -52 91.5t-98 33.5
zM395 635q44 0 78.5 -27.5t45.5 -76.5h-98q-18 64 -72 96q18 8 46 8zM258 140q-43 0 -78 27.5t-46 76.5h97q20 -64 72 -97q-19 -7 -45 -7zM406 920l-80 27l-80 -27l-56 19l136 47l136 -47zM257 843v57l58 20v-57zM337 863v57l58 -20v-57zM177 863v56l58 -20v-56zM417 843v56
l58 20v-56z" />
    <glyph glyph-name="scircumflex" unicode="&#x15d;" horiz-adv-x="660" 
d="M376 113q51 0 85 29.5t34 77.5q0 75 -91 135l-127 83q-42 28 -63.5 54.5t-21.5 62.5q0 37 26 58.5t66 21.5q7 0 10 -1q-9 -18 -9 -44q0 -59 69 -104l126 -84q108 -73 108 -183q0 -86 -59.5 -139t-155.5 -53q-85 0 -142.5 39t-78.5 99l75 67q14 -56 52.5 -87.5t96.5 -31.5
zM375 185q0 59 -66 102l-130 87q-107 70 -107 182q0 89 64.5 140.5t150.5 51.5q85 0 142.5 -39t78.5 -99l-75 -66q-14 56 -52.5 87t-96.5 31q-51 0 -85 -29.5t-34 -77.5q0 -73 90 -134l125 -82q44 -29 66 -56t22 -63q0 -37 -26 -58.5t-66 -21.5h-11q10 20 10 45zM626 619
h-92q-37 90 -125 131q67 -1 129.5 -36.5t87.5 -94.5zM34 156h92q36 -92 125 -131q-68 1 -130 36t-87 95zM52 183l68 61h78l-68 -61h-78zM608 592l-68 -61h-78l68 61h78zM181 935l149 51l149 -51v-54l-149 51l-149 -51v54zM330 867l-80 -27l-61 20l141 49l140 -49l-60 -20z
" />
    <glyph glyph-name="Scedilla" unicode="&#x15e;" horiz-adv-x="653" 
d="M31 169l76 69q12 -58 53 -91.5t98 -33.5q54 0 81 25t27 55q0 51 -72 99l-81 54q-142 94 -142 218q0 89 60.5 136.5t148.5 49.5q-53 -24 -84.5 -67.5t-31.5 -100.5q0 -103 95 -167l101 -67q102 -69 102 -158q0 -73 -60.5 -118t-147.5 -45h-3v-76h70q35 0 55.5 -19
t20.5 -49q0 -32 -20.5 -50t-51.5 -18q-29 0 -48.5 17t-24.5 39h30q8 -29 42 -29q15 0 26.5 10t11.5 29q0 41 -52 41h-94v108q-68 8 -116.5 45.5t-68.5 93.5zM395 662q-54 0 -81 -25.5t-27 -57.5q0 -51 73 -99l101 -67q57 -38 89 -84t32 -111q0 -82 -62.5 -136.5
t-146.5 -56.5q53 24 84.5 67t31.5 98q0 105 -105 174l-101 67q-92 62 -92 151q0 75 60 120.5t148 45.5q81 0 140.5 -39.5t81.5 -103.5l-76 -68q-12 58 -52 91.5t-98 33.5zM272 0h75q44 -2 74.5 -34.5t30.5 -84.5q0 -53 -35 -85.5t-90 -32.5q-44 0 -76.5 20t-46.5 52l28 26
q8 -28 32.5 -47t60.5 -19q39 0 65.5 24t26.5 64t-26.5 64t-69.5 24h-49v29zM395 635q44 0 78.5 -27.5t45.5 -76.5h-98q-18 64 -72 96q18 8 46 8zM258 140q-43 0 -78 27.5t-46 76.5h97q20 -64 72 -97q-19 -7 -45 -7z" />
    <glyph glyph-name="scedilla" unicode="&#x15f;" horiz-adv-x="660" 
d="M400 28v-28h15q45 0 77 -33t32 -86t-35 -85.5t-90 -32.5q-40 0 -71.5 17.5t-47.5 44.5h45q28 -30 72 -30q39 0 65.5 24t26.5 64t-26.5 64t-69.5 24h-49v57q-74 7 -123.5 45t-68.5 92l75 67q14 -56 52.5 -87.5t96.5 -31.5q51 0 85 29.5t34 77.5q0 75 -91 135l-127 83
q-42 28 -63.5 54.5t-21.5 62.5q0 37 26 58.5t66 21.5q7 0 10 -1q-9 -18 -9 -44q0 -59 69 -104l126 -84q108 -73 108 -183q0 -79 -52.5 -131.5t-135.5 -59.5zM375 185q0 59 -66 102l-130 87q-107 70 -107 182q0 89 64.5 140.5t150.5 51.5q85 0 142.5 -39t78.5 -99l-75 -66
q-14 56 -52.5 87t-96.5 31q-51 0 -85 -29.5t-34 -77.5q0 -73 90 -134l125 -82q44 -29 66 -56t22 -63q0 -37 -26 -58.5t-66 -21.5h-11q10 20 10 45zM626 619h-92q-37 90 -125 131q67 -1 129.5 -36.5t87.5 -94.5zM34 156h92q36 -92 125 -131q-68 1 -130 36t-87 95zM397 -185
q-31 0 -55 22l20 18q12 -13 34 -13q15 0 26.5 10t11.5 29q0 41 -52 41h-76l34 29h53q35 0 55.5 -19t20.5 -49q0 -32 -20.5 -50t-51.5 -18zM52 183l68 61h78l-68 -61h-78zM608 592l-68 -61h-78l68 61h78zM323 -36l-35 -30v66h35v-36zM321 -155h-35l29 26h35z" />
    <glyph glyph-name="Scaron" unicode="&#x160;" horiz-adv-x="653" 
d="M258 113q54 0 81 25t27 55q0 51 -72 99l-81 54q-142 94 -142 218q0 89 60.5 136.5t148.5 49.5q-53 -24 -84.5 -67.5t-31.5 -100.5q0 -103 95 -167l101 -67q102 -69 102 -158q0 -73 -60.5 -118t-147.5 -45q-81 0 -141 39.5t-82 102.5l76 69q12 -58 53 -91.5t98 -33.5z
M395 662q-54 0 -81 -25.5t-27 -57.5q0 -51 73 -99l101 -67q57 -38 89 -84t32 -111q0 -82 -62.5 -136.5t-146.5 -56.5q53 24 84.5 67t31.5 98q0 105 -105 174l-101 67q-92 62 -92 151q0 75 60 120.5t148 45.5q81 0 140.5 -39.5t81.5 -103.5l-76 -68q-12 58 -52 91.5t-98 33.5
zM395 635q44 0 78.5 -27.5t45.5 -76.5h-98q-18 64 -72 96q18 8 46 8zM258 140q-43 0 -78 27.5t-46 76.5h97q20 -64 72 -97q-19 -7 -45 -7zM326 878l80 27l56 -19l-136 -47l-136 47l56 19zM257 925v56l58 -20v-56zM337 905v56l58 20v-56zM177 905v56l58 20v-56zM417 925v56
l58 -20v-56z" />
    <glyph glyph-name="scaron" unicode="&#x161;" horiz-adv-x="660" 
d="M376 113q51 0 85 29.5t34 77.5q0 75 -91 135l-127 83q-42 28 -63.5 54.5t-21.5 62.5q0 37 26 58.5t66 21.5q7 0 10 -1q-9 -18 -9 -44q0 -59 69 -104l126 -84q108 -73 108 -183q0 -86 -59.5 -139t-155.5 -53q-85 0 -142.5 39t-78.5 99l75 67q14 -56 52.5 -87.5t96.5 -31.5
zM375 185q0 59 -66 102l-130 87q-107 70 -107 182q0 89 64.5 140.5t150.5 51.5q85 0 142.5 -39t78.5 -99l-75 -66q-14 56 -52.5 87t-96.5 31q-51 0 -85 -29.5t-34 -77.5q0 -73 90 -134l125 -82q44 -29 66 -56t22 -63q0 -37 -26 -58.5t-66 -21.5h-11q10 20 10 45zM626 619
h-92q-37 90 -125 131q67 -1 129.5 -36.5t87.5 -94.5zM34 156h92q36 -92 125 -131q-68 1 -130 36t-87 95zM52 183l68 61h78l-68 -61h-78zM608 592l-68 -61h-78l68 61h78zM330 839l-149 51v54l149 -51l149 51v-54zM250 985l80 -27l80 27l60 -20l-140 -49l-141 49z" />
    <glyph glyph-name="Tcommaaccent" unicode="&#x162;" horiz-adv-x="749" 
d="M622 668h-141v-541l-93 -83v624h-349l88 80h584zM508 641h106v-80h-106v80zM734 662l-93 -83v69l93 84v-70zM268 27v514l93 84v-598h-93zM250 561h-235v80h323zM312 -292l-10 40q38 3 38 40v22h-47v90h96v-109q0 -45 -19 -62.5t-58 -20.5zM430 -222l-21 -18q2 16 2 28
v118l45 40v-111q0 -35 -26 -57zM312 -78l42 37h81l-41 -37h-82z" />
    <glyph glyph-name="tcommaaccent" unicode="&#x163;" horiz-adv-x="749" 
d="M361 134h-93v534h-141l-89 80h584l88 -80h-349v-534zM481 44l-93 83v498l93 -84v-497zM411 641h323v-80h-235zM135 561v80h106v-80h-106zM108 579l-93 83v69l93 -83v-69zM369 107l89 -80h-78l-90 80h79zM379 -292l-9 40q37 3 37 40v22h-47v90h96v-110q0 -45 -19 -62
t-58 -20zM293 -137v83l45 -40v-83zM354 -78l-40 37h81l41 -37h-82zM356 -231h-17l10 -40l-38 34l-9 35h31l12 -10h35q0 -19 -24 -19z" />
    <glyph glyph-name="Tcaron" unicode="&#x164;" horiz-adv-x="749" 
d="M622 668h-141v-541l-93 -83v624h-349l88 80h584zM508 641h106v-80h-106v80zM734 662l-93 -83v69l93 84v-70zM268 27v514l93 84v-598h-93zM250 561h-235v80h323zM374 878l80 27l56 -19l-136 -47l-136 47l56 19zM305 925v56l58 -20v-56zM385 905v56l58 20v-56zM225 905v56
l58 20v-56zM465 925v56l58 -20v-56z" />
    <glyph glyph-name="tcaron" unicode="&#x165;" horiz-adv-x="749" 
d="M361 134h-93v534h-141l-89 80h584l88 -80h-349v-534zM481 44l-93 83v498l93 -84v-497zM411 641h323v-80h-235zM135 561v80h106v-80h-106zM108 579l-93 83v69l93 -83v-69zM369 107l89 -80h-78l-90 80h79zM374 839l-149 51v54l149 -51l149 51v-54zM294 985l80 -27l80 27
l60 -20l-140 -49l-141 49z" />
    <glyph glyph-name="Tbar" unicode="&#x166;" horiz-adv-x="773" 
d="M373 294v-267h-93v267h-183v80h183v168l93 84v-252h183v-80h-183zM400 413v255h-253v80h599v-80h-253v-171zM493 127l-93 -83v223h93v-140zM50 561l89 80h210l-89 -80h-210zM520 561v80h202l-88 -80h-114zM516 481h137l-89 -80h-137zM121 401l88 80h44v-80h-132zM676 395
l-93 -83v69l93 84v-70zM27 647l93 83v-69l-93 -84v70z" />
    <glyph glyph-name="tbar" unicode="&#x167;" horiz-adv-x="773" 
d="M280 481v187h-141l-89 80h584l88 -80h-349v-187h183v-80h-183v-267h-93v267h-183v80h183zM493 44l-93 83v235l93 -85v-233zM427 374h137l89 -80h-137zM147 641h106v-80h-106v80zM209 294l-88 80h132v-80h-44zM120 579l-93 83v70l93 -84v-69zM583 463l93 -83v-70l-93 84
v69zM381 107l89 -80h-78l-90 80h79zM424 641h322v-80h-234zM400 508v118l93 -84v-34h-93z" />
    <glyph glyph-name="Utilde" unicode="&#x168;" horiz-adv-x="705" 
d="M638 748v-466q0 -121 -80.5 -188t-205.5 -67q-123 0 -204 67t-81 188v359h93v-335q0 -92 54.5 -142t138.5 -50q85 0 138.5 50t53.5 142v442h93zM518 731v-424q0 -81 -46.5 -123.5t-120.5 -42.5q-71 0 -117.5 42.5t-46.5 122.5v342l93 83v-442q0 -92 73 -92q72 0 72 92
v359zM89 668l90 80h78l-89 -80h-79zM265 905q19 0 60 -13t61 -13q29 0 50 11v-38q-23 -14 -48 -14q-18 0 -59 14t-63 14q-24 0 -48 -6v39q20 6 47 6zM238 925l14 12q23 21 54 21q18 0 58.5 -13t62.5 -13q15 0 30 3l-14 -13q-21 -20 -55 -20q-18 0 -58.5 13t-62.5 13
q-14 0 -29 -3zM458 872v34l28 25v-34z" />
    <glyph glyph-name="utilde" unicode="&#x169;" horiz-adv-x="705" 
d="M638 648v-356q0 -122 -81.5 -193.5t-203.5 -71.5q-123 0 -204.5 71.5t-81.5 193.5v439l93 -83v-373q0 -92 53.5 -142t138.5 -50q84 0 138.5 50t54.5 142v456zM425 280v468h93v-473q0 -80 -46.5 -122.5t-117.5 -42.5q-74 0 -120.5 42.5t-46.5 123.5v365h93v-361
q0 -44 20 -64t52 -20q73 0 73 84zM168 748l90 -80h-79l-89 80h78zM386 918q-20 0 -61 -13t-60 -13q-25 0 -47 5v40q19 -6 48 -6q22 0 63 14t59 14q25 0 48 -15v-37q-23 11 -50 11zM427 865q-22 0 -62.5 -13t-58.5 -13q-31 0 -54 21l-14 12q15 -3 29 -3q22 0 62.5 13t58.5 13
q34 0 55 -20l14 -14q-13 4 -30 4zM458 891v34l28 -25v-35z" />
    <glyph glyph-name="Umacron" unicode="&#x16a;" horiz-adv-x="705" 
d="M638 748v-466q0 -121 -80.5 -188t-205.5 -67q-123 0 -204 67t-81 188v359h93v-335q0 -92 54.5 -142t138.5 -50q85 0 138.5 50t53.5 142v442h93zM518 731v-424q0 -81 -46.5 -123.5t-120.5 -42.5q-71 0 -117.5 42.5t-46.5 122.5v342l93 83v-442q0 -92 73 -92q72 0 72 92
v359zM89 668l90 80h78l-89 -80h-79zM490 949v-37h-218v37h218zM224 853l41 37h208l-41 -37h-208zM215 906l35 32v-34l-35 -31v33z" />
    <glyph glyph-name="umacron" unicode="&#x16b;" horiz-adv-x="705" 
d="M638 648v-356q0 -122 -81.5 -193.5t-203.5 -71.5q-123 0 -204.5 71.5t-81.5 193.5v439l93 -83v-373q0 -92 53.5 -142t138.5 -50q84 0 138.5 50t54.5 142v456zM425 280v468h93v-473q0 -80 -46.5 -122.5t-117.5 -42.5q-74 0 -120.5 42.5t-46.5 123.5v365h93v-361
q0 -44 20 -64t52 -20q73 0 73 84zM168 748l90 -80h-79l-89 80h78zM215 912v37h218v-37h-218zM272 853l-41 37h208l42 -37h-209zM455 904v34l35 -32v-33z" />
    <glyph glyph-name="Ubreve" unicode="&#x16c;" horiz-adv-x="705" 
d="M638 748v-466q0 -121 -80.5 -188t-205.5 -67q-123 0 -204 67t-81 188v359h93v-335q0 -92 54.5 -142t138.5 -50q85 0 138.5 50t53.5 142v442h93zM518 731v-424q0 -81 -46.5 -123.5t-120.5 -42.5q-71 0 -117.5 42.5t-46.5 122.5v342l93 83v-442q0 -92 73 -92q72 0 72 92
v359zM89 668l90 80h78l-89 -80h-79zM352 880q44 0 82 24l58 -20q-60 -57 -140 -57q-84 0 -143 56l61 21q38 -24 82 -24zM352 901q-35 0 -69 24v51q30 -17 69 -17q38 0 69 17v-51q-34 -24 -69 -24zM203 905v56l58 20v-56zM443 925v56l58 -20v-56z" />
    <glyph glyph-name="ubreve" unicode="&#x16d;" horiz-adv-x="705" 
d="M638 648v-356q0 -122 -81.5 -193.5t-203.5 -71.5q-123 0 -204.5 71.5t-81.5 193.5v439l93 -83v-373q0 -92 53.5 -142t138.5 -50q84 0 138.5 50t54.5 142v456zM425 280v468h93v-473q0 -80 -46.5 -122.5t-117.5 -42.5q-74 0 -120.5 42.5t-46.5 123.5v365h93v-361
q0 -44 20 -64t52 -20q73 0 73 84zM168 748l90 -80h-79l-89 80h78zM352 886q84 0 149 54v-53q-65 -55 -149 -55q-85 0 -149 53v54q62 -53 149 -53zM352 957q40 0 81 28l59 -21q-60 -57 -140 -57q-84 0 -143 56l62 22q42 -28 81 -28z" />
    <glyph glyph-name="Uring" unicode="&#x16e;" horiz-adv-x="705" 
d="M638 748v-466q0 -121 -80.5 -188t-205.5 -67q-123 0 -204 67t-81 188v359h93v-335q0 -92 54.5 -142t138.5 -50q85 0 138.5 50t53.5 142v442h93zM518 731v-424q0 -81 -46.5 -123.5t-120.5 -42.5q-71 0 -117.5 42.5t-46.5 122.5v342l93 83v-442q0 -92 73 -92q72 0 72 92
v359zM89 668l90 80h78l-89 -80h-79zM206 938q0 46 31.5 77.5t77.5 31.5t77.5 -31.5t31.5 -77.5t-31.5 -77.5t-77.5 -31.5t-77.5 31.5t-31.5 77.5zM255 938q0 -24 18 -42t42 -18t42 17.5t18 42.5t-18 42.5t-42 17.5t-42 -17.5t-18 -42.5zM447 938q0 72 -62 112h4
q47 0 78 -32.5t31 -79.5t-31 -79.5t-78 -32.5h-4q62 39 62 112z" />
    <glyph glyph-name="uring" unicode="&#x16f;" horiz-adv-x="705" 
d="M638 648v-356q0 -122 -81.5 -193.5t-203.5 -71.5q-123 0 -204.5 71.5t-81.5 193.5v439l93 -83v-373q0 -92 53.5 -142t138.5 -50q84 0 138.5 50t54.5 142v456zM425 280v468h93v-473q0 -80 -46.5 -122.5t-117.5 -42.5q-74 0 -120.5 42.5t-46.5 123.5v365h93v-361
q0 -44 20 -64t52 -20q73 0 73 84zM168 748l90 -80h-79l-89 80h78zM498 938q0 -46 -31.5 -77.5t-77.5 -31.5t-77.5 31.5t-31.5 77.5t31.5 77.5t77.5 31.5t77.5 -31.5t31.5 -77.5zM449 938q0 25 -18 42.5t-42 17.5t-42 -17.5t-18 -42.5t18 -42.5t42 -17.5t42 18t18 42z
M257 938q0 -73 62 -112h-4q-47 0 -78 32.5t-31 79.5t31 79.5t78 32.5h4q-62 -40 -62 -112z" />
    <glyph glyph-name="Uhungarumlaut" unicode="&#x170;" horiz-adv-x="705" 
d="M638 748v-466q0 -121 -80.5 -188t-205.5 -67q-123 0 -204 67t-81 188v359h93v-335q0 -92 54.5 -142t138.5 -50q85 0 138.5 50t53.5 142v442h93zM518 731v-424q0 -81 -46.5 -123.5t-120.5 -42.5q-71 0 -117.5 42.5t-46.5 122.5v342l93 83v-442q0 -92 73 -92q72 0 72 92
v359zM89 668l90 80h78l-89 -80h-79zM179 864l18 116l59 -20l-19 -116zM361 864l19 116l58 -20l-19 -116zM277 851l-17 -6l19 112l52 18zM459 851l-17 -6l19 112l52 18zM214 997l57 20l57 -20l-57 -19zM396 997l57 20l57 -20l-57 -19z" />
    <glyph glyph-name="uhungarumlaut" unicode="&#x171;" horiz-adv-x="705" 
d="M638 648v-356q0 -122 -81.5 -193.5t-203.5 -71.5q-123 0 -204.5 71.5t-81.5 193.5v439l93 -83v-373q0 -92 53.5 -142t138.5 -50q84 0 138.5 50t54.5 142v456zM425 280v468h93v-473q0 -80 -46.5 -122.5t-117.5 -42.5q-74 0 -120.5 42.5t-46.5 123.5v365h93v-361
q0 -44 20 -64t52 -20q73 0 73 84zM168 748l90 -80h-79l-89 80h78zM181 874l18 118l58 20l-20 -119zM363 874l18 118l58 20l-20 -119zM259 892l21 122l59 -20l-49 -113zM441 892l21 122l59 -20l-49 -113zM221 848l-28 9l53 18l27 -9zM403 848l-28 9l53 18l27 -9z" />
    <glyph glyph-name="Uogonek" unicode="&#x172;" horiz-adv-x="705" 
d="M518 731v-424q0 -81 -46.5 -123.5t-120.5 -42.5q-71 0 -117.5 42.5t-46.5 122.5v342l93 83v-442q0 -92 73 -92q72 0 72 92v359zM89 668l90 80h78l-89 -80h-79zM501 -56h-35l-29 26h35zM410 31q-57 -9 -57 -51q0 -19 11.5 -29t26.5 -10q22 0 34 13l20 -18q-24 -22 -55 -22
t-51.5 18t-20.5 50q0 23 10 46q-110 5 -185.5 71t-75.5 183v359h93v-335q0 -92 54.5 -142t138.5 -50q85 0 138.5 50t53.5 142v442h93v-466q0 -109 -63.5 -172.5t-164.5 -78.5zM265 9q26 -5 35 -6q-2 -7 -2 -21q0 -40 26.5 -64t65.5 -24q44 0 72 30h45q-16 -27 -47.5 -44.5
t-71.5 -17.5q-55 0 -90 32.5t-35 85.5q0 21 2 29z" />
    <glyph glyph-name="uogonek" unicode="&#x173;" horiz-adv-x="705" 
d="M425 280v468h93v-473q0 -80 -46.5 -122.5t-117.5 -42.5q-74 0 -120.5 42.5t-46.5 123.5v365h93v-361q0 -44 20 -64t52 -20q73 0 73 84zM168 748l90 -80h-79l-89 80h78zM501 -56h-35l-29 26h35zM334 27q-117 7 -192 77t-75 188v439l93 -83v-373q0 -92 53.5 -142t138.5 -50
q84 0 138.5 50t54.5 142v456l93 -83v-356q0 -109 -65 -177.5t-166 -83.5q-54 -8 -54 -51q0 -19 11.5 -29t26.5 -10q22 0 34 13l20 -18q-24 -22 -55 -22t-51.5 18t-20.5 50q0 23 16 45zM266 9l34 -6q-2 -6 -2 -21q0 -40 26.5 -64t65.5 -24q44 0 72 30h45q-16 -27 -47.5 -44.5
t-71.5 -17.5q-55 0 -90 32.5t-35 85.5q0 16 3 29z" />
    <glyph glyph-name="Wcircumflex" unicode="&#x174;" horiz-adv-x="1148" 
d="M628 748l226 -489l177 382h99l-276 -595l-325 702h99zM507 517l-89 -192l-49 106l138 298l326 -702h-100zM191 748l227 -490l88 192l50 -107l-138 -297l-325 702h98zM71 728l326 -701h-100l-285 615zM854 326l-49 105l140 304l59 -85zM971 748h100l55 -80h-100zM654 920
l-80 27l-80 -27l-56 19l136 47l136 -47zM505 843v57l58 20v-57zM585 863v57l58 -20v-57zM425 863v56l58 -20v-56zM665 843v56l58 20v-56z" />
    <glyph glyph-name="wcircumflex" unicode="&#x175;" horiz-adv-x="1148" 
d="M71 728l218 -469l226 489h98l-325 -702l-276 596zM636 517l-226 -490h-100l326 702l137 -297l-49 -106zM636 450l89 -192l220 477l59 -85l-280 -604l-137 297zM846 27h-100l285 614h99zM93 748h98l147 -317l-49 -105zM971 748h100l55 -80h-100zM425 935l149 51l149 -51
v-54l-149 51l-149 -51v54zM574 867l-80 -27l-61 20l141 49l140 -49l-60 -20z" />
    <glyph glyph-name="Ycircumflex" unicode="&#x176;" horiz-adv-x="698" 
d="M199 748l217 -325l145 218h103l-199 -299v-215l-93 -83v291l-275 413h102zM252 27v286l-232 347l53 76l272 -408v-301h-93zM416 471l-51 76l122 184l52 -75zM672 668h-107l-55 80h107zM429 920l-80 27l-80 -27l-56 19l136 47l136 -47zM280 843v57l58 20v-57zM360 863v57
l58 -20v-57zM200 863v56l58 -20v-56zM440 843v56l58 20v-56z" />
    <glyph glyph-name="ycircumflex" unicode="&#x177;" horiz-adv-x="698" 
d="M136 641l146 -218l216 325h102l-274 -413v-291l-93 83v215l-200 299h103zM446 313v-286h-93v301l271 408l53 -76zM158 656l53 75l122 -184l-51 -76zM133 668h-107l55 80h107zM200 935l149 51l149 -51v-54l-149 51l-149 -51v54zM349 867l-80 -27l-61 20l141 49l140 -49
l-60 -20z" />
    <glyph glyph-name="Ydieresis" unicode="&#x178;" horiz-adv-x="698" 
d="M199 748l217 -325l145 218h103l-199 -299v-215l-93 -83v291l-275 413h102zM252 27v286l-232 347l53 76l272 -408v-301h-93zM416 471l-51 76l122 184l52 -75zM672 668h-107l-55 80h107zM280 843v57l58 20v-57zM200 863v56l58 -20v-56zM360 863v56l58 -20v-56zM440 843v56
l58 20v-56zM314 935l-45 -15l-57 19l46 16zM383 935l57 20l45 -16l-56 -19z" />
    <glyph glyph-name="Zacute" unicode="&#x179;" horiz-adv-x="738" 
d="M691 27h-555v80l555 559v-123l-433 -436h433v-80zM531 668h-371l-90 80h558l55 -50l-558 -562l-64 58zM404 214h175l88 -80h-342zM385 561h-217v80h297zM141 648v-69l-93 83v69zM109 114v-70l-62 55v70zM300 844v56l218 74v-56zM505 994l-216 -74l-56 19l216 74zM220 863
v56l58 -20v-56z" />
    <glyph glyph-name="zacute" unicode="&#x17a;" horiz-adv-x="738" 
d="M47 668v80h555v-80l-555 -559v123l433 436h-433zM677 581l-470 -474h371l89 -80h-557l-55 50l557 561zM159 561l-88 80h342l-79 -80h-175zM273 134l79 80h218v-80h-297zM597 127v69l93 -83v-69zM629 661v70l62 -55v-70zM220 878v56l218 75v-56zM233 859l216 74l56 -19
l-216 -74zM460 953v56l58 -20v-56z" />
    <glyph glyph-name="Zdotaccent" unicode="&#x17b;" horiz-adv-x="738" 
d="M691 27h-555v80l555 559v-123l-433 -436h433v-80zM531 668h-371l-90 80h558l55 -50l-558 -562l-64 58zM404 214h175l88 -80h-342zM385 561h-217v80h297zM141 648v-69l-93 83v69zM109 114v-70l-62 55v70zM300 863v56l58 -20v-56zM380 843v56l58 20v-56zM313 939l56 19
l56 -19l-56 -19z" />
    <glyph glyph-name="zdotaccent" unicode="&#x17c;" horiz-adv-x="738" 
d="M47 668v80h555v-80l-555 -559v123l433 436h-433zM677 581l-470 -474h371l89 -80h-557l-55 50l557 561zM159 561l-88 80h342l-79 -80h-175zM273 134l79 80h218v-80h-297zM597 127v69l93 -83v-69zM629 661v70l62 -55v-70zM300 878v56l58 20v-56zM380 898v56l58 -20v-56z
M313 859l56 19l56 -19l-56 -19z" />
    <glyph glyph-name="Zcaron" unicode="&#x17d;" horiz-adv-x="738" 
d="M691 27h-555v80l555 559v-123l-433 -436h433v-80zM531 668h-371l-90 80h558l55 -50l-558 -562l-64 58zM404 214h175l88 -80h-342zM385 561h-217v80h297zM141 648v-69l-93 83v69zM109 114v-70l-62 55v70zM369 878l80 27l56 -19l-136 -47l-136 47l56 19zM300 925v56l58 -20
v-56zM380 905v56l58 20v-56zM220 905v56l58 20v-56zM460 925v56l58 -20v-56z" />
    <glyph glyph-name="zcaron" unicode="&#x17e;" horiz-adv-x="738" 
d="M47 668v80h555v-80l-555 -559v123l433 436h-433zM677 581l-470 -474h371l89 -80h-557l-55 50l557 561zM159 561l-88 80h342l-79 -80h-175zM273 134l79 80h218v-80h-297zM597 127v69l93 -83v-69zM629 661v70l62 -55v-70zM369 839l-149 51v54l149 -51l149 51v-54zM289 985
l80 -27l80 27l60 -20l-140 -49l-141 49z" />
    <glyph glyph-name="florin" unicode="&#x192;" horiz-adv-x="644" 
d="M142 -80h-100v80h95q31 0 53.5 22t22.5 51v199l93 84v-269q0 -81 -44.5 -124t-119.5 -43zM65 294l89 80h130l-89 -80h-130zM262 602l51 46q-7 -25 -7 -58v-82h-92q6 56 48 94zM42 381l93 83v-70l-93 -83v70zM574 374l-89 -80h-32v80h121zM132 27h-66l88 80h32v-32
q0 -21 -15.5 -34.5t-38.5 -13.5zM453 561v32q0 21 15.5 34.5t38.5 13.5h66l-88 -80h-32zM597 401h-171v-209q0 -83 -49 -126l-52 -46q8 29 8 58v323h-171v80h171v100q0 81 44.5 124t119.5 43h100v-80h-95q-31 0 -53.5 -22t-22.5 -51v-114h171v-80z" />
    <glyph glyph-name="AEacute" unicode="&#x1fc;" horiz-adv-x="1157" 
d="M531 360v342l-429 -583h-110l462 629h508v-80h-338v-187h338v-80h-338v-187h338v-80h-431v147h-131l58 79h73zM504 469l-158 -215h158v-80h-217l-98 -132l-59 68l374 508v-149zM642 27l-89 80h418l89 -80h-418zM763 561l-90 80h298l88 -80h-296zM763 294l-90 80h298
l88 -80h-296zM651 508v116l93 -83v-33h-93zM744 274v-33h-93v116zM57 27l-56 65h107l55 -65h-106zM989 465l93 -85v-69l-93 83v71zM989 197l93 -83v-70l-93 83v70zM989 732l93 -85v-69l-93 83v71zM530 844v56l218 74v-56zM735 994l-216 -74l-56 19l216 74zM450 863v56
l58 -20v-56z" />
    <glyph glyph-name="aeacute" unicode="&#x1fd;" horiz-adv-x="1157" 
d="M744 561v-187h338v-80h-338v-187h338v-80h-431v147h-364l-109 -147h-108l434 591v-149l-158 -215h305v387h431v-80h-338zM531 380v322l-486 -662l-59 70l468 638h517l88 -80h-435v-372zM1059 401h-288v80h200zM771 214h199l89 -80h-288v80zM512 360l88 -79h-200l58 79h54
zM624 43l-93 84v20h93v-104zM450 878v56l218 75v-56zM463 859l216 74l56 -19l-216 -74zM690 953v56l58 -20v-56z" />
    <glyph glyph-name="Oslashacute" unicode="&#x1fe;" horiz-adv-x="881" 
d="M180 106l-80 -94l-57 66l81 93q-65 96 -65 227q0 153 89.5 249t215.5 102q-94 -40 -153 -130t-59 -215q0 -89 37 -158l296 344q-35 19 -79 24q42 21 85 21q62 0 112 -39l-363 -421q67 -62 149 -62q90 0 155 67.5t65 183.5q0 11 -1 17l79 91q15 -46 15 -101
q0 -157 -91 -250.5t-222 -93.5q-118 0 -209 79zM280 176l364 421q-69 65 -153 65q-90 0 -154.5 -68t-64.5 -183v-23l-77 -90q-16 51 -16 106q0 157 91.5 250.5t224.5 93.5q123 0 209 -81l82 95l55 -65l-81 -95q62 -92 62 -225q0 -153 -88.5 -248.5t-215.5 -103.5
q95 40 153 131.5t58 214.5q0 84 -35 155l-296 -343q33 -18 77 -22q-39 -21 -85 -21q-60 0 -110 36zM622 749l23 26h112l-59 -69q-40 28 -76 43zM261 24l-21 -24h-112l58 67q33 -26 75 -43zM371 844v56l218 74v-56zM576 994l-216 -74l-56 19l216 74zM291 863v56l58 -20v-56z
" />
    <glyph glyph-name="oslashacute" unicode="&#x1ff;" horiz-adv-x="881" 
d="M571 690l64 74l56 -66l-59 -68q70 -91 70 -226q0 -114 -61.5 -189t-149.5 -75q-42 0 -77 16l5 7q83 13 136.5 80t53.5 168q0 85 -38 147l-254 -294q-18 44 -18 101v9l214 248q-53 40 -124 40q-99 0 -168 -83.5t-69 -207.5q0 -130 64 -224l-48 -55h-113l64 73
q-60 91 -60 212q0 160 94 265.5t236 105.5q103 0 182 -58zM193 76l58 67q-72 91 -72 228q0 114 61.5 189t149.5 75q41 0 79 -19l-3 -4q-84 -12 -139 -79t-55 -169q0 -87 40 -151l253 294q17 -45 17 -97q0 -2 -0.5 -6.5t-0.5 -7.5l-211 -245q55 -38 121 -38q100 0 169 83.5
t69 207.5q0 125 -62 220l51 59h111l-65 -76q58 -90 58 -209q0 -86 -27.5 -157.5t-73.5 -117.5t-104.5 -71t-121.5 -25q-102 0 -182 57l-63 -74zM110 0l-56 65h111l55 -65h-110zM720 710l-56 65h111l55 -65h-110zM579 744l-16 -18q-27 16 -56 28q33 -1 72 -10zM374 21
q-33 0 -70 8l16 18q28 -16 54 -26zM291 878v56l218 75v-56zM304 859l216 74l56 -19l-216 -74zM531 953v56l58 -20v-56z" />
    <glyph glyph-name="Scommaaccent" unicode="&#x218;" horiz-adv-x="653" 
d="M258 113q54 0 81 25t27 55q0 51 -72 99l-81 54q-142 94 -142 218q0 89 60.5 136.5t148.5 49.5q-53 -24 -84.5 -67.5t-31.5 -100.5q0 -103 95 -167l101 -67q102 -69 102 -158q0 -73 -60.5 -118t-147.5 -45q-81 0 -141 39.5t-82 102.5l76 69q12 -58 53 -91.5t98 -33.5z
M395 662q-54 0 -81 -25.5t-27 -57.5q0 -51 73 -99l101 -67q57 -38 89 -84t32 -111q0 -82 -62.5 -136.5t-146.5 -56.5q53 24 84.5 67t31.5 98q0 105 -105 174l-101 67q-92 62 -92 151q0 75 60 120.5t148 45.5q81 0 140.5 -39.5t81.5 -103.5l-76 -68q-12 58 -52 91.5t-98 33.5
zM395 635q44 0 78.5 -27.5t45.5 -76.5h-98q-18 64 -72 96q18 8 46 8zM258 140q-43 0 -78 27.5t-46 76.5h97q20 -64 72 -97q-19 -7 -45 -7zM267 -292l-10 40q38 3 38 40v22h-47v90h96v-109q0 -45 -19 -62.5t-58 -20.5zM385 -222l-21 -18q2 16 2 28v118l45 40v-111
q0 -35 -26 -57zM267 -78l42 37h81l-41 -37h-82z" />
    <glyph glyph-name="scommaaccent" unicode="&#x219;" horiz-adv-x="660" 
d="M376 113q51 0 85 29.5t34 77.5q0 75 -91 135l-127 83q-42 28 -63.5 54.5t-21.5 62.5q0 37 26 58.5t66 21.5q7 0 10 -1q-9 -18 -9 -44q0 -59 69 -104l126 -84q108 -73 108 -183q0 -86 -59.5 -139t-155.5 -53q-85 0 -142.5 39t-78.5 99l75 67q14 -56 52.5 -87.5t96.5 -31.5
zM375 185q0 59 -66 102l-130 87q-107 70 -107 182q0 89 64.5 140.5t150.5 51.5q85 0 142.5 -39t78.5 -99l-75 -66q-14 56 -52.5 87t-96.5 31q-51 0 -85 -29.5t-34 -77.5q0 -73 90 -134l125 -82q44 -29 66 -56t22 -63q0 -37 -26 -58.5t-66 -21.5h-11q10 20 10 45zM626 619
h-92q-37 90 -125 131q67 -1 129.5 -36.5t87.5 -94.5zM34 156h92q36 -92 125 -131q-68 1 -130 36t-87 95zM52 183l68 61h78l-68 -61h-78zM608 592l-68 -61h-78l68 61h78zM334 -292l-9 40q37 3 37 40v22h-47v90h96v-110q0 -45 -19 -62t-58 -20zM248 -137v83l45 -40v-83z
M309 -78l-40 37h81l41 -37h-82zM311 -231h-17l10 -40l-38 34l-9 35h31l12 -10h35q0 -19 -24 -19z" />
    <glyph glyph-name="uni021A" unicode="&#x21a;" horiz-adv-x="749" 
d="M622 668h-141v-541l-93 -83v624h-349l88 80h584zM508 641h106v-80h-106v80zM734 662l-93 -83v69l93 84v-70zM268 27v514l93 84v-598h-93zM250 561h-235v80h323zM312 -292l-10 40q38 3 38 40v22h-47v90h96v-109q0 -45 -19 -62.5t-58 -20.5zM430 -222l-21 -18q2 16 2 28
v118l45 40v-111q0 -35 -26 -57zM312 -78l42 37h81l-41 -37h-82z" />
    <glyph glyph-name="uni021B" unicode="&#x21b;" horiz-adv-x="749" 
d="M361 134h-93v534h-141l-89 80h584l88 -80h-349v-534zM481 44l-93 83v498l93 -84v-497zM411 641h323v-80h-235zM135 561v80h106v-80h-106zM108 579l-93 83v69l93 -83v-69zM369 107l89 -80h-78l-90 80h79zM379 -292l-9 40q37 3 37 40v22h-47v90h96v-110q0 -45 -19 -62
t-58 -20zM293 -137v83l45 -40v-83zM354 -78l-40 37h81l41 -37h-82zM356 -231h-17l10 -40l-38 34l-9 35h31l12 -10h35q0 -19 -24 -19z" />
    <glyph glyph-name="dotlessj" unicode="&#x237;" horiz-adv-x="673" 
d="M513 252v416h-278v80h371v-496q0 -100 -61 -162.5t-160 -64.5q61 29 94.5 88t33.5 139zM393 261v279l93 83v-371q0 -103 -58.5 -164t-160.5 -61t-168.5 59t-69.5 157l77 69q5 -108 50 -153t110 -45q58 0 92.5 38t34.5 109zM375 561h-238l89 80h239zM323 156
q-24 -15 -57 -15q-54 0 -92 40t-41 140h96q4 -127 94 -165zM115 578v70l93 83v-70z" />
    <glyph glyph-name="circumflex" unicode="&#x2c6;" horiz-adv-x="500" 
d="M330 920l-80 27l-80 -27l-56 19l136 47l136 -47zM181 843v57l58 20v-57zM261 863v57l58 -20v-57zM101 863v56l58 -20v-56zM341 843v56l58 20v-56z" />
    <glyph glyph-name="caron" unicode="&#x2c7;" horiz-adv-x="500" 
d="M250 878l80 27l56 -19l-136 -47l-136 47l56 19zM181 925v56l58 -20v-56zM261 905v56l58 20v-56zM101 905v56l58 20v-56zM341 925v56l58 -20v-56z" />
    <glyph glyph-name="breve" unicode="&#x2d8;" horiz-adv-x="500" 
d="M250 880q44 0 82 24l58 -20q-60 -57 -140 -57q-84 0 -143 56l61 21q38 -24 82 -24zM250 901q-35 0 -69 24v51q30 -17 69 -17q38 0 69 17v-51q-34 -24 -69 -24zM101 905v56l58 20v-56zM341 925v56l58 -20v-56z" />
    <glyph glyph-name="dotaccent" unicode="&#x2d9;" horiz-adv-x="500" 
d="M181 863v56l58 -20v-56zM261 843v56l58 20v-56zM194 939l56 19l56 -19l-56 -19z" />
    <glyph glyph-name="ring" unicode="&#x2da;" horiz-adv-x="500" 
d="M104 938q0 46 31.5 77.5t77.5 31.5t77.5 -31.5t31.5 -77.5t-31.5 -77.5t-77.5 -31.5t-77.5 31.5t-31.5 77.5zM153 938q0 -24 18 -42t42 -18t42 17.5t18 42.5t-18 42.5t-42 17.5t-42 -17.5t-18 -42.5zM345 938q0 72 -62 112h4q47 0 78 -32.5t31 -79.5t-31 -79.5t-78 -32.5
h-4q62 39 62 112z" />
    <glyph glyph-name="ogonek" unicode="&#x2db;" horiz-adv-x="500" 
d="M159 -18q0 -40 26.5 -64t65.5 -24q44 0 72 30h45q-16 -27 -47.5 -44.5t-71.5 -17.5q-55 0 -90 32.5t-35 85.5q0 14 1 20h35q-1 -6 -1 -18zM214 -20q0 -19 11.5 -29t26.5 -10q22 0 34 13l20 -18q-24 -22 -55 -22t-51.5 18t-20.5 50q0 13 2 18h38q-5 -8 -5 -20zM362 -56
h-35l-29 26h35z" />
    <glyph glyph-name="tilde" unicode="&#x2dc;" horiz-adv-x="500" 
d="M163 905q19 0 60 -13t61 -13q29 0 50 11v-38q-23 -14 -48 -14q-18 0 -59 14t-63 14q-24 0 -48 -6v39q20 6 47 6zM136 925l14 12q22 21 54 21q18 0 58.5 -13t62.5 -13q15 0 30 3l-14 -13q-21 -20 -55 -20q-18 0 -58.5 13t-62.5 13q-14 0 -29 -3zM356 872v34l28 25v-34z
" />
    <glyph glyph-name="hungarumlaut" unicode="&#x2dd;" horiz-adv-x="500" 
d="M77 864l18 116l59 -20l-19 -116zM259 864l19 116l58 -20l-19 -116zM175 851l-17 -6l19 112l52 18zM357 851l-17 -6l19 112l52 18zM112 997l57 20l57 -20l-57 -19zM294 997l57 20l57 -20l-57 -19z" />
    <glyph glyph-name="commaaccent" unicode="&#x326;" horiz-adv-x="500" 
d="M254 -292l-9 40q37 3 37 40v22h-47v90h96v-110q0 -45 -19 -62t-58 -20zM168 -137v83l45 -40v-83zM229 -78l-40 37h81l41 -37h-82zM231 -231h-17l10 -40l-38 34l-9 35h31l12 -10h35q0 -19 -24 -19z" />
    <glyph glyph-name="pi" unicode="&#x3c0;" horiz-adv-x="837" 
d="M810 668h-120v-534h-93v534h-546l88 80h671v-80zM147 27v534h-120v80h520l-88 -80h-219v-534h-93zM477 540l93 85v-497l-93 -84v496zM267 44v490h93v-407zM668 107l-90 -80h-78l89 80h79zM717 641h69l-69 -63v63z" />
    <glyph glyph-name="Wgrave" unicode="&#x1e80;" horiz-adv-x="1148" 
d="M628 748l226 -489l177 382h99l-276 -595l-325 702h99zM507 517l-89 -192l-49 106l138 298l326 -702h-100zM191 748l227 -490l88 192l50 -107l-138 -297l-325 702h98zM71 728l326 -701h-100l-285 615zM854 326l-49 105l140 304l59 -85zM971 748h100l55 -80h-100zM425 918
v56l218 -74v-56zM654 920l-216 74l56 19l216 -74zM665 843v56l58 20v-56z" />
    <glyph glyph-name="wgrave" unicode="&#x1e81;" horiz-adv-x="1148" 
d="M71 728l218 -469l226 489h98l-325 -702l-276 596zM636 517l-226 -490h-100l326 702l137 -297l-49 -106zM636 450l89 -192l220 477l59 -85l-280 -604l-137 297zM846 27h-100l285 614h99zM93 748h98l147 -317l-49 -105zM971 748h100l55 -80h-100zM505 953v56l218 -75v-56z
M438 914l56 19l216 -74l-56 -19zM425 933v56l58 20v-56z" />
    <glyph glyph-name="Wacute" unicode="&#x1e82;" horiz-adv-x="1148" 
d="M628 748l226 -489l177 382h99l-276 -595l-325 702h99zM507 517l-89 -192l-49 106l138 298l326 -702h-100zM191 748l227 -490l88 192l50 -107l-138 -297l-325 702h98zM71 728l326 -701h-100l-285 615zM854 326l-49 105l140 304l59 -85zM971 748h100l55 -80h-100zM505 844
v56l218 74v-56zM710 994l-216 -74l-56 19l216 74zM425 863v56l58 -20v-56z" />
    <glyph glyph-name="wacute" unicode="&#x1e83;" horiz-adv-x="1148" 
d="M71 728l218 -469l226 489h98l-325 -702l-276 596zM636 517l-226 -490h-100l326 702l137 -297l-49 -106zM636 450l89 -192l220 477l59 -85l-280 -604l-137 297zM846 27h-100l285 614h99zM93 748h98l147 -317l-49 -105zM971 748h100l55 -80h-100zM425 878v56l218 75v-56z
M438 859l216 74l56 -19l-216 -74zM665 953v56l58 -20v-56z" />
    <glyph glyph-name="Wdieresis" unicode="&#x1e84;" horiz-adv-x="1148" 
d="M628 748l226 -489l177 382h99l-276 -595l-325 702h99zM507 517l-89 -192l-49 106l138 298l326 -702h-100zM191 748l227 -490l88 192l50 -107l-138 -297l-325 702h98zM71 728l326 -701h-100l-285 615zM854 326l-49 105l140 304l59 -85zM971 748h100l55 -80h-100zM505 843
v57l58 20v-57zM425 863v56l58 -20v-56zM585 863v56l58 -20v-56zM665 843v56l58 20v-56zM539 935l-45 -15l-57 19l46 16zM608 935l57 20l45 -16l-56 -19z" />
    <glyph glyph-name="wdieresis" unicode="&#x1e85;" horiz-adv-x="1148" 
d="M71 728l218 -469l226 489h98l-325 -702l-276 596zM636 517l-226 -490h-100l326 702l137 -297l-49 -106zM636 450l89 -192l220 477l59 -85l-280 -604l-137 297zM846 27h-100l285 614h99zM93 748h98l147 -317l-49 -105zM971 748h100l55 -80h-100zM505 894v56l58 -20v-56z
M425 874v56l58 20v-56zM585 874v56l58 20v-56zM665 894v56l58 -20v-56zM608 858l46 16l56 -19l-45 -16zM539 858l-56 -19l-46 16l57 19z" />
    <glyph glyph-name="Ygrave" unicode="&#x1ef2;" horiz-adv-x="698" 
d="M199 748l217 -325l145 218h103l-199 -299v-215l-93 -83v291l-275 413h102zM252 27v286l-232 347l53 76l272 -408v-301h-93zM416 471l-51 76l122 184l52 -75zM672 668h-107l-55 80h107zM200 918v56l218 -74v-56zM429 920l-216 74l56 19l216 -74zM440 843v56l58 20v-56z
" />
    <glyph glyph-name="ygrave" unicode="&#x1ef3;" horiz-adv-x="698" 
d="M136 641l146 -218l216 325h102l-274 -413v-291l-93 83v215l-200 299h103zM446 313v-286h-93v301l271 408l53 -76zM158 656l53 75l122 -184l-51 -76zM133 668h-107l55 80h107zM280 953v56l218 -75v-56zM213 914l56 19l216 -74l-56 -19zM200 933v56l58 20v-56z" />
    <glyph glyph-name="endash" unicode="&#x2013;" horiz-adv-x="827" 
d="M172 480h580l-89 -80h-491v80zM164 373h491v-80h-580zM52 380l93 83v-70l-93 -83v70zM775 393l-93 -83v70l93 83v-70z" />
    <glyph glyph-name="emdash" unicode="&#x2014;" horiz-adv-x="1227" 
d="M172 480h980l-89 -80h-891v80zM164 373h891v-80h-980zM52 380l93 83v-70l-93 -83v70zM1175 393l-93 -83v70l93 83v-70z" />
    <glyph glyph-name="quoteleft" unicode="&#x2018;" horiz-adv-x="323" 
d="M251 749l10 -40q-37 -3 -37 -42v-25h44v-84h-93v109q0 45 18.5 62t57.5 20zM150 551l-95 -85v94q0 45 23 65l73 66q-1 -8 -1 -24v-116zM156 451h-79l91 82h79z" />
    <glyph glyph-name="quoteright" unicode="&#x2019;" horiz-adv-x="323" 
d="M192 453l-10 40q37 3 37 42v25h-44v84h93v-109q0 -45 -18.5 -62t-57.5 -20zM55 736l95 -85v-77l-95 85v77zM168 669l-91 82h79l91 -82h-79zM167 517h-17l10 -40l-86 77l-10 40h27l66 -59h35q0 -18 -25 -18z" />
    <glyph glyph-name="quotesinglbase" unicode="&#x201a;" horiz-adv-x="323" 
d="M192 -82l-10 40q37 3 37 42v25h-44v84h93v-109q0 -45 -18.5 -62t-57.5 -20zM55 201l95 -85v-77l-95 85v77zM168 134l-91 82h79l91 -82h-79zM167 -18h-17l10 -40l-85 76l-1 -1l-10 42h27l66 -59h35q0 -18 -25 -18z" />
    <glyph glyph-name="quotedblleft" unicode="&#x201c;" horiz-adv-x="512" 
d="M251 749l10 -40q-37 -3 -37 -42v-25h44v-84h-93v109q0 45 18.5 62t57.5 20zM440 749l10 -40q-37 -3 -37 -42v-25h44v-84h-93v109q0 45 18.5 62t57.5 20zM150 551l-95 -85v94q0 45 23 65l73 66q-1 -8 -1 -24v-116zM244 496l49 44v108l47 43q-1 -8 -1 -24v-116l-95 -85v30z
M156 451h-79l91 82h79zM345 451h-79l91 82h79z" />
    <glyph glyph-name="quotedblright" unicode="&#x201d;" horiz-adv-x="512" 
d="M192 453l-10 40q37 3 37 42v25h-44v84h93v-109q0 -45 -18.5 -62t-57.5 -20zM381 453l-10 40q37 3 37 42v25h-44v84h93v-109q0 -45 -18.5 -62t-57.5 -20zM55 736l95 -85v-77l-95 85v77zM168 669l-91 82h79l91 -82h-79zM357 669l-91 82h79l91 -82h-79zM167 517h-17l10 -40
l-86 76l-10 41h27l66 -59h35q0 -18 -25 -18zM293 662l-49 44v30l95 -85v-77l-46 41v47zM356 517h-17l10 -40l-56 50v55l53 -47h35q0 -18 -25 -18z" />
    <glyph glyph-name="quotedblbase" unicode="&#x201e;" horiz-adv-x="512" 
d="M192 -82l-10 40q37 3 37 42v25h-44v84h93v-109q0 -45 -18.5 -62t-57.5 -20zM381 -82l-10 40q37 3 37 42v25h-44v84h93v-109q0 -45 -18.5 -62t-57.5 -20zM55 201l95 -85v-77l-95 85v77zM168 134l-91 82h79l91 -82h-79zM357 134l-91 82h79l91 -82h-79zM167 -18h-17l10 -40
l-86 77l-10 40h27l66 -59h35q0 -18 -25 -18zM293 127l-49 44v30l95 -85v-77l-46 41v47zM356 -18h-17l10 -40l-56 50v55l53 -47h35q0 -18 -25 -18z" />
    <glyph glyph-name="dagger" unicode="&#x2020;" horiz-adv-x="757" 
d="M157 616h235v239h93v-239h235v-80h-235v-516l-93 -83v599h-235v80zM272 -80v486l93 84v-570h-93zM60 429l89 80h195l-89 -80h-195zM272 643v112l93 83v-195h-93zM697 509l-89 -80h-96v80h185zM37 516l93 83v-70l-93 -83v70z" />
    <glyph glyph-name="daggerdbl" unicode="&#x2021;" horiz-adv-x="797" 
d="M57 242h235v164l93 84v-248h235v-80h-235v-242h-93v242h-235v80zM177 616h235v239h93v-239h235v-80h-235v-165l-93 -84v249h-235v80zM80 429l89 80h195l-89 -80h-195zM522 349h195l-89 -80h-196zM505 20l-93 -83v198h93v-115zM292 643v112l93 83v-195h-93zM717 509
l-89 -80h-96v80h185zM79 269l90 80h96v-80h-186zM57 516l93 83v-70l-93 -83v70zM740 262l-93 -83v70l93 83v-70z" />
    <glyph glyph-name="bullet" unicode="&#x2022;" horiz-adv-x="567" 
d="M297 397q0 115 -70 115q-32 0 -54.5 -32.5t-22.5 -89.5q0 -142 95 -196h-13q-67 0 -121 53.5t-54 149.5q0 98 49 149t123 51q66 0 113.5 -49.5t47.5 -143.5q0 -50 -15.5 -72.5t-34.5 -22.5q-43 0 -43 88zM270 397q0 -115 70 -115q32 0 54.5 32.5t22.5 89.5q0 141 -95 196
h12q68 0 122 -53.5t54 -149.5q0 -98 -48.5 -149t-122.5 -51q-66 0 -114 49.5t-48 143.5q0 51 15 73t35 22q43 0 43 -88z" />
    <glyph glyph-name="ellipsis" unicode="&#x2026;" horiz-adv-x="701" 
d="M268 25h-93v84h93v-84zM457 25h-93v84h93v-84zM646 25h-93v84h93v-84zM55 200l95 -84v-77l-95 87v74zM76 216h73l96 -82h-77zM265 216h73l96 -82h-77zM454 216h73l96 -82h-77zM293 127l-49 42v31l95 -84v-77l-46 41v47zM482 127l-49 42v31l95 -84v-77l-46 41v47z" />
    <glyph glyph-name="perthousand" unicode="&#x2030;" horiz-adv-x="1542" 
d="M167 39l-58 67l545 630l57 -67zM1202 27q-84 0 -145 59t-61 156q0 99 59.5 155.5t144.5 58.5q-54 -28 -82.5 -81t-28.5 -116q0 -71 34.5 -109t79.5 -38q48 0 77 34.5t29 93.5q0 54 -29 97q11 4 26 4q32 0 59 -29.5t27 -89.5q0 -77 -49.5 -136t-140.5 -59zM729 27
q-84 0 -145 59t-61 156q0 99 59.5 155.5t144.5 58.5q-54 -28 -82.5 -81t-28.5 -116q0 -71 34.5 -109t79.5 -38q48 0 77 34.5t29 93.5q0 54 -29 97q11 4 26 4q32 0 59 -29.5t27 -89.5q0 -77 -49.5 -136t-140.5 -59zM1306 453q84 0 145 -59t61 -156q0 -99 -60 -155.5
t-144 -58.5q54 28 82.5 81t28.5 116q0 71 -34.5 109t-79.5 38q-48 0 -77 -34.5t-29 -93.5q0 -57 29 -98q-12 -3 -26 -3q-32 0 -59 29.5t-27 89.5q0 77 49.5 136t140.5 59zM30 537q0 99 59.5 155.5t144.5 58.5q-54 -28 -82.5 -81.5t-28.5 -115.5q0 -71 34.5 -109t79.5 -38
q48 0 77 34.5t29 93.5q0 53 -29 97q11 4 26 4q32 0 59 -29.5t27 -89.5v-2l-167 -193h-23q-84 0 -145 59t-61 156zM496 243l-187 -216h-116l543 627h114l-152 -176q-86 -11 -144 -73t-58 -162zM835 24q54 28 82.5 81t28.5 116q0 71 -34.5 109t-79.5 38q-48 0 -77 -34.5
t-29 -93.5q0 -57 29 -98q-12 -3 -26 -3q-32 0 -59 29.5t-27 89.5q0 77 49.5 136t140.5 59q50 0 94.5 -22.5t72.5 -62.5q-31 -54 -31 -126q0 -75 34 -131q-58 -85 -168 -87zM525 630l-74 -86q-7 57 -40 88t-72 31q-48 0 -77 -34.5t-29 -93.5q0 -57 29 -98q-12 -3 -26 -3
q-32 0 -59 29.5t-27 89.5q0 77 49.5 136t140.5 59q60 0 110 -31.5t75 -86.5zM740 681l-57 67h113l57 -67h-113z" />
    <glyph glyph-name="guilsinglleft" unicode="&#x2039;" horiz-adv-x="356" 
d="M131 165l-91 226l93 232h90l-93 -232l72 -179zM228 222l-68 169l90 224l71 -47l-71 -177l68 -169h-90zM239 159h-71l57 38h71z" />
    <glyph glyph-name="guilsinglright" unicode="&#x203a;" horiz-adv-x="356" 
d="M132 159l94 232l-72 179l70 46l92 -225l-94 -232h-90zM34 213l72 178l-69 169h90l69 -169l-91 -224zM59 585l57 38h72l-58 -38h-71z" />
    <glyph glyph-name="fraction" unicode="&#x2044;" horiz-adv-x="576" 
d="M73 40l-56 80l363 628h102zM199 27h-101l409 708l56 -80z" />
    <glyph glyph-name="Euro" unicode="&#x20ac;" horiz-adv-x="987" 
d="M596 297h-162q24 -57 70.5 -92.5t104.5 -42.5q-37 -22 -79 -22q-21 0 -43.5 6t-51.5 21t-55.5 48.5t-43.5 81.5h-174v80h158q-4 91 23 164t74.5 117t103.5 67t114 23q100 0 182.5 -57.5t120.5 -161.5l-77 -69q-21 95 -83 148.5t-147 53.5q-84 0 -151.5 -68.5
t-67.5 -182.5q0 -12 2 -34h182v-80zM529 27q-115 0 -197.5 68.5t-114.5 174.5h100q20 -47 48.5 -80t59 -48.5t55.5 -22t49 -6.5q71 0 131 53.5t80 144.5l76 -69q-36 -96 -116 -155.5t-171 -59.5zM509 750q-90 -38 -150.5 -122t-66.5 -207l-82 74q21 85 72.5 144t108.5 83.5
t118 27.5zM550 613q41 22 81 22q76 0 131.5 -48t73.5 -133h-98q-15 57 -64 104t-124 55zM840 233h93q-38 -95 -116 -149t-170 -59q63 27 114 79.5t79 128.5zM154 404l-89 80h115l90 -80h-116zM439 404v6q0 41 10 74h35l90 -80h-135zM135 314l-93 83v70l93 -83v-70zM849 321
l68 -61h-78l-68 61h78z" />
    <glyph glyph-name="trademark" unicode="&#x2122;" horiz-adv-x="1214" 
d="M854 735l125 -218l178 214v-409h-93v113l-86 -105l-194 342zM474 668h-81v-246l-93 -83v329h-259l88 80h434zM754 322h-93v343h94l194 -343h-105l-90 158v-158zM1041 748h93l-150 -183l-39 68zM586 662l-93 -83v69l93 84v-70zM681 692l62 56h85l-63 -56h-84zM420 641h46
v-80h-46v80zM180 322v219l93 84v-303h-93zM162 561h-145v80h233z" />
    <glyph glyph-name="Omega" unicode="&#x2126;" horiz-adv-x="677" 
d="M47 107h185v152q-75 19 -122 84t-47 160q0 115 63 182t155 67h2q-60 -31 -93.5 -94t-33.5 -136q0 -83 36.5 -133t87.5 -50q54 0 85 45.5t31 115.5q0 73 -42 128q16 7 29 7q37 0 66.5 -42t29.5 -113q0 -77 -39 -140t-115 -81v-151l2 1l-1 -2h184v-80h-463v80zM383 748
q89 0 152.5 -66.5t63.5 -168.5q0 -76 -38.5 -140.5t-97.5 -90.5l-18 -8v-35l-93 -83v82q74 24 114 91t40 150t-36.5 133t-87.5 50q-48 0 -82 -47t-34 -115q0 -75 43 -129q-15 -5 -30 -5q-37 0 -66.5 42t-29.5 113q0 87 54 157t146 70zM458 214h150l-89 -80h-150zM70 134
l89 80h46v-80h-135zM630 127l-93 -83v70l93 83v-70z" />
    <glyph glyph-name="partialdiff" unicode="&#x2202;" horiz-adv-x="707" 
d="M278 27q-99 0 -163 61t-64 156q0 96 60 157t158 61q55 0 102.5 -26.5t75.5 -65.5q0 92 -35.5 162t-95.5 82q30 21 64 21q67 0 113.5 -74.5t46.5 -189.5q0 -75 -17.5 -136t-45 -98.5t-63.5 -63.5t-69.5 -36t-66.5 -10zM382 748q119 0 198.5 -100.5t79.5 -264.5
q0 -169 -70.5 -263.5t-191.5 -94.5h-12q78 36 129.5 121t51.5 225q0 136 -55 213.5t-132 77.5q-48 0 -84.5 -29.5t-57.5 -82.5l-78 71q70 127 222 127zM413 244q0 56 -39 94t-95 38q-57 0 -96 -38t-39 -94q0 -55 39.5 -93t95.5 -38t95 38t39 93zM134 632h-88q71 117 213 119
q-78 -35 -125 -119zM126 544l-68 61h78l68 -61h-78zM413 437q-17 14 -46 28h41q4 -18 5 -28zM300 142q-7 -2 -21 -2q-45 0 -76.5 30t-31.5 74q0 42 29.5 73.5t78.5 31.5q7 0 21 -2q-51 -41 -51 -103q0 -63 51 -102z" />
    <glyph glyph-name="Delta" unicode="&#x2206;" 
d="M506 555l-183 -314h-100l284 490l354 -611l-56 -80zM174 214h363l46 -80h-558l356 614h102zM27 107h605l-176 305l50 87l274 -472h-697z" />
    <glyph glyph-name="product" unicode="&#x220f;" horiz-adv-x="693" 
d="M525 134v534h-428l90 80h431v-614h-93zM168 27h-93v614h400l-88 -80h-219v-534zM405 540l93 85v-497l-93 -84v496zM195 44v490h93v-407zM596 107l-90 -80h-78l89 80h79z" />
    <glyph glyph-name="summation" unicode="&#x2211;" horiz-adv-x="785" 
d="M160 140l301 178l-408 241v82h549v-80h-371l401 -241l-362 -213h452v-80h-562v113zM164 748h535l-89 -80h-535zM143 163l-82 57l254 151l89 -53zM500 534l148 -89v-102l-313 191h165zM508 214h103l89 -80h-328zM53 193l80 -56v-95l-80 56v95zM722 662l-93 -83v69l93 84
v-70z" />
    <glyph glyph-name="minus" unicode="&#x2212;" horiz-adv-x="827" 
d="M172 480h580l-89 -80h-491v80zM164 373h491v-80h-580zM52 380l93 83v-70l-93 -83v70zM775 393l-93 -83v70l93 83v-70z" />
    <glyph glyph-name="radical" unicode="&#x221a;" horiz-adv-x="1195" 
d="M623 571l204 -352l244 422h103l-347 -598l-264 457zM540 482l264 -455h-102l-218 375h-437v80h493zM826 276l-50 87l213 368l55 -80zM71 509l88 80h442l-67 -80h-463zM1173 668h-106l-55 80h106z" />
    <glyph glyph-name="infinity" unicode="&#x221e;" horiz-adv-x="859" 
d="M373 542l-27 -43q-41 52 -96 52q-47 0 -73.5 -32.5t-26.5 -86.5q0 -53 22 -77t55 -24q46 0 78 51l89 139q74 116 200 116q90 0 149 -59t61 -145q-26 53 -73 85.5t-104 32.5q-107 0 -168 -94l-89 -139q-54 -83 -136 -83q-78 0 -127.5 55.5t-49.5 146.5q0 84 52 141t142 57
q44 0 82.5 -17.5t61.5 -44.5q-11 -14 -22 -31zM709 319q0 59 -23.5 84t-58.5 25q-47 0 -78 -48l-98 -153q-67 -105 -183 -105q-93 0 -148 57t-64 139q26 -52 72.5 -81t105.5 -29q100 0 162 97l81 127q59 92 150 92q75 0 125 -58.5t50 -143.5q0 -93 -55.5 -146.5
t-143.5 -53.5q-87 0 -147 62q8 10 16 22l31 49q42 -47 99 -47q49 0 78 31t29 80zM210 451q-17 0 -33 -7q3 37 21.5 58.5t51.5 21.5q47 0 81 -48l-41 -64q-31 39 -80 39zM602 235q-47 0 -84 44l39 61q30 -38 80 -38q25 0 45 15q-1 -36 -22 -59t-58 -23z" />
    <glyph glyph-name="integral" unicode="&#x222b;" horiz-adv-x="569" 
d="M97 -80h-66l88 80h32v-32q0 -21 -15.5 -34.5t-38.5 -13.5zM342 -41l-52 -46q8 29 8 58v824q0 81 44.5 124t119.5 43h100v-80h-95q-31 0 -53.5 -22t-22.5 -51v-724q0 -83 -49 -126zM107 -187h-100v80h95q31 0 53.5 22t22.5 51v724q0 83 49 126l52 46q-8 -29 -8 -58v-824
q0 -81 -44.5 -124t-119.5 -43zM472 855h66l-88 -80h-32v32q0 21 15.5 34.5t38.5 13.5z" />
    <glyph glyph-name="approxequal" unicode="&#x2248;" horiz-adv-x="913" 
d="M330 536q48 0 132 -40t122 -40q60 0 98.5 21t69.5 64h98q-92 -165 -255 -165q-53 0 -143.5 40t-121.5 40q-35 0 -52.5 -10.5t-30.5 -31.5l-59 51q29 37 60 54t82 17zM330 231q48 0 132 -40t122 -40q60 0 98.5 21t69.5 64h98q-92 -165 -255 -165q-53 0 -143.5 40
t-121.5 40q-35 0 -52.5 -10.5t-30.5 -31.5l-59 51q29 37 60 54t82 17zM318 643q53 0 143.5 -40t121.5 -40q59 0 83 41l59 -51q-28 -36 -59.5 -53t-81.5 -17q-29 0 -70.5 20t-90.5 40t-94 20q-105 0 -168 -85h-98q90 165 255 165zM318 338q53 0 143.5 -40t121.5 -40
q59 0 83 41l59 -51q-28 -36 -59.5 -53t-81.5 -17q-29 0 -70.5 20t-90.5 40t-94 20q-105 0 -168 -85h-98q90 165 255 165zM751 263l-63 54h96l64 -54h-97zM751 568l-63 54h96l64 -54h-97zM128 397l-63 54h96l64 -54h-97zM128 92l-63 54h96l64 -54h-97z" />
    <glyph glyph-name="notequal" unicode="&#x2260;" horiz-adv-x="767" 
d="M150 414l-93 83v70l93 -83v-70zM137 107h106l55 -80h-106zM710 397h-533v80h533v-80zM598 584l90 -80h-519l-89 80h518zM412 611l80 137h101l-80 -137h-101zM610 611h-64l72 124l56 -81l-39 -66zM320 45l-55 80l142 245h102zM237 134h-102l137 236h102zM57 230v70l93 -83
v-1l-27 -46zM164 241l-84 76h128zM449 210h261v-80h-308zM511 317h87l90 -80h-224z" />
    <glyph glyph-name="lessequal" unicode="&#x2264;" horiz-adv-x="710" 
d="M668 559l-414 -229l307 -171v-132h-499v80h420l-403 222l589 332v-102zM62 353v102l513 287l80 -56zM312 330l89 49l258 -139l-82 -57zM84 134l89 80h59l146 -80h-294zM588 42v115l80 56v-115z" />
    <glyph glyph-name="greaterequal" unicode="&#x2265;" horiz-adv-x="710" 
d="M149 159l307 171l-414 229v102l589 -332l-403 -222h420v-80h-499v132zM135 742l513 -287v-102l-593 333zM133 183l-83 57l259 139l89 -49zM478 214h59l89 -80h-294zM42 213l80 -56v-115l-80 56v115z" />
    <glyph glyph-name="lozenge" unicode="&#x25ca;" horiz-adv-x="708" 
d="M274 388l147 -210l138 195h101l-238 -336l-248 351l112 158l50 -70zM435 388l-148 208l-141 -196h-99l239 337l248 -350l-113 -157l-49 68zM312 748h102l247 -348h-100zM148 373l246 -346h-101l-246 346h101z" />
    <glyph glyph-name="fi" unicode="&#xfb01;" horiz-adv-x="1238" 
d="M195 27v597l93 -84v-166h358v-80h-358v-267h-93zM526 668h-358v-624l-93 83v621h451v-80zM307 561l-89 80h316l89 -80h-316zM315 481h220l87 -80h-307v80zM646 648v-70l-93 83v70zM982 668h-120v80h333v-80h-120v-435l-93 -82v517zM955 107h120v-80h-333v80h120v433
l93 83v-516zM742 648l93 83v-70l-93 -83v70zM1195 127l-93 -83v70l93 83v-70zM844 561h-80l89 80h81zM1083 134h-79l89 80h79zM1102 578v63h69zM835 134h-69l69 63v-63z" />
    <glyph glyph-name="fl" unicode="&#xfb02;" horiz-adv-x="1398" 
d="M195 27v597l93 -84v-166h358v-80h-358v-267h-93zM526 668h-358v-624l-93 83v621h451v-80zM307 561l-89 80h316l89 -80h-316zM315 481h220l87 -80h-307v80zM646 648v-70l-93 83v70zM1262 214v107h93v-187h-428l88 80h247zM1235 241h-71l71 63v-63zM877 641v-534h456
l-90 -80h-459v614h93zM997 235l-93 -85v497l93 84v-496zM806 668l90 80h78l-89 -80h-79z" />
    <glyph glyph-name="dotlessi.alt01" horiz-adv-x="539" 
d="M283 668h-120v80h333v-80h-120v-435l-93 -82v517zM256 107h120v-80h-333v80h120v433l93 83v-516zM43 648l93 83v-70l-93 -83v70zM496 127l-93 -83v70l93 83v-70zM145 561h-80l89 80h81zM384 134h-79l89 80h79zM403 578v63h69zM136 134h-69l69 63v-63z" />
    <glyph glyph-name="Idotaccent.alt01" horiz-adv-x="539" 
d="M376 668h-120v-517l-93 82v435h-120v80h333v-80zM163 107h120v516l93 -83v-433h120v-80h-333v80zM403 731l93 -83v-70l-93 83v70zM136 44l-93 83v70l93 -83v-70zM474 561h-80l-90 80h81zM234 134h-79l-89 80h79zM136 641v-63l-69 63h69zM472 134h-69v63zM156 878v56
l58 20v-56zM236 898v56l58 -20v-56zM169 859l56 19l56 -19l-56 -19z" />
    <glyph glyph-name="dotlessj.alt01" horiz-adv-x="673" 
d="M386 114q58 0 92.5 38t34.5 109v386l93 83v-488q0 -96 -59 -155.5t-160 -59.5t-167.5 58.5t-70.5 152.5l80 73q5 -107 49 -152t108 -45zM393 271v290h-278v80h371v-380q0 -59 -26.5 -89.5t-73.5 -30.5q-19 0 -35 4q42 35 42 126zM137 668l89 80h357l-89 -80h-357zM29 233
h94q5 -72 43 -126t99 -82q-98 0 -163.5 57t-72.5 151zM53 260l68 61h78l-68 -61h-78z" />
    <glyph glyph-name="napostrophe.alt01" horiz-adv-x="920" 
d="M342 503v-476h-93v638h95l419 -638h-109zM752 263v384l93 84v-650l-52 -47l-420 640l69 61zM462 127l-93 -84v365l93 -142v-139zM632 499v142h93v-283zM733 668h-79l90 80h78zM352 692h-83l62 56h83zM29 502l-10 40q38 3 38 40v22h-47v90h96v-109q0 -45 -19 -62.5
t-58 -20.5zM147 572l-21 -18q2 16 2 28v118l45 40v-111q0 -35 -26 -57zM29 716l42 37h81l-41 -37h-82z" />
    <glyph glyph-name="A.alt02" 
d="M506 555l-183 -314h-100l284 490l354 -611l-56 -80zM174 214h363l46 -80h-558l356 614h102zM27 107h605l-176 305l50 87l274 -472h-697z" />
    <glyph glyph-name="a.alt02" 
d="M555 241l-183 314l-299 -515l-56 80l354 611l284 -490h-100zM341 214h363l-309 534h102l356 -614h-558zM246 107h605l-56 -80h-697l274 472l50 -87z" />
    <glyph glyph-name="Aacute.alt02" 
d="M506 555l-183 -314h-100l284 490l354 -611l-56 -80zM174 214h363l46 -80h-558l356 614h102zM27 107h605l-176 305l50 87l274 -472h-697zM370 844v56l218 74v-56zM575 994l-216 -74l-56 19l216 74zM290 863v56l58 -20v-56z" />
    <glyph glyph-name="aacute.alt02" 
d="M555 241l-183 314l-299 -515l-56 80l354 611l284 -490h-100zM341 214h363l-309 534h102l356 -614h-558zM246 107h605l-56 -80h-697l274 472l50 -87zM290 878v56l218 75v-56zM303 859l216 74l56 -19l-216 -74zM530 953v56l58 -20v-56z" />
    <glyph glyph-name="Abreve.alt02" 
d="M506 555l-183 -314h-100l284 490l354 -611l-56 -80zM174 214h363l46 -80h-558l356 614h102zM27 107h605l-176 305l50 87l274 -472h-697zM439 880q45 0 82 24l58 -20q-60 -57 -140 -57q-84 0 -143 56l61 21q38 -24 82 -24zM439 901q-35 0 -69 24v51q30 -17 69 -17
q38 0 69 17v-51q-34 -24 -69 -24zM290 905v56l58 20v-56zM530 925v56l58 -20v-56z" />
    <glyph glyph-name="abreve.alt02" 
d="M555 241l-183 314l-299 -515l-56 80l354 611l284 -490h-100zM341 214h363l-309 534h102l356 -614h-558zM246 107h605l-56 -80h-697l274 472l50 -87zM439 886q84 0 149 54v-53q-65 -55 -149 -55q-85 0 -149 53v54q62 -53 149 -53zM439 957q40 0 81 28l59 -21
q-60 -57 -140 -57q-84 0 -143 56l62 22q42 -28 81 -28z" />
    <glyph glyph-name="Acircumflex.alt02" 
d="M506 555l-183 -314h-100l284 490l354 -611l-56 -80zM174 214h363l46 -80h-558l356 614h102zM27 107h605l-176 305l50 87l274 -472h-697zM519 920l-80 27l-80 -27l-56 19l136 47l136 -47zM370 843v57l58 20v-57zM450 863v57l58 -20v-57zM290 863v56l58 -20v-56zM530 843
v56l58 20v-56z" />
    <glyph glyph-name="acircumflex.alt02" 
d="M555 241l-183 314l-299 -515l-56 80l354 611l284 -490h-100zM341 214h363l-309 534h102l356 -614h-558zM246 107h605l-56 -80h-697l274 472l50 -87zM290 935l149 51l149 -51v-54l-149 51l-149 -51v54zM439 867l-80 -27l-61 20l141 49l140 -49l-60 -20z" />
    <glyph glyph-name="Adieresis.alt02" 
d="M506 555l-183 -314h-100l284 490l354 -611l-56 -80zM174 214h363l46 -80h-558l356 614h102zM27 107h605l-176 305l50 87l274 -472h-697zM370 843v57l58 20v-57zM290 863v56l58 -20v-56zM450 863v56l58 -20v-56zM530 843v56l58 20v-56zM404 935l-45 -15l-57 19l46 16z
M473 935l57 20l45 -16l-56 -19z" />
    <glyph glyph-name="adieresis.alt02" 
d="M555 241l-183 314l-299 -515l-56 80l354 611l284 -490h-100zM341 214h363l-309 534h102l356 -614h-558zM246 107h605l-56 -80h-697l274 472l50 -87zM370 894v56l58 -20v-56zM290 874v56l58 20v-56zM450 874v56l58 20v-56zM530 894v56l58 -20v-56zM473 858l46 16l56 -19
l-45 -16zM404 858l-56 -19l-46 16l57 19z" />
    <glyph glyph-name="Agrave.alt02" 
d="M506 555l-183 -314h-100l284 490l354 -611l-56 -80zM174 214h363l46 -80h-558l356 614h102zM27 107h605l-176 305l50 87l274 -472h-697zM290 918v56l218 -74v-56zM519 920l-216 74l56 19l216 -74zM530 843v56l58 20v-56z" />
    <glyph glyph-name="agrave.alt02" 
d="M555 241l-183 314l-299 -515l-56 80l354 611l284 -490h-100zM341 214h363l-309 534h102l356 -614h-558zM246 107h605l-56 -80h-697l274 472l50 -87zM370 953v56l218 -75v-56zM303 914l56 19l216 -74l-56 -19zM290 933v56l58 20v-56z" />
    <glyph glyph-name="Amacron.alt02" 
d="M506 555l-183 -314h-100l284 490l354 -611l-56 -80zM174 214h363l46 -80h-558l356 614h102zM27 107h605l-176 305l50 87l274 -472h-697zM576 949v-37h-218v37h218zM310 853l41 37h208l-41 -37h-208zM301 906l35 32v-34l-35 -31v33z" />
    <glyph glyph-name="amacron.alt02" 
d="M555 241l-183 314l-299 -515l-56 80l354 611l284 -490h-100zM341 214h363l-309 534h102l356 -614h-558zM246 107h605l-56 -80h-697l274 472l50 -87zM301 912v37h218v-37h-218zM358 853l-41 37h208l42 -37h-209zM541 904v34l35 -32v-33z" />
    <glyph glyph-name="Aogonek.alt02" 
d="M506 555l-183 -314h-100l284 490l354 -611l-56 -80zM678 27h-595l-56 80h605l-176 305l50 87l274 -472h-35q-20 0 -34 -12t-14 -33q0 -20 11.5 -30.5t26.5 -10.5q22 0 34 13l20 -18q-24 -22 -55 -22t-51.5 18t-20.5 50q0 25 16 45zM174 214h363l46 -80h-558l356 614h102z
M642 -18q0 -40 26.5 -64t65.5 -24q44 0 72 30h45q-16 -27 -47.5 -44.5t-71.5 -17.5q-55 0 -90 32.5t-35 85.5q0 14 1 20h35q-1 -6 -1 -18zM845 -56h-35l-29 26h35z" />
    <glyph glyph-name="aogonek.alt02" 
d="M555 241l-183 314l-299 -515l-56 80l354 611l284 -490h-100zM694 27h-596l274 472l50 -87l-176 -305h605l-56 -80h-32q-22 0 -35 -12.5t-13 -32.5t12 -30.5t27 -10.5q21 0 33 13l20 -18q-24 -22 -55 -22t-51.5 18t-20.5 50q0 24 14 45zM341 214h363l-309 534h102
l356 -614h-558zM660 -18q0 -40 26.5 -64t65.5 -24q44 0 72 30h45q-16 -27 -47.5 -44.5t-71.5 -17.5q-55 0 -90 34t-35 87q0 11 1 17h35q-1 -6 -1 -18zM863 -56h-35l-29 26h35z" />
    <glyph glyph-name="Aring.alt02" 
d="M27 107h605l-176 305l50 87l274 -472h-697zM25 134l339 584q-50 32 -50 92q0 46 31.5 77.5t77.5 31.5t77.5 -31.5t31.5 -77.5q0 -32 -18.5 -61t-54.5 -42l-285 -493h363l46 -80h-558zM223 241l262 452q31 17 50.5 48.5t19.5 68.5q0 72 -62 112h4q47 0 78 -32.5t31 -79.5
q0 -39 -22.5 -69t-59.5 -39l337 -582l-56 -80l-299 515l-183 -314h-100zM363 810q0 -24 18 -42t42 -18q25 0 42.5 17t17.5 43t-17.5 43t-42.5 17t-42.5 -17t-17.5 -43z" />
    <glyph glyph-name="aring.alt02" 
d="M246 107h605l-56 -80h-697l274 472l50 -87zM519 721l-5 -3l339 -584h-558l46 80h363l-285 493q-36 13 -54.5 42t-18.5 61q0 46 31.5 77.5t77.5 31.5t77.5 -31.5t31.5 -77.5q0 -57 -45 -89zM393 693l262 -452h-100l-183 314l-299 -515l-56 80l337 582q-37 9 -59.5 39
t-22.5 69q0 47 31 79.5t78 32.5h4q-62 -40 -62 -112q0 -38 19 -69t51 -48zM515 810q0 26 -17.5 43t-42.5 17t-42.5 -17t-17.5 -43t17.5 -43t42.5 -17q24 0 42 18t18 42z" />
    <glyph glyph-name="Atilde.alt02" 
d="M506 555l-183 -314h-100l284 490l354 -611l-56 -80zM174 214h363l46 -80h-558l356 614h102zM27 107h605l-176 305l50 87l274 -472h-697zM352 905q19 0 60 -13t61 -13q29 0 50 11v-38q-23 -14 -48 -14q-18 0 -59 14t-63 14q-24 0 -48 -6v39q19 6 47 6zM325 925l14 12
q22 21 54 21q18 0 58.5 -13t62.5 -13q15 0 30 3l-14 -13q-21 -20 -55 -20q-18 0 -58.5 13t-62.5 13q-14 0 -29 -3zM545 872v34l28 25v-34z" />
    <glyph glyph-name="atilde.alt02" 
d="M555 241l-183 314l-299 -515l-56 80l354 611l284 -490h-100zM341 214h363l-309 534h102l356 -614h-558zM246 107h605l-56 -80h-697l274 472l50 -87zM473 918q-20 0 -61 -13t-60 -13q-25 0 -47 5v40q19 -6 48 -6q22 0 63 14t59 14q25 0 48 -15v-37q-23 11 -50 11zM514 865
q-22 0 -62.5 -13t-58.5 -13q-32 0 -54 21l-14 12q15 -3 29 -3q22 0 62.5 13t58.5 13q34 0 55 -20l14 -14q-13 4 -30 4zM545 891v34l28 -25v-35z" />
    <glyph glyph-name="E.alt02" horiz-adv-x="785" 
d="M160 140l301 178l-408 241v82h549v-80h-371l401 -241l-362 -213h452v-80h-562v113zM164 748h535l-89 -80h-535zM143 163l-82 57l254 151l89 -53zM500 534l148 -89v-102l-313 191h165zM508 214h103l89 -80h-328zM53 193l80 -56v-95l-80 56v95zM722 662l-93 -83v69l93 84
v-70z" />
    <glyph glyph-name="e.alt02" horiz-adv-x="785" 
d="M53 215l408 242l-301 178v113h562v-80h-452l362 -213l-401 -241h371v-80h-549v81zM75 107h535l89 -80h-535zM61 554l82 57l261 -154l-89 -53zM335 241l313 191v-102l-148 -89h-165zM611 561h-103l-136 80h328zM53 582v95l80 56v-95zM629 196l93 -83v-70l-93 84v69z" />
    <glyph glyph-name="Eacute.alt02" horiz-adv-x="785" 
d="M160 140l301 178l-408 241v82h549v-80h-371l401 -241l-362 -213h452v-80h-562v113zM164 748h535l-89 -80h-535zM143 163l-82 57l254 151l89 -53zM500 534l148 -89v-102l-313 191h165zM508 214h103l89 -80h-328zM53 193l80 -56v-95l-80 56v95zM722 662l-93 -83v69l93 84
v-70zM318 844v56l218 74v-56zM523 994l-216 -74l-56 19l216 74zM238 863v56l58 -20v-56z" />
    <glyph glyph-name="eacute.alt02" horiz-adv-x="785" 
d="M53 215l408 242l-301 178v113h562v-80h-452l362 -213l-401 -241h371v-80h-549v81zM75 107h535l89 -80h-535zM61 554l82 57l261 -154l-89 -53zM335 241l313 191v-102l-148 -89h-165zM611 561h-103l-136 80h328zM53 582v95l80 56v-95zM629 196l93 -83v-70l-93 84v69z
M238 878v56l218 75v-56zM251 859l216 74l56 -19l-216 -74zM478 953v56l58 -20v-56z" />
    <glyph glyph-name="Ebreve.alt02" horiz-adv-x="785" 
d="M160 140l301 178l-408 241v82h549v-80h-371l401 -241l-362 -213h452v-80h-562v113zM164 748h535l-89 -80h-535zM143 163l-82 57l254 151l89 -53zM500 534l148 -89v-102l-313 191h165zM508 214h103l89 -80h-328zM53 193l80 -56v-95l-80 56v95zM722 662l-93 -83v69l93 84
v-70zM387 880q45 0 82 24l58 -20q-60 -57 -140 -57q-84 0 -143 56l61 21q38 -24 82 -24zM387 901q-35 0 -69 24v51q30 -17 69 -17q38 0 69 17v-51q-34 -24 -69 -24zM238 905v56l58 20v-56zM478 925v56l58 -20v-56z" />
    <glyph glyph-name="ebreve.alt02" horiz-adv-x="785" 
d="M53 215l408 242l-301 178v113h562v-80h-452l362 -213l-401 -241h371v-80h-549v81zM75 107h535l89 -80h-535zM61 554l82 57l261 -154l-89 -53zM335 241l313 191v-102l-148 -89h-165zM611 561h-103l-136 80h328zM53 582v95l80 56v-95zM629 196l93 -83v-70l-93 84v69z
M387 886q84 0 149 54v-53q-65 -55 -149 -55q-85 0 -149 53v54q62 -53 149 -53zM387 957q40 0 81 28l59 -21q-60 -57 -140 -57q-84 0 -143 56l62 22q42 -28 81 -28z" />
    <glyph glyph-name="Ecaron.alt02" horiz-adv-x="785" 
d="M160 140l301 178l-408 241v82h549v-80h-371l401 -241l-362 -213h452v-80h-562v113zM164 748h535l-89 -80h-535zM143 163l-82 57l254 151l89 -53zM500 534l148 -89v-102l-313 191h165zM508 214h103l89 -80h-328zM53 193l80 -56v-95l-80 56v95zM722 662l-93 -83v69l93 84
v-70zM387 878l80 27l56 -19l-136 -47l-136 47l56 19zM318 925v56l58 -20v-56zM398 905v56l58 20v-56zM238 905v56l58 20v-56zM478 925v56l58 -20v-56z" />
    <glyph glyph-name="ecaron.alt02" horiz-adv-x="785" 
d="M53 215l408 242l-301 178v113h562v-80h-452l362 -213l-401 -241h371v-80h-549v81zM75 107h535l89 -80h-535zM61 554l82 57l261 -154l-89 -53zM335 241l313 191v-102l-148 -89h-165zM611 561h-103l-136 80h328zM53 582v95l80 56v-95zM629 196l93 -83v-70l-93 84v69z
M387 839l-149 51v54l149 -51l149 51v-54zM307 985l80 -27l80 27l60 -20l-140 -49l-141 49z" />
    <glyph glyph-name="Ecircumflex.alt02" horiz-adv-x="785" 
d="M160 140l301 178l-408 241v82h549v-80h-371l401 -241l-362 -213h452v-80h-562v113zM164 748h535l-89 -80h-535zM143 163l-82 57l254 151l89 -53zM500 534l148 -89v-102l-313 191h165zM508 214h103l89 -80h-328zM53 193l80 -56v-95l-80 56v95zM722 662l-93 -83v69l93 84
v-70zM467 920l-80 27l-80 -27l-56 19l136 47l136 -47zM318 843v57l58 20v-57zM398 863v57l58 -20v-57zM238 863v56l58 -20v-56zM478 843v56l58 20v-56z" />
    <glyph glyph-name="ecircumflex.alt02" horiz-adv-x="785" 
d="M53 215l408 242l-301 178v113h562v-80h-452l362 -213l-401 -241h371v-80h-549v81zM75 107h535l89 -80h-535zM61 554l82 57l261 -154l-89 -53zM335 241l313 191v-102l-148 -89h-165zM611 561h-103l-136 80h328zM53 582v95l80 56v-95zM629 196l93 -83v-70l-93 84v69z
M238 935l149 51l149 -51v-54l-149 51l-149 -51v54zM387 867l-80 -27l-61 20l141 49l140 -49l-60 -20z" />
    <glyph glyph-name="Edieresis.alt02" horiz-adv-x="785" 
d="M160 140l301 178l-408 241v82h549v-80h-371l401 -241l-362 -213h452v-80h-562v113zM164 748h535l-89 -80h-535zM143 163l-82 57l254 151l89 -53zM500 534l148 -89v-102l-313 191h165zM508 214h103l89 -80h-328zM53 193l80 -56v-95l-80 56v95zM722 662l-93 -83v69l93 84
v-70zM318 843v57l58 20v-57zM238 863v56l58 -20v-56zM398 863v56l58 -20v-56zM478 843v56l58 20v-56zM352 935l-45 -15l-57 19l46 16zM421 935l57 20l45 -16l-56 -19z" />
    <glyph glyph-name="edieresis.alt02" horiz-adv-x="785" 
d="M53 215l408 242l-301 178v113h562v-80h-452l362 -213l-401 -241h371v-80h-549v81zM75 107h535l89 -80h-535zM61 554l82 57l261 -154l-89 -53zM335 241l313 191v-102l-148 -89h-165zM611 561h-103l-136 80h328zM53 582v95l80 56v-95zM629 196l93 -83v-70l-93 84v69z
M318 894v56l58 -20v-56zM238 874v56l58 20v-56zM398 874v56l58 20v-56zM478 894v56l58 -20v-56zM421 858l46 16l56 -19l-45 -16zM352 858l-56 -19l-46 16l57 19z" />
    <glyph glyph-name="Edotaccent.alt02" horiz-adv-x="785" 
d="M160 140l301 178l-408 241v82h549v-80h-371l401 -241l-362 -213h452v-80h-562v113zM164 748h535l-89 -80h-535zM143 163l-82 57l254 151l89 -53zM500 534l148 -89v-102l-313 191h165zM508 214h103l89 -80h-328zM53 193l80 -56v-95l-80 56v95zM722 662l-93 -83v69l93 84
v-70zM318 863v56l58 -20v-56zM398 843v56l58 20v-56zM331 939l56 19l56 -19l-56 -19z" />
    <glyph glyph-name="edotaccent.alt02" horiz-adv-x="785" 
d="M53 215l408 242l-301 178v113h562v-80h-452l362 -213l-401 -241h371v-80h-549v81zM75 107h535l89 -80h-535zM61 554l82 57l261 -154l-89 -53zM335 241l313 191v-102l-148 -89h-165zM611 561h-103l-136 80h328zM53 582v95l80 56v-95zM629 196l93 -83v-70l-93 84v69z
M318 878v56l58 20v-56zM398 898v56l58 -20v-56zM331 859l56 19l56 -19l-56 -19z" />
    <glyph glyph-name="Egrave.alt02" horiz-adv-x="785" 
d="M160 140l301 178l-408 241v82h549v-80h-371l401 -241l-362 -213h452v-80h-562v113zM164 748h535l-89 -80h-535zM143 163l-82 57l254 151l89 -53zM500 534l148 -89v-102l-313 191h165zM508 214h103l89 -80h-328zM53 193l80 -56v-95l-80 56v95zM722 662l-93 -83v69l93 84
v-70zM238 918v56l218 -74v-56zM467 920l-216 74l56 19l216 -74zM478 843v56l58 20v-56z" />
    <glyph glyph-name="egrave.alt02" horiz-adv-x="785" 
d="M53 215l408 242l-301 178v113h562v-80h-452l362 -213l-401 -241h371v-80h-549v81zM75 107h535l89 -80h-535zM61 554l82 57l261 -154l-89 -53zM335 241l313 191v-102l-148 -89h-165zM611 561h-103l-136 80h328zM53 582v95l80 56v-95zM629 196l93 -83v-70l-93 84v69z
M318 953v56l218 -75v-56zM251 914l56 19l216 -74l-56 -19zM238 933v56l58 20v-56z" />
    <glyph glyph-name="Emacron.alt02" horiz-adv-x="785" 
d="M160 140l301 178l-408 241v82h549v-80h-371l401 -241l-362 -213h452v-80h-562v113zM164 748h535l-89 -80h-535zM143 163l-82 57l254 151l89 -53zM500 534l148 -89v-102l-313 191h165zM508 214h103l89 -80h-328zM53 193l80 -56v-95l-80 56v95zM722 662l-93 -83v69l93 84
v-70zM525 949v-37h-218v37h218zM259 853l41 37h208l-41 -37h-208zM250 906l35 32v-34l-35 -31v33z" />
    <glyph glyph-name="emacron.alt02" horiz-adv-x="785" 
d="M53 215l408 242l-301 178v113h562v-80h-452l362 -213l-401 -241h371v-80h-549v81zM75 107h535l89 -80h-535zM61 554l82 57l261 -154l-89 -53zM335 241l313 191v-102l-148 -89h-165zM611 561h-103l-136 80h328zM53 582v95l80 56v-95zM629 196l93 -83v-70l-93 84v69z
M250 912v37h218v-37h-218zM307 853l-41 37h208l42 -37h-209zM490 904v34l35 -32v-33z" />
    <glyph glyph-name="Eogonek.alt02" horiz-adv-x="785" 
d="M597 27h-437v113l301 178l-408 241v82h549v-80h-371l401 -241l-362 -213h452v-80h-46q-28 0 -44.5 -12.5t-16.5 -34.5q0 -19 11.5 -29t26.5 -10q22 0 34 13l20 -18q-24 -22 -55 -22t-51.5 18t-20.5 50q0 28 17 45zM164 748h535l-89 -80h-535zM143 163l-82 57l254 151
l89 -53zM500 534l148 -89v-102l-313 191h165zM508 214h103l89 -80h-328zM560 -18q0 -40 26.5 -64t65.5 -24q44 0 72 30h45q-16 -27 -47.5 -44.5t-71.5 -17.5q-55 0 -90 32.5t-35 85.5q0 14 1 20h35q-1 -6 -1 -18zM53 193l80 -56v-95l-80 56v95zM722 662l-93 -83v69l93 84
v-70zM763 -56h-35l-29 26h35z" />
    <glyph glyph-name="eogonek.alt02" horiz-adv-x="785" 
d="M53 215l408 242l-301 178v113h562v-80h-452l362 -213l-401 -241h371v-80h-549v81zM478 27h-314l-89 80h535l89 -80h-147q-25 0 -40.5 -12.5t-15.5 -34.5q0 -19 11.5 -29t26.5 -10q22 0 34 13l20 -18q-24 -22 -55 -22t-51.5 18t-20.5 50q0 28 17 45zM61 554l82 57
l261 -154l-89 -53zM335 241l313 191v-102l-148 -89h-165zM611 561h-103l-136 80h328zM441 -18q0 -40 26.5 -64t65.5 -24q44 0 72 30h45q-16 -27 -47.5 -44.5t-71.5 -17.5q-55 0 -90 32.5t-35 85.5q0 14 1 20h35q-1 -6 -1 -18zM53 582v95l80 56v-95zM629 196l93 -83v-70
l-93 84v69zM644 -56h-35l-29 26h35z" />
    <glyph glyph-name="N.alt02" horiz-adv-x="693" 
d="M525 134v534h-428l90 80h431v-614h-93zM168 27h-93v614h400l-88 -80h-219v-534zM405 540l93 85v-497l-93 -84v496zM195 44v490h93v-407zM596 107l-90 -80h-78l89 80h79z" />
    <glyph glyph-name="n.alt02" horiz-adv-x="693" 
d="M168 668v-534h-93v614h431l90 -80h-428zM195 625l93 -85v-496l-93 84v497zM187 27l-90 80h79l89 -80h-78zM218 641h400v-614h-93v534h-219zM498 44l-93 83v407h93v-490z" />
    <glyph glyph-name="Nacute.alt02" horiz-adv-x="693" 
d="M525 134v534h-428l90 80h431v-614h-93zM168 27h-93v614h400l-88 -80h-219v-534zM405 540l93 85v-497l-93 -84v496zM195 44v490h93v-407zM596 107l-90 -80h-78l89 80h79zM277 844v56l218 74v-56zM482 994l-216 -74l-56 19l216 74zM197 863v56l58 -20v-56z" />
    <glyph glyph-name="nacute.alt02" horiz-adv-x="693" 
d="M168 668v-534h-93v614h431l90 -80h-428zM195 625l93 -85v-496l-93 84v497zM187 27l-90 80h79l89 -80h-78zM218 641h400v-614h-93v534h-219zM498 44l-93 83v407h93v-490zM197 878v56l218 75v-56zM210 859l216 74l56 -19l-216 -74zM437 953v56l58 -20v-56z" />
    <glyph glyph-name="Ncaron.alt02" horiz-adv-x="693" 
d="M525 134v534h-428l90 80h431v-614h-93zM168 27h-93v614h400l-88 -80h-219v-534zM405 540l93 85v-497l-93 -84v496zM195 44v490h93v-407zM596 107l-90 -80h-78l89 80h79zM346 878l80 27l56 -19l-136 -47l-136 47l56 19zM277 925v56l58 -20v-56zM357 905v56l58 20v-56z
M197 905v56l58 20v-56zM437 925v56l58 -20v-56z" />
    <glyph glyph-name="ncaron.alt02" horiz-adv-x="693" 
d="M168 668v-534h-93v614h431l90 -80h-428zM195 625l93 -85v-496l-93 84v497zM187 27l-90 80h79l89 -80h-78zM218 641h400v-614h-93v534h-219zM498 44l-93 83v407h93v-490zM346 839l-149 51v54l149 -51l149 51v-54zM266 985l80 -27l80 27l60 -20l-140 -49l-141 49z" />
    <glyph glyph-name="Ncommaaccent.alt02" horiz-adv-x="693" 
d="M525 134v534h-428l90 80h431v-614h-93zM168 27h-93v614h400l-88 -80h-219v-534zM405 540l93 85v-497l-93 -84v496zM195 44v490h93v-407zM596 107l-90 -80h-78l89 80h79zM351 -292l-9 40q37 3 37 40v22h-47v90h96v-110q0 -45 -19 -62t-58 -20zM265 -137v83l45 -40v-83z
M326 -78l-40 37h81l41 -37h-82zM328 -231h-17l10 -40l-38 34l-9 35h31l12 -10h35q0 -19 -24 -19z" />
    <glyph glyph-name="ncommaaccent.alt02" horiz-adv-x="693" 
d="M168 668v-534h-93v614h431l90 -80h-428zM195 625l93 -85v-496l-93 84v497zM187 27l-90 80h79l89 -80h-78zM218 641h400v-614h-93v534h-219zM498 44l-93 83v407h93v-490zM284 -292l-10 40q38 3 38 40v22h-47v90h96v-109q0 -45 -19 -62.5t-58 -20.5zM402 -222l-21 -18
q2 16 2 28v118l45 40v-111q0 -35 -26 -57zM284 -78l42 37h81l-41 -37h-82z" />
    <glyph glyph-name="Ntilde.alt02" horiz-adv-x="693" 
d="M525 134v534h-428l90 80h431v-614h-93zM168 27h-93v614h400l-88 -80h-219v-534zM405 540l93 85v-497l-93 -84v496zM195 44v490h93v-407zM596 107l-90 -80h-78l89 80h79zM259 905q19 0 60 -13t61 -13q29 0 50 11v-38q-23 -14 -48 -14q-18 0 -59 14t-63 14q-24 0 -48 -6v39
q20 6 47 6zM232 925l14 12q22 21 54 21q18 0 58.5 -13t62.5 -13q15 0 30 3l-14 -13q-21 -20 -55 -20q-18 0 -58.5 13t-62.5 13q-14 0 -29 -3zM452 872v34l28 25v-34z" />
    <glyph glyph-name="ntilde.alt02" horiz-adv-x="693" 
d="M168 668v-534h-93v614h431l90 -80h-428zM195 625l93 -85v-496l-93 84v497zM187 27l-90 80h79l89 -80h-78zM218 641h400v-614h-93v534h-219zM498 44l-93 83v407h93v-490zM380 918q-20 0 -61 -13t-60 -13q-25 0 -47 5v40q19 -6 48 -6q22 0 63 14t59 14q25 0 48 -15v-37
q-23 11 -50 11zM421 865q-22 0 -62.5 -13t-58.5 -13q-32 0 -54 21l-14 12q15 -3 29 -3q22 0 62.5 13t58.5 13q34 0 55 -20l14 -14q-13 4 -30 4zM452 891v34l28 -25v-35z" />
    <glyph glyph-name="napostrophe.alt02" horiz-adv-x="867" 
d="M342 668v-534h-93v614h431l90 -80h-428zM369 625l93 -85v-496l-93 84v497zM361 27l-90 80h79l89 -80h-78zM392 641h400v-614h-93v534h-219zM672 44l-93 83v407h93v-490zM96 502l-9 40q37 3 37 40v22h-47v90h96v-110q0 -45 -19 -62t-58 -20zM10 657v83l45 -40v-83zM71 716
l-40 37h81l41 -37h-82zM73 563h-17l10 -40l-38 34l-9 35h31l12 -10h35q0 -19 -24 -19z" />
    <glyph glyph-name="napostrophe.alt03" horiz-adv-x="867" 
d="M699 134v534h-428l90 80h431v-614h-93zM342 27h-93v614h400l-88 -80h-219v-534zM579 540l93 85v-497l-93 -84v496zM369 44v490h93v-407zM770 107l-90 -80h-78l89 80h79zM29 502l-10 40q38 3 38 40v22h-47v90h96v-109q0 -45 -19 -62.5t-58 -20.5zM147 572l-21 -18
q2 16 2 28v118l45 40v-111q0 -35 -26 -57zM29 716l42 37h81l-41 -37h-82z" />
    <glyph glyph-name="O.alt02" horiz-adv-x="708" 
d="M274 388l147 -210l138 195h101l-238 -336l-248 351l112 158l50 -70zM435 388l-148 208l-141 -196h-99l239 337l248 -350l-113 -157l-49 68zM312 748h102l247 -348h-100zM148 373l246 -346h-101l-246 346h101z" />
    <glyph glyph-name="o.alt02" horiz-adv-x="707" 
d="M434 388l-62 88l49 70l113 -158l-248 -351l-239 336h101l139 -195zM396 748l-250 -348h-100l248 348h102zM421 596l-148 -208l62 -89l-49 -69l-113 157l248 350l240 -337h-100zM415 27h-101l245 346h101z" />
    <glyph glyph-name="Oacute.alt02" horiz-adv-x="708" 
d="M274 388l147 -210l138 195h101l-238 -336l-248 351l112 158l50 -70zM435 388l-148 208l-141 -196h-99l239 337l248 -350l-113 -157l-49 68zM312 748h102l247 -348h-100zM148 373l246 -346h-101l-246 346h101zM285 844v56l218 74v-56zM490 994l-216 -74l-56 19l216 74z
M205 863v56l58 -20v-56z" />
    <glyph glyph-name="oacute.alt02" horiz-adv-x="707" 
d="M434 388l-62 88l49 70l113 -158l-248 -351l-239 336h101l139 -195zM396 748l-250 -348h-100l248 348h102zM421 596l-148 -208l62 -89l-49 -69l-113 157l248 350l240 -337h-100zM415 27h-101l245 346h101zM204 878v56l218 75v-56zM217 859l216 74l56 -19l-216 -74z
M444 953v56l58 -20v-56z" />
    <glyph glyph-name="Obreve.alt02" horiz-adv-x="708" 
d="M274 388l147 -210l138 195h101l-238 -336l-248 351l112 158l50 -70zM435 388l-148 208l-141 -196h-99l239 337l248 -350l-113 -157l-49 68zM312 748h102l247 -348h-100zM148 373l246 -346h-101l-246 346h101zM354 880q44 0 82 24l58 -20q-60 -57 -140 -57q-84 0 -143 56
l61 21q38 -24 82 -24zM354 901q-35 0 -69 24v51q30 -17 69 -17q38 0 69 17v-51q-34 -24 -69 -24zM205 905v56l58 20v-56zM445 925v56l58 -20v-56z" />
    <glyph glyph-name="obreve.alt02" horiz-adv-x="707" 
d="M434 388l-62 88l49 70l113 -158l-248 -351l-239 336h101l139 -195zM396 748l-250 -348h-100l248 348h102zM421 596l-148 -208l62 -89l-49 -69l-113 157l248 350l240 -337h-100zM415 27h-101l245 346h101zM353 886q84 0 149 54v-53q-65 -55 -149 -55q-85 0 -149 53v54
q62 -53 149 -53zM353 957q40 0 81 28l59 -21q-60 -57 -140 -57q-84 0 -143 56l62 22q42 -28 81 -28z" />
    </font>
</defs>
</svg>
